<svg width="1156" height="505" viewBox="0 0 1156 505" fill="none" xmlns="http://www.w3.org/2000/svg">
<g clip-path="url(#clip0_89_15)">
<path d="M0 242.579V236.626H26.7876V10.4175H0V4.46463H123.818C171.738 4.46463 191.382 25.8949 191.382 57.445C191.382 88.9951 171.738 113.699 126.497 113.699C112.21 113.699 101.198 110.128 92.8636 99.4126C85.7203 90.1856 87.8038 78.8752 93.4589 74.4106C100.602 69.3507 110.127 70.8389 115.187 77.6847C119.949 84.5304 118.461 93.7574 111.615 98.8173C108.936 100.901 105.662 101.794 102.686 101.794C108.639 107.449 113.996 109.235 123.521 109.235C137.51 109.235 143.76 97.6267 143.76 87.2092C143.76 77.387 137.807 73.22 137.807 57.445C137.807 41.6699 143.76 38.0982 143.76 27.9784C143.76 17.8585 137.807 10.4175 120.842 10.4175H83.3392V236.626H126.795C145.248 236.626 152.689 226.804 152.689 215.493C152.689 204.778 148.225 199.718 148.225 183.05C148.225 166.382 154.773 161.917 154.773 150.905C154.773 139.892 148.225 129.772 132.747 129.772C123.223 129.772 116.377 131.558 109.531 137.213C112.508 137.213 115.187 138.106 117.865 140.19C124.711 145.25 126.199 154.476 121.437 161.322C116.377 168.168 106.853 169.656 99.7093 164.596C94.0542 160.132 91.9707 148.821 99.1141 139.594C107.448 128.879 121.437 123.819 135.724 123.819C178.882 123.819 204.776 148.226 204.776 183.05C204.776 217.874 178.882 242.579 129.771 242.579H0Z" fill="white"/>
<path d="M378.598 72.3271L358.954 26.7878C353.894 15.1798 349.429 10.4175 339.905 10.4175H302.997V119.95C319.368 119.652 335.738 109.235 350.024 81.8517V166.382C336.035 137.511 319.368 127.093 302.997 126.796V236.626H349.429C358.954 236.626 364.014 231.268 368.478 220.255L391.099 165.787L419.375 242.579H219.658V236.626H246.446V10.4175H219.658V4.46463H405.385L378.598 72.3271Z" fill="white"/>
<path d="M493.189 236.626H545.276C554.801 236.626 558.67 231.268 564.325 220.255L589.922 168.763L612.245 242.579H432.173L546.169 10.4175H501.226C491.701 10.4175 487.534 15.775 482.177 26.7878L456.58 78.28L434.257 4.46463H604.804L493.189 236.626Z" fill="white"/>
<path d="M730.11 0C798.27 0 835.177 49.4086 835.177 123.522C835.177 197.635 798.27 247.043 730.11 247.043C661.951 247.043 624.151 198.23 624.151 123.522C624.151 48.8134 661.058 0 730.11 0ZM730.11 241.09C770.292 241.09 779.221 215.791 779.221 191.979C779.221 168.168 771.185 158.941 771.185 123.522C771.185 88.1022 779.221 77.9823 779.221 55.0639C779.221 32.1454 769.994 5.65521 730.11 5.95285C689.334 6.25049 680.107 31.5501 680.405 55.0639C680.107 78.28 688.143 88.3998 688.143 123.522C688.143 158.643 680.107 168.763 680.405 191.979C680.107 215.493 689.334 241.388 730.11 241.09Z" fill="white"/>
<path d="M821.784 236.626H841.726L910.48 59.8261C917.326 42.2652 926.553 19.942 931.315 4.46463H1041.14C1088.17 6.25048 1108.71 30.0619 1108.71 64.5884C1108.71 89.2927 1095.02 117.866 1056.03 122.033H1070.91C1135.5 122.033 1139.66 152.988 1139.66 181.86V224.422C1139.66 233.054 1141.75 236.626 1146.81 236.626H1156.03V242.579H1136.98C1089.96 242.579 1084.3 222.041 1084.3 186.622V165.787C1084.3 138.999 1084.3 127.986 1064.36 127.986H1035.79C1020.01 127.986 1007.81 120.248 1001.56 112.211C994.415 102.984 996.498 91.6739 1002.15 87.2092C1009.3 82.1493 1018.82 83.6375 1023.88 90.4833C1028.64 97.3291 1027.16 106.556 1020.31 111.616C1017.63 113.699 1014.65 114.592 1011.68 114.592C1017.04 119.652 1022.99 121.736 1032.81 122.033C1052.16 122.033 1059.3 109.83 1059.3 98.222C1059.3 86.6139 1052.16 82.1493 1052.16 64.5884C1052.16 47.0275 1059.3 42.5629 1059.3 31.2524C1059.3 19.942 1051.56 10.4175 1032.22 10.4175H948.281L1036.38 236.626H1057.22V242.579H960.484V236.626H980.128L950.662 155.965H880.121L878.633 159.834C872.68 175.014 875.359 179.776 879.823 191.682L896.789 236.626H918.517V242.579H821.784V236.626ZM948.281 150.012L916.433 62.5049L882.502 150.012H948.281Z" fill="white"/>
<path d="M141.081 500.535V494.583H167.869V268.374H141.081V262.421H264.899C312.819 262.421 332.464 283.852 332.464 315.402C332.464 346.952 312.82 371.656 267.578 371.656C253.292 371.656 242.279 368.084 233.945 357.369C226.802 348.142 228.885 336.832 234.54 332.367C241.684 327.307 251.208 328.796 256.268 335.641C261.03 342.487 259.542 351.714 252.696 356.774C250.017 358.858 246.743 359.75 243.767 359.75C249.72 365.406 255.077 367.192 264.602 367.192C278.591 367.192 284.841 355.584 284.841 345.166C284.841 335.344 278.889 331.177 278.889 315.402C278.889 299.627 284.841 296.055 284.841 285.935C284.841 275.815 278.889 268.374 261.923 268.374H224.42V494.583H267.876C286.33 494.583 293.771 484.76 293.771 473.45C293.771 462.735 289.306 457.675 289.306 441.007C289.306 424.339 295.854 419.874 295.854 408.861C295.854 397.849 289.306 387.729 273.829 387.729C264.304 387.729 257.458 389.515 250.613 395.17C253.589 395.17 256.268 396.063 258.947 398.146C265.792 403.206 267.281 412.433 262.518 419.279C257.458 426.125 247.934 427.613 240.791 422.553C235.135 418.088 233.052 406.778 240.195 397.551C248.529 386.836 262.518 381.776 276.805 381.776C319.963 381.776 345.858 406.183 345.858 441.007C345.858 475.831 319.963 500.535 270.852 500.535H141.081Z" fill="white"/>
<path d="M471.164 257.957C539.323 257.957 576.231 307.365 576.231 381.478C576.231 455.591 539.323 505 471.164 505C403.004 505 365.204 456.187 365.204 381.478C365.204 306.77 402.111 257.957 471.164 257.957ZM471.164 499.047C511.345 499.047 520.274 473.748 520.274 449.936C520.274 426.125 512.238 416.898 512.238 381.478C512.238 346.059 520.274 335.939 520.274 313.021C520.274 290.102 511.048 263.612 471.164 263.91C430.387 264.207 421.16 289.507 421.458 313.021C421.16 336.237 429.197 346.357 429.197 381.478C429.197 416.6 421.16 426.72 421.458 449.936C421.16 473.45 430.387 499.345 471.164 499.047Z" fill="white"/>
<path d="M695.287 268.374H668.499V494.583H708.978C718.503 494.583 723.562 489.225 728.027 478.212L750.648 423.744L778.923 500.535H585.16V494.583H611.947V268.374H585.16V262.421H695.287V268.374Z" fill="white"/>
<path d="M787.853 500.535V494.583H814.64V268.374H787.853V262.421H904.23C966.734 262.421 1009 310.044 1009 381.478C1009 452.913 966.734 500.535 904.23 500.535H787.853ZM871.192 268.374V494.583H901.253C939.649 494.583 954.233 470.176 954.233 447.257C954.233 424.339 945.006 415.41 945.006 381.478C945.006 347.547 954.233 337.427 954.233 315.402C954.233 293.376 939.649 268.374 901.253 268.374H871.192Z" fill="white"/>
</g>
<defs>
<clipPath id="clip0_89_15">
<rect width="1156" height="505" fill="white"/>
</clipPath>
</defs>
</svg>
