<svg width="1920" height="971" viewBox="0 0 1920 971" fill="none" xmlns="http://www.w3.org/2000/svg">
<g clip-path="url(#clip0_151_210)">
<path d="M934.41 10.7948H614.928V22.0541H934.41V10.7948Z" fill="black" stroke="black" stroke-width="1.40741" stroke-miterlimit="10"/>
<path d="M944.261 0.239197H934.409V32.6095H944.261V0.239197Z" fill="white" stroke="black" stroke-width="1.40741" stroke-miterlimit="10"/>
<path d="M949.891 8.68359H944.261V24.1651H949.891V8.68359Z" fill="white" stroke="black" stroke-width="1.40741" stroke-miterlimit="10"/>
<path d="M605.076 32.3704H614.928V1.14441e-05H605.076V32.3704Z" fill="white" stroke="black" stroke-width="1.40741" stroke-miterlimit="10"/>
<path d="M599.446 23.9258H605.076V8.44437H599.446V23.9258Z" fill="white" stroke="black" stroke-width="1.40741" stroke-miterlimit="10"/>
<path d="M633.224 45.0369V665.703V948.592L766.224 665.703H785.927L918.927 948.592V665.703V45.0369H633.224Z" fill="white" stroke="black" stroke-width="1.40741" stroke-linejoin="bevel"/>
<path d="M892.186 9.85175V35.1851H854.186V9.85175H827.446V35.1851H789.446V9.85175H762.705V35.1851H724.705V9.85175H697.964V35.1851H659.964V9.85175H633.224V45.0369H641.668H659.964H697.964H724.705H762.705H789.446H827.446H854.186H892.186H907.668H918.927V9.85175H892.186Z" fill="white" stroke="black" stroke-width="1.40741" stroke-miterlimit="10"/>
<path d="M904.854 59.111H647.298V651.629H904.854V59.111Z" stroke="black" stroke-width="1.40741" stroke-miterlimit="10"/>
<path d="M662.779 340.832V334.358H691.913V88.3428H662.779V81.8688H797.44C849.556 81.8688 870.921 105.175 870.921 139.488C870.921 173.801 849.556 200.668 800.353 200.668C784.816 200.668 772.839 196.784 763.775 185.13C756.006 175.095 758.272 162.795 764.422 157.939C772.191 152.436 782.55 154.055 788.053 161.5C793.232 168.945 791.613 178.98 784.168 184.483C781.255 186.749 777.694 187.72 774.457 187.72C780.931 193.87 786.758 195.812 797.116 195.812C812.33 195.812 819.128 183.188 819.128 171.858C819.128 161.176 812.654 156.644 812.654 139.488C812.654 122.332 819.128 118.447 819.128 107.441C819.128 96.4354 812.654 88.3428 794.203 88.3428H753.416V334.358H800.677C820.747 334.358 828.839 323.675 828.839 311.375C828.839 299.721 823.984 294.218 823.984 276.091C823.984 257.963 831.105 253.108 831.105 241.131C831.105 229.154 823.984 218.148 807.151 218.148C796.793 218.148 789.347 220.09 781.902 226.241C785.139 226.241 788.053 227.212 790.966 229.478C798.411 234.981 800.03 245.015 794.85 252.461C789.347 259.906 778.989 261.524 771.22 256.021C765.07 251.166 762.804 238.865 770.573 228.83C779.636 217.177 794.85 211.674 810.388 211.674C857.325 211.674 885.487 238.218 885.487 276.091C885.487 313.964 857.325 340.832 803.914 340.832H662.779Z" fill="black"/>
<path d="M835.947 441.954L814.583 392.427C809.08 379.803 804.224 374.623 793.866 374.623H753.726V493.746C771.53 493.423 789.334 482.093 804.872 452.312V544.244C789.658 512.845 771.53 501.515 753.726 501.191V620.638H804.224C814.583 620.638 820.086 614.811 824.941 602.834L849.543 543.597L880.295 627.112H663.104V620.638H692.237V374.623H663.104V368.149H865.08L835.947 441.954Z" fill="black"/>
<path d="M1305.07 10.7949H985.591V22.0541H1305.07V10.7949Z" fill="black" stroke="black" stroke-width="1.40741" stroke-miterlimit="10"/>
<path d="M1314.92 0.239319H1305.07V32.6097H1314.92V0.239319Z" fill="white" stroke="black" stroke-width="1.40741" stroke-miterlimit="10"/>
<path d="M1320.55 8.68378H1314.92V24.1653H1320.55V8.68378Z" fill="white" stroke="black" stroke-width="1.40741" stroke-miterlimit="10"/>
<path d="M975.739 32.3704H985.591V7.24792e-05H975.739V32.3704Z" fill="white" stroke="black" stroke-width="1.40741" stroke-miterlimit="10"/>
<path d="M970.109 23.9259H975.738V8.44443H970.109V23.9259Z" fill="white" stroke="black" stroke-width="1.40741" stroke-miterlimit="10"/>
<path d="M1003.89 45.037V665.703V948.592L1136.89 665.703H1156.59L1289.59 948.592V665.703V45.037H1003.89Z" fill="white" stroke="black" stroke-width="1.40741" stroke-linejoin="bevel"/>
<path d="M1262.85 9.85187V35.1852H1224.85V9.85187H1198.11V35.1852H1160.11V9.85187H1133.37V35.1852H1095.37V9.85187H1068.63V35.1852H1030.63V9.85187H1003.89V45.037H1012.33H1030.63H1068.63H1095.37H1133.37H1160.11H1198.11H1224.85H1262.85H1278.33H1289.59V9.85187H1262.85Z" fill="white" stroke="black" stroke-width="1.40741" stroke-miterlimit="10"/>
<path d="M1275.52 59.1111H1017.96V651.629H1275.52V59.1111Z" stroke="black" stroke-width="1.40741" stroke-miterlimit="10"/>
<path d="M1033.44 340.832V334.358H1062.58V88.343H1033.44V81.8689H1168.1C1220.22 81.8689 1241.58 105.176 1241.58 139.488C1241.58 173.801 1220.22 200.668 1171.02 200.668C1155.48 200.668 1143.5 196.784 1134.44 185.13C1126.67 175.096 1128.94 162.795 1135.09 157.939C1142.85 152.436 1153.21 154.055 1158.72 161.5C1163.9 168.945 1162.28 178.98 1154.83 184.483C1151.92 186.749 1148.36 187.72 1145.12 187.72C1151.59 193.87 1157.42 195.813 1167.78 195.813C1182.99 195.813 1189.79 183.188 1189.79 171.858C1189.79 161.176 1183.32 156.644 1183.32 139.488C1183.32 122.332 1189.79 118.447 1189.79 107.441C1189.79 96.4356 1183.32 88.343 1164.87 88.343H1124.08V334.358H1171.34C1191.41 334.358 1199.5 323.675 1199.5 311.375C1199.5 299.721 1194.65 294.218 1194.65 276.091C1194.65 257.964 1201.77 253.108 1201.77 241.131C1201.77 229.154 1194.65 218.148 1177.81 218.148C1167.46 218.148 1160.01 220.09 1152.57 226.241C1155.8 226.241 1158.72 227.212 1161.63 229.478C1169.07 234.981 1170.69 245.015 1165.51 252.461C1160.01 259.906 1149.65 261.524 1141.88 256.021C1135.73 251.166 1133.47 238.865 1141.24 228.83C1150.3 217.177 1165.51 211.674 1181.05 211.674C1227.99 211.674 1256.15 238.218 1256.15 276.091C1256.15 313.964 1227.99 340.832 1174.58 340.832H1033.44Z" fill="black"/>
<path d="M1206.61 441.954L1185.25 392.427C1179.74 379.803 1174.89 374.623 1164.53 374.623H1124.39V493.746C1142.19 493.423 1160 482.093 1175.53 452.312V544.244C1160.32 512.845 1142.19 501.515 1124.39 501.192V620.638H1174.89C1185.25 620.638 1190.75 614.811 1195.6 602.834L1220.21 543.597L1250.96 627.112H1033.75V620.638H1062.89V374.623H1033.75V368.149H1235.74L1206.61 441.954Z" fill="black"/>
</g>
<defs>
<clipPath id="clip0_151_210">
<rect width="723.353" height="948.592" fill="white" transform="translate(598.323)"/>
</clipPath>
</defs>
</svg>
