<svg width="1920" height="950" viewBox="0 0 1920 950" fill="none" xmlns="http://www.w3.org/2000/svg">
<g clip-path="url(#clip0_155_215)">
<path d="M1119.67 11.4984H800.186V22.7576H1119.67V11.4984Z" fill="black" stroke="black" stroke-width="1.40741" stroke-miterlimit="10"/>
<path d="M1129.52 0.942749H1119.67V33.3131H1129.52V0.942749Z" fill="white" stroke="black" stroke-width="1.40741" stroke-miterlimit="10"/>
<path d="M1135.15 9.38721H1129.52V24.8687H1135.15V9.38721Z" fill="white" stroke="black" stroke-width="1.40741" stroke-miterlimit="10"/>
<path d="M790.334 33.0739H800.186V0.703564H790.334V33.0739Z" fill="white" stroke="black" stroke-width="1.40741" stroke-miterlimit="10"/>
<path d="M784.703 24.6295H790.333V9.14798H784.703V24.6295Z" fill="white" stroke="black" stroke-width="1.40741" stroke-miterlimit="10"/>
<path d="M818.481 45.7406V666.407L961.333 949.296L1104.19 666.407V45.7406H818.481Z" fill="white" stroke="black" stroke-width="1.40741" stroke-miterlimit="10" stroke-linejoin="bevel"/>
<path d="M1077.44 10.5554V35.8887H1039.44V10.5554H1012.7V35.8887H974.704V10.5554H947.963V35.8887H909.963V10.5554H883.222V35.8887H845.222V10.5554H818.481V45.7406H826.926H845.222H883.222H909.963H947.963H974.704H1012.7H1039.44H1077.44H1092.93H1104.19V10.5554H1077.44Z" fill="white" stroke="black" stroke-width="1.40741" stroke-miterlimit="10"/>
<path d="M1089.35 59.0547H831.796V651.573H1089.35V59.0547Z" stroke="black" stroke-width="1.40741" stroke-miterlimit="10"/>
<path d="M866.801 116.747H842.256V115.621H847.323V72.8355H842.256V71.7096H865.675C875.358 71.7096 879.581 76.2696 879.581 83.0815C879.581 88.4296 877.329 92.7644 870.01 94.0592C877.835 94.8474 880.707 99.4074 880.707 105.037C880.707 111.961 876.484 116.747 866.801 116.747ZM865.113 72.8355H858.019V93.6652H865.113C868.772 93.6652 870.235 91.6385 870.235 89.443C870.235 87.3037 868.884 86.403 868.884 83.0815C868.884 79.8163 870.235 78.9155 870.235 76.7763C870.235 74.5807 868.772 72.8355 865.113 72.8355ZM866.238 115.621C869.898 115.621 871.361 113.594 871.361 111.398C871.361 109.259 870.01 108.358 870.01 105.037C870.01 101.772 871.361 100.871 871.361 98.7318C871.361 96.5363 869.898 94.7911 866.238 94.7911H858.019V115.621H866.238ZM897.277 99.8578C897.277 104.812 896.095 106.219 896.095 109.484C896.095 112.75 898.347 116.465 904.933 116.465C909.719 116.465 912.871 114.551 915.236 111.905C914.053 112.018 912.815 111.793 911.801 111.004C909.662 109.428 909.156 106.444 910.732 104.305C912.252 102.166 915.292 101.659 917.544 103.292C919.345 104.643 920.021 108.246 917.713 111.173C915.799 113.594 911.801 117.591 904.933 117.591C893.618 117.591 887.144 110.61 887.144 99.8578C887.144 89.1615 893.618 82.1244 903.244 82.1244C914.673 82.1244 919.176 88.5985 919.176 98.6755H897.277V99.8578ZM896.095 90.1748C896.095 92.9333 896.883 94.3407 897.164 97.5496H909.043V92.9896C909.043 86.8533 907.692 83.2504 902.681 83.2504C897.784 83.2504 896.095 86.9096 896.095 90.1748ZM952.542 82.9689V83.8133L934.696 115.621H943.704C945.055 115.621 945.618 114.889 946.406 113.313L950.009 105.994L953.499 116.747H924.282V115.902L942.128 84.0948H934.865C933.514 84.0948 932.951 84.6015 932.163 86.1778L928.279 93.7778L925.126 82.9689H952.542ZM959.15 99.8578C959.15 89.1615 965.343 82.1244 976.095 82.1244C986.679 82.1244 992.872 89.1615 992.872 99.8578C992.872 110.61 986.679 117.591 976.095 117.591C965.343 117.591 959.15 110.61 959.15 99.8578ZM968.664 109.484C968.664 112.75 970.072 116.465 976.095 116.465C981.95 116.465 983.358 112.806 983.358 109.484C983.358 106.219 982.175 104.868 982.175 99.8578C982.175 94.8474 983.358 93.44 983.358 90.1748C983.358 86.8533 981.95 83.2504 976.095 83.2504C970.072 83.2504 968.664 86.9096 968.664 90.1748C968.664 93.4963 969.846 94.9037 969.846 99.8578C969.846 104.812 968.664 106.219 968.664 109.484ZM1019.27 89.7244C1019.27 85.8963 1017.36 83.2504 1013.31 83.2504C1009.7 83.2504 1007.06 84.4326 1005.42 86.1778C1005.71 86.1215 1005.99 86.1215 1006.27 86.1215C1008.75 86.1215 1010.77 88.1481 1010.77 90.6252C1010.77 93.1022 1008.75 95.1289 1006.27 95.1289C1003.79 95.1289 1001.77 93.1022 1001.77 90.6252C1001.77 86.0652 1006.61 82.1244 1013.87 82.1244C1025.52 82.1244 1029.41 88.5985 1029.41 97.437V113.313C1029.41 114.945 1029.8 115.621 1030.76 115.621H1032.5V116.747H1028.9C1021.86 116.747 1019.84 114.27 1019.27 109.935L1018.82 111.286C1017.98 113.763 1015.11 117.591 1008.97 117.591C1003.57 117.591 999.626 115.058 999.626 108.865C999.626 102.898 1004.92 100.59 1010.1 98.3941L1013.7 96.8741C1017.81 95.1289 1019.27 93.5526 1019.27 89.7244ZM1008.58 103.236C1008.58 105.318 1009.37 105.881 1009.37 108.471C1009.37 110.61 1008.75 111.511 1008.8 112.75C1008.92 114.889 1010.27 115.79 1012.18 115.79C1015.95 115.79 1019.27 111.286 1019.27 102.898V94.397C1018.94 95.0163 1018.26 95.9733 1016.46 96.8178L1011.67 99.0133C1009.2 100.139 1008.58 101.659 1008.58 103.236ZM1037.57 116.747V115.621H1042.08V84.0948H1037.01V82.9689H1041.51C1044.33 82.9689 1047.26 82.9689 1052.21 82.1244V89.0489L1052.66 88.4296C1054.29 86.1215 1056.94 82.1244 1062.23 82.1244C1067.8 82.1244 1069.66 85.6148 1069.66 88.7111C1069.66 91.4696 1067.41 93.6652 1064.65 93.6652C1061.84 93.6652 1059.53 91.4696 1059.53 88.7111C1059.53 87.1348 1060.26 85.6711 1061.44 84.7141C1060.99 84.3763 1060.37 84.2074 1059.53 84.2074C1056.88 84.2074 1054.63 87.5289 1053.45 89.2741L1052.21 91.0755V115.621H1056.71V116.747H1037.57Z" fill="black"/>
<path d="M902.268 166.006H877.723V164.88H882.79V122.095H877.723V120.969H901.142C910.825 120.969 915.047 125.529 915.047 132.341C915.047 137.689 912.796 142.024 905.477 143.319C913.302 144.107 916.173 148.667 916.173 154.296C916.173 161.221 911.951 166.006 902.268 166.006ZM900.579 122.095H893.486V142.925H900.579C904.239 142.925 905.702 140.898 905.702 138.702C905.702 136.563 904.351 135.662 904.351 132.341C904.351 129.076 905.702 128.175 905.702 126.036C905.702 123.84 904.239 122.095 900.579 122.095ZM901.705 164.88C905.364 164.88 906.828 162.853 906.828 160.658C906.828 158.519 905.477 157.618 905.477 154.296C905.477 151.031 906.828 150.13 906.828 147.991C906.828 145.796 905.364 144.05 901.705 144.05H893.486V164.88H901.705ZM922.652 143.487C922.652 129.47 929.633 120.125 942.694 120.125C955.586 120.125 962.566 129.47 962.566 143.487C962.566 157.618 955.586 166.85 942.694 166.85C929.633 166.85 922.652 157.618 922.652 143.487ZM933.292 156.436C933.236 160.883 934.981 165.781 942.694 165.725C950.294 165.725 951.983 160.939 951.983 156.436C951.983 152.101 950.463 150.187 950.463 143.487C950.463 136.788 951.983 134.874 951.983 130.539C951.983 126.036 950.237 121.194 942.694 121.25C934.981 121.307 933.236 126.092 933.292 130.539C933.236 134.93 934.756 136.845 934.756 143.487C934.756 150.13 933.236 152.045 933.292 156.436ZM987.903 120.969V122.095H982.837V164.88H990.493C992.294 164.88 993.251 163.867 994.096 161.784L998.374 151.482L1003.72 166.006H967.074V164.88H972.14V122.095H967.074V120.969H987.903ZM1030.25 166.006H1008.24V164.88H1013.3V122.095H1008.24V120.969H1030.25C1042.07 120.969 1050.07 129.976 1050.07 143.487C1050.07 157.055 1042.07 166.006 1030.25 166.006ZM1029.69 122.095H1024V164.88H1029.69C1036.95 164.88 1039.71 160.264 1039.71 155.929C1039.71 151.763 1037.96 149.905 1037.96 143.487C1037.96 137.013 1039.71 135.156 1039.71 130.99C1039.71 126.655 1036.95 122.095 1029.69 122.095Z" fill="black"/>
</g>
<defs>
<clipPath id="clip0_155_215">
<rect width="351.852" height="949.62" fill="white" transform="translate(784)"/>
</clipPath>
</defs>
</svg>
