<svg width="1920" height="939" viewBox="0 0 1920 939" fill="none" xmlns="http://www.w3.org/2000/svg">
<g clip-path="url(#clip0_151_211)">
<mask id="mask0_151_211" style="mask-type:luminance" maskUnits="userSpaceOnUse" x="592" y="0" width="654" height="920">
<path d="M637.915 600.329C628.697 600.203 614.58 596.797 605.868 599.809C594.159 603.862 593.666 616.472 592.611 626.803C590.865 643.903 593.244 665.971 599.338 682.1C605.179 697.539 619.014 723.21 635.804 728.657C638.365 729.487 637.619 728.037 639.449 728.333C653.537 730.641 651.342 728.6 670.891 735.694V595.995C660.448 599.499 650.117 600.484 637.915 600.329ZM670.876 0V595.98C675.268 594.503 679.659 592.575 684.233 590.097C707.399 577.473 724.456 559.557 739.896 538.446C753.252 520.163 774.546 503.88 793.912 492.874C807.057 485.415 821.666 487.512 833.573 495.689C847.112 504.978 861.791 510.931 876.076 517.222C892.642 524.512 907.18 533.717 925.476 531.113C941.957 528.763 959.071 529.875 975.636 528.369C986.234 527.412 998.873 523.583 1009.46 524.034C1019.59 524.456 1031.58 531.212 1040.8 534.688C1050.95 538.53 1061.04 542.555 1071.23 546.285C1065.58 544.117 1086.5 550.887 1086.48 550.873C1096.15 557.769 1104.43 576.009 1112.41 586.312C1119.32 595.235 1126.59 603.918 1132.13 613.869C1136.59 621.905 1137.36 627.534 1143.19 635.444C1155.76 652.488 1167.59 669.785 1179.02 687.617C1184.26 695.78 1189.44 704.069 1195.05 711.993C1197.65 715.666 1198.7 718.453 1199.08 717.974C1199.16 717.594 1199.23 717.214 1199.26 716.82C1199.16 719.832 1198.78 723.674 1199.22 717.496C1199.19 717.749 1199.15 717.904 1199.09 717.989C1197.67 724.322 1188.77 727.263 1185.73 733.357C1182.86 739.128 1183.93 745.714 1181.93 751.583C1179.87 757.649 1174.88 764.095 1171.17 769.232C1161.61 782.42 1149.37 790.456 1134.87 797.732C1123.65 803.376 1107 813.931 1094.27 815.409C1091.8 815.691 1088.38 814.734 1085.95 814.396C1069.93 812.243 1054.06 808.949 1038.07 806.697C1017.52 803.798 997.367 801.729 976.65 801.701C916.849 801.588 858.076 783.63 798.219 784.137C784.708 784.249 784.834 785.333 772.224 780.041C739.079 766.122 707.258 749.078 673.466 736.651C672.551 736.313 671.707 736.003 670.876 735.708V919.797H1245.14V0H670.876Z" fill="white"/>
</mask>
<g mask="url(#mask0_151_211)">
<path d="M819.865 502.599L843.439 617.64C860.412 699.678 886.815 763.8 974.51 763.8C1056.55 763.8 1104.64 701.564 1104.64 627.07C1104.64 544.089 1062.21 501.656 989.598 466.766L897.187 422.447C803.834 378.128 738.77 304.577 738.77 205.566C738.77 64.1213 868.899 -0.00012207 985.826 -0.00012207C1078.24 -0.00012207 1107.47 14.1443 1166.87 14.1443C1188.56 14.1443 1218.74 11.3154 1243.25 4.71469L1156.5 241.398L1082.01 93.3532C1055.61 41.4902 1021.66 18.8591 966.967 18.8591C875.499 18.8591 846.267 81.0946 846.267 127.3C846.267 188.592 889.644 224.425 943.393 250.828L1093.32 324.379C1219.68 386.614 1245.14 477.139 1245.14 530.888C1245.14 691.191 1109.35 782.659 965.081 782.659C852.868 782.659 734.998 732.682 670.876 688.362L819.865 502.599Z" fill="black"/>
</g>
<mask id="mask1_151_211" style="mask-type:luminance" maskUnits="userSpaceOnUse" x="592" y="0" width="654" height="920">
<path d="M637.915 600.329C628.697 600.203 614.58 596.797 605.868 599.809C594.159 603.862 593.666 616.472 592.611 626.803C590.865 643.903 593.244 665.971 599.338 682.1C605.179 697.539 619.014 723.21 635.804 728.657C638.365 729.487 637.619 728.037 639.449 728.333C653.537 730.641 651.342 728.6 670.891 735.694V595.995C660.448 599.499 650.117 600.484 637.915 600.329ZM670.876 0V595.98C675.268 594.503 679.659 592.575 684.233 590.097C707.399 577.473 724.456 559.557 739.896 538.446C753.252 520.163 774.546 503.88 793.912 492.874C807.057 485.415 821.666 487.512 833.573 495.689C847.112 504.978 861.791 510.931 876.076 517.222C892.642 524.512 907.18 533.717 925.476 531.113C941.957 528.763 959.071 529.875 975.636 528.369C986.234 527.412 998.873 523.583 1009.46 524.034C1019.59 524.456 1031.58 531.212 1040.8 534.688C1050.95 538.53 1061.04 542.555 1071.23 546.285C1065.58 544.117 1086.5 550.887 1086.48 550.873C1096.15 557.769 1104.43 576.009 1112.41 586.312C1119.32 595.235 1126.59 603.918 1132.13 613.869C1136.59 621.905 1137.36 627.534 1143.19 635.444C1155.76 652.488 1167.59 669.785 1179.02 687.617C1184.26 695.78 1189.44 704.069 1195.05 711.993C1197.65 715.666 1198.7 718.453 1199.08 717.974C1199.16 717.594 1199.23 717.214 1199.26 716.82C1199.16 719.832 1198.78 723.674 1199.22 717.496C1199.19 717.749 1199.15 717.904 1199.09 717.989C1197.67 724.322 1188.77 727.263 1185.73 733.357C1182.86 739.128 1183.93 745.714 1181.93 751.583C1179.87 757.649 1174.88 764.095 1171.17 769.232C1161.61 782.42 1149.37 790.456 1134.87 797.732C1123.65 803.376 1107 813.931 1094.27 815.409C1091.8 815.691 1088.38 814.734 1085.95 814.396C1069.93 812.243 1054.06 808.949 1038.07 806.697C1017.52 803.798 997.367 801.729 976.65 801.701C916.849 801.588 858.076 783.63 798.219 784.137C784.708 784.249 784.834 785.333 772.224 780.041C739.079 766.122 707.258 749.078 673.466 736.651C672.551 736.313 671.707 736.003 670.876 735.708V919.797H1245.14V0H670.876Z" fill="white"/>
</mask>
<g mask="url(#mask1_151_211)">
<mask id="mask2_151_211" style="mask-type:luminance" maskUnits="userSpaceOnUse" x="782" y="326" width="391" height="594">
<path d="M932.29 326.842L935.963 412.286C935.963 412.286 937.722 441.306 927.167 458.012C916.611 474.718 804.933 643.565 804.933 643.565C804.933 643.565 782.063 674.345 782.063 694.569C782.063 714.794 805.806 767.557 822.512 799.224C839.218 830.876 872.644 874.858 872.644 874.858C872.644 874.858 869.224 882.767 869.125 887.173C868.956 894.069 872.644 900.36 879.681 903.879C886.718 907.397 922.269 919.036 977.678 919.036C977.678 919.036 1036.94 920.444 1074.76 903.738C1081.95 900.557 1085.32 894.942 1085.32 887.032C1085.32 882.641 1081.8 874.717 1081.8 874.717C1081.8 874.717 1115.21 830.75 1131.93 799.083C1148.64 767.431 1172.38 714.653 1172.38 694.428C1172.38 674.204 1149.51 643.424 1149.51 643.424C1149.51 643.424 1037.82 474.577 1027.28 457.871C1016.72 441.166 1018.48 412.145 1018.48 412.145L1022 326.842" fill="white"/>
</mask>
<g mask="url(#mask2_151_211)">
<path d="M1274.89 313.528H538.834V730.627H1274.89V313.528Z" fill="white"/>
<path d="M749.298 508.904C770.635 508.904 787.932 491.607 787.932 470.27C787.932 448.934 770.635 431.637 749.298 431.637C727.962 431.637 710.665 448.934 710.665 470.27C710.665 491.607 727.962 508.904 749.298 508.904Z" fill="#E3E3E3"/>
<path d="M853.433 508.904C874.769 508.904 892.066 491.607 892.066 470.27C892.066 448.934 874.769 431.637 853.433 431.637C832.096 431.637 814.799 448.934 814.799 470.27C814.799 491.607 832.096 508.904 853.433 508.904Z" fill="#E3E3E3"/>
<path d="M957.581 508.904C978.917 508.904 996.214 491.607 996.214 470.27C996.214 448.934 978.917 431.637 957.581 431.637C936.244 431.637 918.947 448.934 918.947 470.27C918.947 491.607 936.244 508.904 957.581 508.904Z" fill="#E3E3E3"/>
<path d="M1061.71 508.904C1083.05 508.904 1100.35 491.607 1100.35 470.27C1100.35 448.934 1083.05 431.637 1061.71 431.637C1040.38 431.637 1023.08 448.934 1023.08 470.27C1023.08 491.607 1040.38 508.904 1061.71 508.904Z" fill="#E3E3E3"/>
<path d="M1165.85 508.904C1187.19 508.904 1204.48 491.607 1204.48 470.27C1204.48 448.934 1187.19 431.637 1165.85 431.637C1144.51 431.637 1127.22 448.934 1127.22 470.27C1127.22 491.607 1144.51 508.904 1165.85 508.904Z" fill="#E3E3E3"/>
<path d="M749.298 716.102C770.635 716.102 787.932 698.806 787.932 677.469C787.932 656.132 770.635 638.836 749.298 638.836C727.962 638.836 710.665 656.132 710.665 677.469C710.665 698.806 727.962 716.102 749.298 716.102Z" fill="#E3E3E3"/>
<path d="M853.433 716.102C874.769 716.102 892.066 698.806 892.066 677.469C892.066 656.132 874.769 638.836 853.433 638.836C832.096 638.836 814.799 656.132 814.799 677.469C814.799 698.806 832.096 716.102 853.433 716.102Z" fill="#E3E3E3"/>
<path d="M957.581 716.102C978.917 716.102 996.214 698.806 996.214 677.469C996.214 656.132 978.917 638.836 957.581 638.836C936.244 638.836 918.947 656.132 918.947 677.469C918.947 698.806 936.244 716.102 957.581 716.102Z" fill="#E3E3E3"/>
<path d="M1061.71 716.102C1083.05 716.102 1100.35 698.806 1100.35 677.469C1100.35 656.132 1083.05 638.836 1061.71 638.836C1040.38 638.836 1023.08 656.132 1023.08 677.469C1023.08 698.806 1040.38 716.102 1061.71 716.102Z" fill="#E3E3E3"/>
<path d="M1165.85 716.102C1187.19 716.102 1204.48 698.806 1204.48 677.469C1204.48 656.132 1187.19 638.836 1165.85 638.836C1144.51 638.836 1127.22 656.132 1127.22 677.469C1127.22 698.806 1144.51 716.102 1165.85 716.102Z" fill="#E3E3E3"/>
<path d="M801.908 612.503C823.244 612.503 840.541 595.206 840.541 573.87C840.541 552.533 823.244 535.236 801.908 535.236C780.571 535.236 763.274 552.533 763.274 573.87C763.274 595.206 780.571 612.503 801.908 612.503Z" fill="#E3E3E3"/>
<path d="M906.873 612.503C928.209 612.503 945.506 595.206 945.506 573.87C945.506 552.533 928.209 535.236 906.873 535.236C885.536 535.236 868.239 552.533 868.239 573.87C868.239 595.206 885.536 612.503 906.873 612.503Z" fill="#E3E3E3"/>
<path d="M1011.82 612.503C1033.16 612.503 1050.46 595.206 1050.46 573.87C1050.46 552.533 1033.16 535.236 1011.82 535.236C990.486 535.236 973.189 552.533 973.189 573.87C973.189 595.206 990.486 612.503 1011.82 612.503Z" fill="#E3E3E3"/>
<path d="M1116.79 612.503C1138.12 612.503 1155.42 595.206 1155.42 573.87C1155.42 552.533 1138.12 535.236 1116.79 535.236C1095.45 535.236 1078.15 552.533 1078.15 573.87C1078.15 595.206 1095.45 612.503 1116.79 612.503Z" fill="#E3E3E3"/>
<path d="M801.908 405.319C823.244 405.319 840.541 388.022 840.541 366.685C840.541 345.349 823.244 328.052 801.908 328.052C780.571 328.052 763.274 345.349 763.274 366.685C763.274 388.022 780.571 405.319 801.908 405.319Z" fill="#E3E3E3"/>
<path d="M906.873 405.319C928.209 405.319 945.506 388.022 945.506 366.685C945.506 345.349 928.209 328.052 906.873 328.052C885.536 328.052 868.239 345.349 868.239 366.685C868.239 388.022 885.536 405.319 906.873 405.319Z" fill="#E3E3E3"/>
<path d="M1011.82 405.319C1033.16 405.319 1050.46 388.022 1050.46 366.685C1050.46 345.349 1033.16 328.052 1011.82 328.052C990.486 328.052 973.189 345.349 973.189 366.685C973.189 388.022 990.486 405.319 1011.82 405.319Z" fill="#E3E3E3"/>
<path d="M1116.79 405.319C1138.12 405.319 1155.42 388.022 1155.42 366.685C1155.42 345.349 1138.12 328.052 1116.79 328.052C1095.45 328.052 1078.15 345.349 1078.15 366.685C1078.15 388.022 1095.45 405.319 1116.79 405.319Z" fill="#E3E3E3"/>
</g>
<mask id="mask3_151_211" style="mask-type:luminance" maskUnits="userSpaceOnUse" x="782" y="326" width="391" height="594">
<path d="M932.29 326.842L935.963 412.286C935.963 412.286 937.722 441.306 927.167 458.012C916.611 474.718 804.933 643.565 804.933 643.565C804.933 643.565 782.063 674.345 782.063 694.569C782.063 714.794 805.806 767.557 822.512 799.224C839.218 830.876 872.644 874.858 872.644 874.858C872.644 874.858 869.224 882.767 869.125 887.173C868.956 894.069 872.644 900.36 879.681 903.879C886.718 907.397 922.269 919.036 977.678 919.036C977.678 919.036 1036.94 920.444 1074.76 903.738C1081.95 900.557 1085.32 894.942 1085.32 887.032C1085.32 882.641 1081.8 874.717 1081.8 874.717C1081.8 874.717 1115.21 830.75 1131.93 799.083C1148.64 767.431 1172.38 714.653 1172.38 694.428C1172.38 674.204 1149.51 643.424 1149.51 643.424C1149.51 643.424 1037.82 474.577 1027.28 457.871C1016.72 441.166 1018.48 412.145 1018.48 412.145L1022 326.842" fill="white"/>
</mask>
<g mask="url(#mask3_151_211)">
<path d="M1274.89 730.627H538.834V1147.73H1274.89V730.627Z" fill="white"/>
<path d="M749.298 926.017C770.635 926.017 787.932 908.721 787.932 887.384C787.932 866.047 770.635 848.751 749.298 848.751C727.962 848.751 710.665 866.047 710.665 887.384C710.665 908.721 727.962 926.017 749.298 926.017Z" fill="#E3E3E3"/>
<path d="M853.433 926.017C874.769 926.017 892.066 908.721 892.066 887.384C892.066 866.047 874.769 848.751 853.433 848.751C832.096 848.751 814.799 866.047 814.799 887.384C814.799 908.721 832.096 926.017 853.433 926.017Z" fill="#E3E3E3"/>
<path d="M957.581 926.017C978.917 926.017 996.214 908.721 996.214 887.384C996.214 866.047 978.917 848.751 957.581 848.751C936.244 848.751 918.947 866.047 918.947 887.384C918.947 908.721 936.244 926.017 957.581 926.017Z" fill="#E3E3E3"/>
<path d="M1061.71 926.017C1083.05 926.017 1100.35 908.721 1100.35 887.384C1100.35 866.047 1083.05 848.751 1061.71 848.751C1040.38 848.751 1023.08 866.047 1023.08 887.384C1023.08 908.721 1040.38 926.017 1061.71 926.017Z" fill="#E3E3E3"/>
<path d="M1165.85 926.017C1187.19 926.017 1204.48 908.721 1204.48 887.384C1204.48 866.047 1187.19 848.751 1165.85 848.751C1144.51 848.751 1127.22 866.047 1127.22 887.384C1127.22 908.721 1144.51 926.017 1165.85 926.017Z" fill="#E3E3E3"/>
<path d="M801.908 822.418C823.244 822.418 840.541 805.121 840.541 783.784C840.541 762.448 823.244 745.151 801.908 745.151C780.571 745.151 763.274 762.448 763.274 783.784C763.274 805.121 780.571 822.418 801.908 822.418Z" fill="#E3E3E3"/>
<path d="M906.873 822.418C928.209 822.418 945.506 805.121 945.506 783.784C945.506 762.448 928.209 745.151 906.873 745.151C885.536 745.151 868.239 762.448 868.239 783.784C868.239 805.121 885.536 822.418 906.873 822.418Z" fill="#E3E3E3"/>
<path d="M1011.82 822.418C1033.16 822.418 1050.46 805.121 1050.46 783.784C1050.46 762.448 1033.16 745.151 1011.82 745.151C990.486 745.151 973.189 762.448 973.189 783.784C973.189 805.121 990.486 822.418 1011.82 822.418Z" fill="#E3E3E3"/>
<path d="M1116.79 822.418C1138.12 822.418 1155.42 805.121 1155.42 783.784C1155.42 762.448 1138.12 745.151 1116.79 745.151C1095.45 745.151 1078.15 762.448 1078.15 783.784C1078.15 805.121 1095.45 822.418 1116.79 822.418Z" fill="#E3E3E3"/>
</g>
<path d="M980.732 919.754C978.818 919.754 977.734 919.726 977.649 919.726C921.367 919.726 885.816 907.707 879.37 904.484C872.347 900.965 868.252 894.477 868.435 887.131C868.533 883.148 871.165 876.589 871.855 874.928C868.772 870.833 837.711 829.441 821.906 799.534C805.608 768.655 781.373 715.216 781.373 694.555C781.373 674.331 803.441 644.395 804.37 643.128C805.467 641.468 916.146 474.127 926.575 457.618C936.891 441.292 935.287 412.595 935.258 412.3L931.571 326.842L932.978 326.786L936.666 412.229C936.736 413.412 938.312 441.658 927.757 458.364C917.314 474.887 806.635 642.242 805.51 643.931C805.256 644.268 782.766 674.781 782.766 694.555C782.766 714.963 806.903 768.12 823.13 798.872C839.625 830.117 872.854 873.971 873.192 874.408L873.445 874.731L873.276 875.111C873.248 875.182 869.913 882.951 869.814 887.159C869.645 894.055 873.361 899.91 879.975 903.217C886.351 906.398 921.607 918.305 977.635 918.305C978.241 918.319 1037.2 919.515 1074.44 903.062C1081.25 900.051 1084.57 894.787 1084.57 886.99C1084.57 882.796 1081.15 875.041 1081.11 874.971L1080.94 874.591L1081.19 874.253C1081.53 873.817 1114.77 829.962 1131.25 798.717C1147.48 767.965 1171.62 714.808 1171.62 694.4C1171.62 674.64 1149.11 644.114 1148.89 643.818C1147.75 642.101 1037.06 474.746 1026.61 458.223C1016.06 441.517 1017.63 413.271 1017.7 412.075L1021.22 326.786L1022.63 326.842L1019.11 412.145C1019.1 412.44 1017.49 441.152 1027.8 457.477C1038.22 473.986 1148.9 641.327 1150.03 643.016C1150.94 644.254 1173.01 674.19 1173.01 694.414C1173.01 715.089 1148.78 768.528 1132.48 799.393C1116.69 829.3 1085.64 870.678 1082.54 874.788C1083.26 876.448 1085.95 883.021 1085.95 887.004C1085.95 895.308 1082.26 901.134 1074.97 904.357C1042.45 918.783 993.427 919.754 980.732 919.754Z" fill="black"/>
<path d="M1027.28 272.319C1027.28 272.319 1028.15 260.004 1043.11 240.666C1048.92 233.137 1058.06 227.479 1058.06 227.479C1057.11 226.353 1050.82 219.161 1039.49 222.877C1029.94 226.015 1008.89 248.013 1002.73 253.924C999.127 257.372 996.495 259.132 974.512 259.132C948.123 259.132 918.229 259.132 918.229 259.132V272.108L903.283 294.317L919.989 312.782H1028.16L1027.28 272.319Z" fill="white"/>
<path d="M1028.87 313.472H919.665L919.454 313.246L902.382 294.373L917.526 271.897V258.428H974.511C996.059 258.428 998.719 256.795 1002.25 253.418C1003.18 252.531 1004.45 251.264 1005.95 249.772C1014.71 241.089 1030.99 224.932 1039.27 222.215C1050.4 218.556 1056.87 224.974 1058.59 227.029L1059.11 227.648L1058.42 228.07C1058.34 228.127 1049.33 233.756 1043.66 241.089C1029.34 259.61 1028.04 271.672 1027.98 272.333L1028.87 313.472ZM920.298 312.064H1027.43L1026.57 272.291V272.263C1026.61 271.756 1027.64 259.512 1042.55 240.23C1047.5 233.812 1054.71 228.816 1056.97 227.324C1054.82 225.058 1049.06 220.456 1039.7 223.538C1031.75 226.156 1014.99 242.778 1006.94 250.758C1005.42 252.264 1004.15 253.53 1003.21 254.417C999.408 258.062 996.594 259.821 974.497 259.821H918.919V272.305L918.806 272.488L904.155 294.232L920.298 312.064Z" fill="black"/>
<path d="M985.236 259.117L982.336 260.145C979.381 261.186 976.158 261.186 973.188 260.145L970.289 259.117V241.089C970.289 236.965 973.639 233.615 977.762 233.615C981.886 233.615 985.236 236.965 985.236 241.089V259.117Z" fill="white"/>
<path d="M977.762 261.637C976.129 261.637 974.511 261.369 972.949 260.82L969.571 259.624V241.103C969.571 236.599 973.244 232.926 977.748 232.926C982.252 232.926 985.925 236.599 985.925 241.103V259.624L982.547 260.82C981.013 261.355 979.395 261.637 977.762 261.637ZM970.992 258.625L973.427 259.483C976.228 260.468 979.31 260.468 982.097 259.483L984.532 258.625V241.088C984.532 237.359 981.492 234.319 977.762 234.319C974.032 234.319 970.992 237.359 970.992 241.088V258.625Z" fill="black"/>
<path d="M793.589 325.744L793.097 324.421C793.167 324.393 799.923 321.79 803.272 315.09C806.622 308.405 805.003 302.466 804.989 302.41L806.34 302.03C806.411 302.297 808.128 308.532 804.539 315.724C800.936 322.915 793.885 325.632 793.589 325.744Z" fill="black"/>
<path d="M980.661 893.182C926.645 893.182 885.873 880.093 885.464 879.952L885.901 878.615C886.309 878.742 926.884 891.775 980.661 891.775C1040.5 891.775 1065.44 881.388 1065.68 881.275L1066.23 882.57C1065.99 882.669 1040.84 893.182 980.661 893.182Z" fill="black"/>
<path d="M976.27 452.425C960.507 452.425 941.93 446.288 941.747 446.232L942.197 444.895C942.38 444.951 960.747 451.017 976.27 451.017C991.752 451.017 1008.35 443.249 1008.51 443.164L1009.12 444.431C1008.94 444.515 992.075 452.425 976.27 452.425Z" fill="black"/>
<path d="M920.86 273.192L1029.91 272.319C1029.91 272.319 1037.2 283.747 1037.2 293.43C1037.2 303.113 1030.91 312.782 1030.91 312.782" fill="white"/>
<path d="M1031.51 313.148L1030.33 312.388C1030.38 312.289 1036.51 302.775 1036.51 293.43C1036.51 284.972 1030.69 274.965 1029.53 273.037L920.874 273.909L920.86 272.502L1030.3 271.615L1030.51 271.939C1030.81 272.417 1037.91 283.663 1037.91 293.416C1037.9 303.183 1031.76 312.754 1031.51 313.148Z" fill="black"/>
<path d="M1026.05 292.712H927.897V294.12H1026.05V292.712Z" fill="black"/>
<path d="M917.342 327.714L1034.99 328.08L1035.18 311.895H917.342V327.714Z" fill="white"/>
<path d="M1035.68 328.784H1034.97L916.639 328.418V311.177H1035.89L1035.68 328.784ZM918.046 327.011L1034.28 327.363L1034.47 312.585H918.046V327.011Z" fill="black"/>
<path d="M922.621 311.895L922.452 312.12C918.933 316.751 919.004 323.168 922.621 327.728L912.502 350.486L909.419 357.622L903.269 351.471C903.269 351.471 899.75 301.34 865.452 301.34C831.153 301.34 832.04 344.434 832.04 344.434C832.04 344.434 832.04 381.365 871.616 435.015C903.17 477.786 908.547 522.077 908.547 530.874C908.547 539.67 892.713 558.135 883.917 560.767C883.917 560.767 883.509 574.236 877.767 583.637C868.098 599.471 843.06 602.426 843.06 602.426L849.816 566.889C856.965 543.442 873.882 524.217 896.246 514.168C896.246 514.168 883.157 520.811 878.653 515.04C870.223 504.26 876.022 482.501 873.376 474.591C870.744 466.682 812.702 381.379 812.702 381.379C812.702 381.379 795.996 345.321 795.996 335.652C795.996 325.983 792.478 317.834 795.996 307.842C799.515 297.849 810.943 296.963 810.943 296.963C810.943 296.963 821.499 288.166 837.332 280.257C848.282 274.782 865.579 269.138 870.744 267.069C879.54 263.551 875.135 257.4 875.135 252.995C875.135 245.958 884.762 243.326 894.487 243.326C909.433 243.326 920.876 259.16 920.876 259.16C917.765 263.1 917.653 268.631 920.622 272.671L920.876 273.008L920.228 273.937C911.84 285.83 912.853 301.086 922.621 311.895Z" fill="white"/>
<path d="M842.188 603.228L849.112 566.748C855.431 546.031 869.252 528.622 887.675 517.785C884.058 518.432 880.244 518.221 878.091 515.463C872.588 508.411 872.968 496.843 873.291 487.554C873.474 482.206 873.629 477.575 872.7 474.803C870.125 467.076 812.688 382.617 812.111 381.759C811.365 380.183 795.279 345.349 795.279 335.638C795.279 332.415 794.871 329.305 794.491 326.307C793.688 320.157 792.943 314.358 795.321 307.589C798.671 298.075 808.973 296.47 810.648 296.273C812.069 295.119 822.343 286.942 836.994 279.609C845.031 275.584 856.459 271.489 864.031 268.772C866.86 267.759 869.097 266.957 870.477 266.408C876.599 263.959 875.811 260.37 874.966 256.57C874.685 255.317 874.431 254.121 874.431 252.995C874.431 245.339 884.79 242.623 894.487 242.623C909.617 242.623 920.96 258.09 921.439 258.737L921.748 259.174L921.411 259.596C918.497 263.269 918.399 268.477 921.185 272.263L921.734 273.009L920.791 274.36C912.643 285.985 913.585 300.903 923.156 311.459L923.55 311.895L923.029 312.585C919.708 316.962 919.764 323.028 923.198 327.32L923.465 327.658L913.177 350.81L909.687 358.903L902.608 351.823L902.594 351.556C902.565 351.063 898.723 302.086 865.48 302.086C856.881 302.086 849.788 304.872 844.411 310.361C832.463 322.563 832.758 344.237 832.758 344.463C832.758 344.843 833.237 381.829 872.194 434.635C907.674 482.726 909.265 530.451 909.265 530.916C909.265 538.924 894.937 557.797 884.621 561.33C884.48 563.891 883.608 575.502 878.386 584.045C868.647 599.977 844.2 603.045 843.159 603.172L842.188 603.228ZM895.008 515.491C873.587 525.638 857.416 544.357 850.491 567.072L843.947 601.568C848.591 600.822 868.858 596.867 877.176 583.243C882.749 574.109 883.228 560.851 883.228 560.725L883.242 560.218L883.72 560.077C891.813 557.643 907.843 539.473 907.843 530.845C907.843 530.395 906.267 483.148 871.04 435.409C831.787 382.195 831.323 344.786 831.323 344.406C831.308 343.506 831.013 321.93 843.37 309.306C849.028 303.535 856.445 300.608 865.438 300.608C898.681 300.608 903.579 347.151 903.931 351.12L909.166 356.355L911.84 350.163L921.791 327.785C918.286 323.084 918.244 316.652 921.692 311.895C912.037 300.861 911.193 285.492 919.609 273.473L919.975 272.952C916.991 268.815 917.005 263.213 919.961 259.089C918.047 256.626 907.534 243.96 894.459 243.96C885.451 243.96 875.811 246.31 875.811 252.925C875.811 253.91 876.05 255.022 876.317 256.204C877.162 260.018 878.203 264.761 870.969 267.646C869.562 268.209 867.324 269.012 864.481 270.039C856.951 272.741 845.565 276.837 837.6 280.82C822.034 288.603 811.464 297.357 811.351 297.441L811.183 297.582L810.957 297.596C810.845 297.61 799.937 298.567 796.616 308.011C794.35 314.471 795.082 320.114 795.856 326.082C796.25 329.122 796.658 332.274 796.658 335.596C796.658 345.012 813.139 380.675 813.308 381.027C815.616 384.419 871.377 466.4 874.009 474.324C875.008 477.336 874.854 482.079 874.671 487.568C874.361 496.631 873.981 507.933 879.174 514.576C882.482 518.798 891.25 515.547 894.585 514.097C895.036 513.886 895.472 513.689 895.922 513.478L896.528 514.745C896.457 514.829 895.88 515.111 895.008 515.491Z" fill="black"/>
</g>
<mask id="mask4_151_211" style="mask-type:luminance" maskUnits="userSpaceOnUse" x="592" y="0" width="654" height="920">
<path d="M637.915 600.329C628.697 600.203 614.58 596.797 605.868 599.809C594.159 603.862 593.666 616.472 592.611 626.803C590.865 643.903 593.244 665.971 599.338 682.1C605.179 697.539 619.014 723.21 635.804 728.657C638.365 729.487 637.619 728.037 639.449 728.333C653.537 730.641 651.342 728.6 670.891 735.694V595.995C660.448 599.499 650.117 600.484 637.915 600.329ZM670.876 0V595.98C675.268 594.503 679.659 592.575 684.233 590.097C707.399 577.473 724.456 559.557 739.896 538.446C753.252 520.163 774.546 503.88 793.912 492.874C807.057 485.415 821.666 487.512 833.573 495.689C847.112 504.978 861.791 510.931 876.076 517.222C892.642 524.512 907.18 533.717 925.476 531.113C941.957 528.763 959.071 529.875 975.636 528.369C986.234 527.412 998.873 523.583 1009.46 524.034C1019.59 524.456 1031.58 531.212 1040.8 534.688C1050.95 538.53 1061.04 542.555 1071.23 546.285C1065.58 544.117 1086.5 550.887 1086.48 550.873C1096.15 557.769 1104.43 576.009 1112.41 586.312C1119.32 595.235 1126.59 603.918 1132.13 613.869C1136.59 621.905 1137.36 627.534 1143.19 635.444C1155.76 652.488 1167.59 669.785 1179.02 687.617C1184.26 695.78 1189.44 704.069 1195.05 711.993C1197.65 715.666 1198.7 718.453 1199.08 717.974C1199.16 717.594 1199.23 717.214 1199.26 716.82C1199.16 719.832 1198.78 723.674 1199.22 717.496C1199.19 717.749 1199.15 717.904 1199.09 717.989C1197.67 724.322 1188.77 727.263 1185.73 733.357C1182.86 739.128 1183.93 745.714 1181.93 751.583C1179.87 757.649 1174.88 764.095 1171.17 769.232C1161.61 782.42 1149.37 790.456 1134.87 797.732C1123.65 803.376 1107 813.931 1094.27 815.409C1091.8 815.691 1088.38 814.734 1085.95 814.396C1069.93 812.243 1054.06 808.949 1038.07 806.697C1017.52 803.798 997.367 801.729 976.65 801.701C916.849 801.588 858.076 783.63 798.219 784.137C784.708 784.249 784.834 785.333 772.224 780.041C739.079 766.122 707.258 749.078 673.466 736.651C672.551 736.313 671.707 736.003 670.876 735.708V919.797H1245.14V0H670.876Z" fill="white"/>
</mask>
<g mask="url(#mask4_151_211)">
<path d="M1148.13 638.442C1145.44 634.557 1142.71 630.701 1139.94 626.859C1139.29 625.972 1138.07 625.437 1137.05 626.099C1136.17 626.676 1135.6 628.027 1136.29 628.984C1139.06 632.812 1141.78 636.682 1144.48 640.567C1145.12 641.468 1146.37 641.974 1147.37 641.327C1148.27 640.75 1148.8 639.413 1148.13 638.442Z" fill="black"/>
</g>
<mask id="mask5_151_211" style="mask-type:luminance" maskUnits="userSpaceOnUse" x="592" y="488" width="608" height="328">
<path d="M1199.26 716.82C1199.16 719.945 1198.37 716.68 1195.05 712.007C1189.44 704.083 1184.26 695.794 1179.02 687.631C1167.59 669.799 1155.76 652.502 1143.19 635.458C1137.35 627.548 1136.59 621.919 1132.13 613.883C1126.6 603.918 1119.32 595.248 1112.41 586.326C1104.43 576.023 1096.15 557.769 1086.48 550.887C1086.5 550.887 1061.77 542.893 1073.3 547.073C1062.4 543.132 1051.64 538.797 1040.8 534.702C1031.58 531.212 1019.59 524.47 1009.46 524.048C998.873 523.597 986.234 527.426 975.637 528.383C959.072 529.874 941.972 528.777 925.477 531.127C907.195 533.731 892.642 524.526 876.077 517.236C861.792 510.945 847.112 504.991 833.573 495.703C821.652 487.526 807.058 485.429 793.912 492.888C774.546 503.894 753.252 520.163 739.896 538.46C724.471 559.571 707.399 577.501 684.233 590.111C668.822 598.514 655.255 600.568 637.901 600.343C628.683 600.217 614.567 596.811 605.855 599.823C594.145 603.876 593.652 616.486 592.597 626.817C590.852 643.917 593.23 665.985 599.324 682.114C605.165 697.553 619 723.224 635.79 728.671C638.352 729.501 637.606 728.051 639.435 728.347C654.115 730.754 651.089 728.431 673.467 736.651C707.258 749.064 739.08 766.122 772.224 780.041C784.835 785.333 784.708 784.249 798.219 784.137C858.076 783.63 916.835 801.588 976.65 801.701C997.367 801.743 1017.51 803.798 1038.07 806.697C1054.06 808.949 1069.93 812.242 1085.95 814.396C1088.4 814.72 1091.8 815.691 1094.27 815.409C1107 813.931 1123.65 803.376 1134.87 797.732C1149.37 790.442 1161.6 782.42 1171.17 769.232C1174.88 764.109 1179.87 757.649 1181.93 751.583C1183.93 745.714 1182.86 739.128 1185.73 733.357C1188.93 726.897 1198.75 723.984 1199.26 716.82C1199.16 719.931 1198.75 723.984 1199.26 716.82Z" fill="white"/>
</mask>
<g mask="url(#mask5_151_211)">
<path d="M1148.13 638.442C1145.44 634.557 1142.71 630.701 1139.94 626.859C1139.29 625.972 1138.07 625.437 1137.05 626.099C1136.17 626.676 1135.6 628.027 1136.29 628.984C1139.06 632.812 1141.78 636.683 1144.48 640.567C1145.12 641.468 1146.37 641.974 1147.37 641.327C1148.27 640.75 1148.8 639.413 1148.13 638.442Z" fill="black"/>
</g>
<mask id="mask6_151_211" style="mask-type:luminance" maskUnits="userSpaceOnUse" x="592" y="488" width="608" height="328">
<path d="M1199.26 716.82C1199.16 719.945 1198.37 716.68 1195.05 712.007C1189.44 704.083 1184.26 695.794 1179.02 687.631C1167.59 669.799 1155.76 652.502 1143.19 635.458C1137.35 627.548 1136.59 621.919 1132.13 613.883C1126.6 603.918 1119.32 595.248 1112.41 586.326C1104.43 576.023 1096.15 557.769 1086.48 550.887C1086.5 550.887 1061.77 542.893 1073.3 547.073C1062.4 543.132 1051.64 538.797 1040.8 534.702C1031.58 531.212 1019.59 524.47 1009.46 524.048C998.873 523.597 986.234 527.426 975.637 528.383C959.072 529.874 941.972 528.777 925.477 531.127C907.195 533.731 892.642 524.526 876.077 517.236C861.792 510.945 847.112 504.991 833.573 495.703C821.652 487.526 807.058 485.429 793.912 492.888C774.546 503.894 753.252 520.163 739.896 538.46C724.471 559.571 707.399 577.501 684.233 590.111C668.822 598.514 655.255 600.568 637.901 600.343C628.683 600.217 614.567 596.811 605.855 599.823C594.145 603.876 593.652 616.486 592.597 626.817C590.852 643.917 593.23 665.985 599.324 682.114C605.165 697.553 619 723.224 635.79 728.671C638.352 729.501 637.606 728.051 639.435 728.347C654.115 730.754 651.089 728.431 673.467 736.651C707.258 749.064 739.08 766.122 772.224 780.041C784.835 785.333 784.708 784.249 798.219 784.137C858.076 783.63 916.835 801.588 976.65 801.701C997.367 801.743 1017.51 803.798 1038.07 806.697C1054.06 808.949 1069.93 812.242 1085.95 814.396C1088.4 814.72 1091.8 815.691 1094.27 815.409C1107 813.931 1123.65 803.376 1134.87 797.732C1149.37 790.442 1161.6 782.42 1171.17 769.232C1174.88 764.109 1179.87 757.649 1181.93 751.583C1183.93 745.714 1182.86 739.128 1185.73 733.357C1188.93 726.897 1198.75 723.984 1199.26 716.82C1199.16 719.931 1198.75 723.984 1199.26 716.82Z" fill="white"/>
</mask>
<g mask="url(#mask6_151_211)">
<mask id="mask7_151_211" style="mask-type:luminance" maskUnits="userSpaceOnUse" x="782" y="326" width="391" height="594">
<path d="M932.29 326.842L935.963 412.286C935.963 412.286 937.722 441.306 927.167 458.012C916.611 474.718 804.933 643.565 804.933 643.565C804.933 643.565 782.063 674.345 782.063 694.569C782.063 714.794 805.806 767.557 822.512 799.224C839.218 830.877 872.644 874.858 872.644 874.858C872.644 874.858 869.224 882.768 869.125 887.173C868.956 894.069 872.644 900.36 879.681 903.879C886.718 907.397 922.269 919.036 977.678 919.036C977.678 919.036 1036.94 920.444 1074.76 903.738C1081.95 900.557 1085.32 894.942 1085.32 887.032C1085.32 882.641 1081.8 874.717 1081.8 874.717C1081.8 874.717 1115.21 830.75 1131.93 799.083C1148.64 767.431 1172.38 714.653 1172.38 694.428C1172.38 674.204 1149.51 643.424 1149.51 643.424C1149.51 643.424 1037.82 474.577 1027.28 457.872C1016.72 441.166 1018.48 412.145 1018.48 412.145L1022 326.842" fill="white"/>
</mask>
<g mask="url(#mask7_151_211)">
<path d="M1274.89 313.528H538.834V730.627H1274.89V313.528Z" fill="white"/>
<path d="M749.298 508.904C770.635 508.904 787.932 491.607 787.932 470.271C787.932 448.934 770.635 431.637 749.298 431.637C727.962 431.637 710.665 448.934 710.665 470.271C710.665 491.607 727.962 508.904 749.298 508.904Z" fill="#E3E3E3"/>
<path d="M853.433 508.904C874.769 508.904 892.066 491.607 892.066 470.271C892.066 448.934 874.769 431.637 853.433 431.637C832.096 431.637 814.799 448.934 814.799 470.271C814.799 491.607 832.096 508.904 853.433 508.904Z" fill="#E3E3E3"/>
<path d="M957.581 508.904C978.917 508.904 996.214 491.607 996.214 470.271C996.214 448.934 978.917 431.637 957.581 431.637C936.244 431.637 918.947 448.934 918.947 470.271C918.947 491.607 936.244 508.904 957.581 508.904Z" fill="#E3E3E3"/>
<path d="M1061.71 508.904C1083.05 508.904 1100.35 491.607 1100.35 470.271C1100.35 448.934 1083.05 431.637 1061.71 431.637C1040.38 431.637 1023.08 448.934 1023.08 470.271C1023.08 491.607 1040.38 508.904 1061.71 508.904Z" fill="#E3E3E3"/>
<path d="M1165.85 508.904C1187.19 508.904 1204.48 491.607 1204.48 470.271C1204.48 448.934 1187.19 431.637 1165.85 431.637C1144.51 431.637 1127.22 448.934 1127.22 470.271C1127.22 491.607 1144.51 508.904 1165.85 508.904Z" fill="#E3E3E3"/>
<path d="M749.298 716.103C770.635 716.103 787.932 698.806 787.932 677.469C787.932 656.133 770.635 638.836 749.298 638.836C727.962 638.836 710.665 656.133 710.665 677.469C710.665 698.806 727.962 716.103 749.298 716.103Z" fill="#E3E3E3"/>
<path d="M853.433 716.103C874.769 716.103 892.066 698.806 892.066 677.469C892.066 656.133 874.769 638.836 853.433 638.836C832.096 638.836 814.799 656.133 814.799 677.469C814.799 698.806 832.096 716.103 853.433 716.103Z" fill="#E3E3E3"/>
<path d="M957.581 716.103C978.917 716.103 996.214 698.806 996.214 677.469C996.214 656.133 978.917 638.836 957.581 638.836C936.244 638.836 918.947 656.133 918.947 677.469C918.947 698.806 936.244 716.103 957.581 716.103Z" fill="#E3E3E3"/>
<path d="M1061.71 716.103C1083.05 716.103 1100.35 698.806 1100.35 677.469C1100.35 656.133 1083.05 638.836 1061.71 638.836C1040.38 638.836 1023.08 656.133 1023.08 677.469C1023.08 698.806 1040.38 716.103 1061.71 716.103Z" fill="#E3E3E3"/>
<path d="M1165.85 716.103C1187.19 716.103 1204.48 698.806 1204.48 677.469C1204.48 656.133 1187.19 638.836 1165.85 638.836C1144.51 638.836 1127.22 656.133 1127.22 677.469C1127.22 698.806 1144.51 716.103 1165.85 716.103Z" fill="#E3E3E3"/>
<path d="M801.908 612.503C823.244 612.503 840.541 595.206 840.541 573.87C840.541 552.533 823.244 535.237 801.908 535.237C780.571 535.237 763.274 552.533 763.274 573.87C763.274 595.206 780.571 612.503 801.908 612.503Z" fill="#E3E3E3"/>
<path d="M906.873 612.503C928.209 612.503 945.506 595.206 945.506 573.87C945.506 552.533 928.209 535.237 906.873 535.237C885.536 535.237 868.239 552.533 868.239 573.87C868.239 595.206 885.536 612.503 906.873 612.503Z" fill="#E3E3E3"/>
<path d="M1011.82 612.503C1033.16 612.503 1050.46 595.206 1050.46 573.87C1050.46 552.533 1033.16 535.237 1011.82 535.237C990.486 535.237 973.189 552.533 973.189 573.87C973.189 595.206 990.486 612.503 1011.82 612.503Z" fill="#E3E3E3"/>
<path d="M1116.79 612.503C1138.12 612.503 1155.42 595.206 1155.42 573.87C1155.42 552.533 1138.12 535.237 1116.79 535.237C1095.45 535.237 1078.15 552.533 1078.15 573.87C1078.15 595.206 1095.45 612.503 1116.79 612.503Z" fill="#E3E3E3"/>
</g>
<mask id="mask8_151_211" style="mask-type:luminance" maskUnits="userSpaceOnUse" x="782" y="326" width="391" height="594">
<path d="M932.29 326.842L935.963 412.286C935.963 412.286 937.722 441.306 927.167 458.012C916.611 474.718 804.933 643.565 804.933 643.565C804.933 643.565 782.063 674.345 782.063 694.569C782.063 714.794 805.806 767.557 822.512 799.224C839.218 830.877 872.644 874.858 872.644 874.858C872.644 874.858 869.224 882.768 869.125 887.173C868.956 894.069 872.644 900.36 879.681 903.879C886.718 907.397 922.269 919.036 977.678 919.036C977.678 919.036 1036.94 920.444 1074.76 903.738C1081.95 900.557 1085.32 894.942 1085.32 887.032C1085.32 882.641 1081.8 874.717 1081.8 874.717C1081.8 874.717 1115.21 830.75 1131.93 799.083C1148.64 767.431 1172.38 714.653 1172.38 694.428C1172.38 674.204 1149.51 643.424 1149.51 643.424C1149.51 643.424 1037.82 474.577 1027.28 457.872C1016.72 441.166 1018.48 412.145 1018.48 412.145L1022 326.842" fill="white"/>
</mask>
<g mask="url(#mask8_151_211)">
<path d="M1274.89 730.626H538.834V1147.73H1274.89V730.626Z" fill="white"/>
<path d="M801.908 822.417C823.244 822.417 840.541 805.121 840.541 783.784C840.541 762.448 823.244 745.151 801.908 745.151C780.571 745.151 763.274 762.448 763.274 783.784C763.274 805.121 780.571 822.417 801.908 822.417Z" fill="#E3E3E3"/>
<path d="M906.873 822.417C928.209 822.417 945.506 805.121 945.506 783.784C945.506 762.448 928.209 745.151 906.873 745.151C885.536 745.151 868.239 762.448 868.239 783.784C868.239 805.121 885.536 822.417 906.873 822.417Z" fill="#E3E3E3"/>
<path d="M1011.82 822.417C1033.16 822.417 1050.46 805.121 1050.46 783.784C1050.46 762.448 1033.16 745.151 1011.82 745.151C990.486 745.151 973.189 762.448 973.189 783.784C973.189 805.121 990.486 822.417 1011.82 822.417Z" fill="#E3E3E3"/>
<path d="M1116.79 822.417C1138.12 822.417 1155.42 805.121 1155.42 783.784C1155.42 762.448 1138.12 745.151 1116.79 745.151C1095.45 745.151 1078.15 762.448 1078.15 783.784C1078.15 805.121 1095.45 822.417 1116.79 822.417Z" fill="#E3E3E3"/>
</g>
<path d="M980.732 919.754C978.818 919.754 977.734 919.726 977.649 919.726C921.367 919.726 885.816 907.707 879.37 904.484C872.347 900.965 868.252 894.477 868.435 887.131C868.533 883.148 871.165 876.589 871.855 874.928C868.772 870.833 837.711 829.441 821.906 799.534C805.608 768.655 781.373 715.216 781.373 694.555C781.373 674.331 803.441 644.395 804.37 643.129C805.467 641.468 916.146 474.127 926.575 457.618C936.891 441.292 935.287 412.595 935.258 412.3L931.571 326.842L932.978 326.786L936.666 412.229C936.736 413.412 938.312 441.658 927.757 458.364C917.314 474.887 806.635 642.242 805.51 643.931C805.256 644.269 782.766 674.781 782.766 694.555C782.766 714.963 806.903 768.12 823.13 798.872C839.625 830.117 872.854 873.971 873.192 874.408L873.445 874.731L873.276 875.111C873.248 875.182 869.913 882.951 869.814 887.159C869.645 894.055 873.361 899.91 879.975 903.217C886.351 906.398 921.607 918.305 977.635 918.305C978.241 918.319 1037.2 919.515 1074.44 903.063C1081.25 900.051 1084.57 894.787 1084.57 886.99C1084.57 882.796 1081.15 875.041 1081.11 874.971L1080.94 874.591L1081.19 874.253C1081.53 873.817 1114.77 829.962 1131.25 798.717C1147.48 767.966 1171.62 714.808 1171.62 694.4C1171.62 674.64 1149.11 644.114 1148.89 643.818C1147.75 642.101 1037.06 474.746 1026.61 458.223C1016.06 441.518 1017.63 413.271 1017.7 412.075L1021.22 326.786L1022.63 326.842L1019.11 412.145C1019.1 412.441 1017.49 441.152 1027.8 457.478C1038.22 473.986 1148.9 641.327 1150.03 643.016C1150.94 644.255 1173.01 674.19 1173.01 694.414C1173.01 715.089 1148.78 768.529 1132.48 799.393C1116.69 829.3 1085.64 870.678 1082.54 874.788C1083.26 876.448 1085.95 883.021 1085.95 887.004C1085.95 895.308 1082.26 901.134 1074.97 904.357C1042.45 918.783 993.427 919.754 980.732 919.754Z" fill="black"/>
<path d="M922.621 311.895L922.452 312.121C918.933 316.751 919.004 323.169 922.621 327.729L912.502 350.486L909.419 357.622L903.269 351.472C903.269 351.472 899.75 301.34 865.452 301.34C831.153 301.34 832.04 344.435 832.04 344.435C832.04 344.435 832.04 381.365 871.616 435.015C903.17 477.786 908.547 522.078 908.547 530.874C908.547 539.67 892.713 558.135 883.917 560.767C883.917 560.767 883.509 574.236 877.767 583.637C868.098 599.471 843.06 602.426 843.06 602.426L849.816 566.889C856.965 543.442 873.882 524.217 896.246 514.168C896.246 514.168 883.157 520.811 878.653 515.04C870.223 504.26 876.022 482.501 873.376 474.592C870.744 466.682 812.702 381.379 812.702 381.379C812.702 381.379 795.996 345.321 795.996 335.652C795.996 325.984 792.478 317.835 795.996 307.842C799.515 297.849 810.943 296.963 810.943 296.963C810.943 296.963 821.499 288.167 837.332 280.257C848.282 274.782 865.579 269.138 870.744 267.069C879.54 263.551 875.135 257.401 875.135 252.995C875.135 245.958 884.762 243.327 894.487 243.327C909.433 243.327 920.876 259.16 920.876 259.16C917.765 263.101 917.653 268.632 920.622 272.671L920.876 273.009L920.228 273.938C911.84 285.83 912.853 301.087 922.621 311.895Z" fill="white"/>
<path d="M842.188 603.228L849.112 566.749C855.431 546.032 869.252 528.622 887.675 517.785C884.058 518.432 880.244 518.221 878.091 515.463C872.588 508.412 872.968 496.843 873.291 487.554C873.474 482.206 873.629 477.575 872.7 474.803C870.125 467.076 812.688 382.618 812.111 381.759C811.365 380.183 795.279 345.349 795.279 335.638C795.279 332.415 794.871 329.305 794.491 326.307C793.688 320.157 792.943 314.358 795.321 307.589C798.671 298.075 808.973 296.47 810.648 296.273C812.069 295.119 822.343 286.942 836.994 279.609C845.031 275.584 856.459 271.489 864.031 268.772C866.86 267.759 869.097 266.957 870.477 266.408C876.599 263.959 875.811 260.37 874.966 256.57C874.685 255.318 874.431 254.121 874.431 252.995C874.431 245.339 884.79 242.623 894.487 242.623C909.617 242.623 920.96 258.09 921.439 258.738L921.748 259.174L921.411 259.596C918.497 263.269 918.399 268.477 921.185 272.263L921.734 273.009L920.791 274.36C912.643 285.985 913.585 300.904 923.156 311.459L923.55 311.895L923.029 312.585C919.708 316.962 919.764 323.028 923.198 327.321L923.465 327.658L913.177 350.81L909.687 358.903L902.608 351.823L902.594 351.556C902.565 351.063 898.723 302.086 865.48 302.086C856.881 302.086 849.788 304.872 844.411 310.361C832.463 322.564 832.758 344.238 832.758 344.463C832.758 344.843 833.237 381.829 872.194 434.635C907.674 482.726 909.265 530.452 909.265 530.916C909.265 538.924 894.937 557.797 884.621 561.33C884.48 563.891 883.608 575.503 878.386 584.046C868.647 599.977 844.2 603.046 843.159 603.172L842.188 603.228ZM895.008 515.491C873.587 525.638 857.416 544.357 850.491 567.072L843.947 601.568C848.591 600.822 868.858 596.867 877.176 583.243C882.749 574.109 883.228 560.852 883.228 560.725L883.242 560.218L883.72 560.077C891.813 557.643 907.843 539.473 907.843 530.846C907.843 530.395 906.267 483.149 871.04 435.409C831.787 382.195 831.323 344.786 831.323 344.406C831.308 343.506 831.013 321.93 843.37 309.306C849.028 303.535 856.445 300.608 865.438 300.608C898.681 300.608 903.579 347.151 903.931 351.12L909.166 356.355L911.84 350.163L921.791 327.785C918.286 323.084 918.244 316.652 921.692 311.895C912.037 300.861 911.193 285.492 919.609 273.473L919.975 272.952C916.991 268.815 917.005 263.213 919.961 259.089C918.047 256.626 907.534 243.96 894.459 243.96C885.451 243.96 875.811 246.31 875.811 252.925C875.811 253.91 876.05 255.022 876.317 256.204C877.162 260.018 878.203 264.761 870.969 267.646C869.562 268.209 867.324 269.012 864.481 270.039C856.951 272.741 845.565 276.837 837.6 280.82C822.034 288.603 811.464 297.357 811.351 297.441L811.183 297.582L810.957 297.596C810.845 297.61 799.937 298.567 796.616 308.011C794.35 314.471 795.082 320.115 795.856 326.082C796.25 329.122 796.658 332.275 796.658 335.596C796.658 345.012 813.139 380.675 813.308 381.027C815.616 384.419 871.377 466.4 874.009 474.324C875.008 477.336 874.854 482.079 874.671 487.568C874.361 496.632 873.981 507.933 879.174 514.576C882.482 518.798 891.25 515.547 894.585 514.097C895.036 513.886 895.472 513.689 895.922 513.478L896.528 514.745C896.457 514.829 895.88 515.111 895.008 515.491Z" fill="black"/>
</g>
<mask id="mask9_151_211" style="mask-type:luminance" maskUnits="userSpaceOnUse" x="592" y="488" width="608" height="328">
<path d="M1199.26 716.82C1199.16 719.945 1198.37 716.68 1195.05 712.007C1189.44 704.083 1184.26 695.794 1179.02 687.631C1167.59 669.799 1155.76 652.502 1143.19 635.458C1137.35 627.548 1136.59 621.919 1132.13 613.883C1126.6 603.918 1119.32 595.248 1112.41 586.326C1104.43 576.023 1096.15 557.769 1086.48 550.887C1086.5 550.887 1061.77 542.893 1073.3 547.073C1062.4 543.132 1051.64 538.797 1040.8 534.702C1031.58 531.212 1019.59 524.47 1009.46 524.048C998.873 523.597 986.234 527.426 975.637 528.383C959.072 529.874 941.972 528.777 925.477 531.127C907.195 533.731 892.642 524.526 876.077 517.236C861.792 510.945 847.112 504.991 833.573 495.703C821.652 487.526 807.058 485.429 793.912 492.888C774.546 503.894 753.252 520.163 739.896 538.46C724.471 559.571 707.399 577.501 684.233 590.111C668.822 598.514 655.255 600.568 637.901 600.343C628.683 600.217 614.567 596.811 605.855 599.823C594.145 603.876 593.652 616.486 592.597 626.817C590.852 643.917 593.23 665.985 599.324 682.114C605.165 697.553 619 723.224 635.79 728.671C638.352 729.501 637.606 728.051 639.435 728.347C654.115 730.754 651.089 728.431 673.467 736.651C707.258 749.064 739.08 766.122 772.224 780.041C784.835 785.333 784.708 784.249 798.219 784.137C858.076 783.63 916.835 801.588 976.65 801.701C997.367 801.743 1017.51 803.798 1038.07 806.697C1054.06 808.949 1069.93 812.242 1085.95 814.396C1088.4 814.72 1091.8 815.691 1094.27 815.409C1107 813.931 1123.65 803.376 1134.87 797.732C1149.37 790.442 1161.6 782.42 1171.17 769.232C1174.88 764.109 1179.87 757.649 1181.93 751.583C1183.93 745.714 1182.86 739.128 1185.73 733.357C1188.93 726.897 1198.75 723.984 1199.26 716.82C1199.16 719.931 1198.75 723.984 1199.26 716.82Z" fill="white"/>
</mask>
<g mask="url(#mask9_151_211)">
<path d="M819.865 502.599L843.439 617.64C860.412 699.678 886.815 763.8 974.51 763.8C1056.55 763.8 1104.64 701.564 1104.64 627.07C1104.64 544.089 1062.21 501.656 989.598 466.766L897.187 422.447C803.834 378.128 738.77 304.577 738.77 205.566C738.77 64.1213 868.899 -0.00012207 985.826 -0.00012207C1078.24 -0.00012207 1107.47 14.1443 1166.87 14.1443C1188.56 14.1443 1218.74 11.3154 1243.25 4.71469L1156.5 241.398L1082.01 93.3532C1055.61 41.4902 1021.66 18.8591 966.967 18.8591C875.499 18.8591 846.267 81.0946 846.267 127.3C846.267 188.592 889.644 224.425 943.393 250.828L1093.32 324.379C1219.68 386.614 1245.14 477.139 1245.14 530.888C1245.14 691.191 1109.35 782.659 965.081 782.659C852.868 782.659 734.998 732.682 670.876 688.362L819.865 502.599Z" fill="black"/>
</g>
</g>
<defs>
<clipPath id="clip0_151_211">
<rect width="629.111" height="938.74" fill="white" transform="translate(645.444)"/>
</clipPath>
</defs>
</svg>
