<svg width="273" height="396" viewBox="0 0 273 396" fill="none" xmlns="http://www.w3.org/2000/svg">
<path d="M230.076 86.3193L249.259 165.209L220.515 131.528L230.076 86.3193Z" fill="black"/>
<path d="M248.783 165.623L220.039 131.942L219.901 131.403L229.462 86.194L230.69 86.1815L249.874 165.059L248.783 165.623ZM221.192 131.365L248.032 162.816L230.113 89.1637L221.192 131.365Z" fill="black"/>
<path d="M233.522 252.933L206.833 279.622L162.338 324.117L148.994 355.254L132.905 308.216L202.385 257.381L233.522 252.933Z" fill="black"/>
<path d="M149.569 355.505L148.404 355.455L132.315 308.417L132.541 307.702L202.021 256.867L202.296 256.755L233.434 252.306L233.96 253.371L162.864 324.468L149.569 355.505ZM133.644 308.442L149.056 353.513L161.899 323.666L231.755 253.81L202.622 257.97L133.644 308.442Z" fill="black"/>
<mask id="mask0_63_537" style="mask-type:luminance" maskUnits="userSpaceOnUse" x="15" y="12" width="237" height="375">
<path d="M242.418 24.6456L246.866 34.9454C246.866 34.9454 237.97 26.049 228.572 24.5579V12.7043C228.572 12.7043 246.866 17.1525 246.703 24.5579C246.541 31.9632 246.866 39.3936 246.866 39.3936L233.522 61.6347V92.7722V110.565L237.97 137.254L251.315 170.347V190.645L246.866 212.887L237.97 239.576L233.522 252.92L197.936 275.161L184.591 297.403L162.35 306.299L149.006 323.678V339.542V355.242L122.316 373.035L100.075 377.483L86.7306 386.379C86.7306 386.379 11.0985 328.54 15.5467 248.46C19.9949 168.379 117.868 101.644 117.868 57.1614C117.868 39.3686 104.523 24.6205 104.523 24.6205H242.418V24.6456Z" fill="white"/>
</mask>
<g mask="url(#mask0_63_537)">
<path d="M683.869 -209.594H-108.251V239.275H683.869V-209.594Z" fill="white"/>
<path d="M118.231 223.637C141.192 223.637 159.806 205.023 159.806 182.062C159.806 159.101 141.192 140.487 118.231 140.487C95.2696 140.487 76.6558 159.101 76.6558 182.062C76.6558 205.023 95.2696 223.637 118.231 223.637Z" fill="#BDBCBC"/>
<path d="M6.16156 223.637C29.1229 223.637 47.7367 205.023 47.7367 182.062C47.7367 159.101 29.1229 140.487 6.16156 140.487C-16.7998 140.487 -35.4136 159.101 -35.4136 182.062C-35.4136 205.023 -16.7998 223.637 6.16156 223.637Z" fill="#BDBCBC"/>
<path d="M230.301 223.637C253.263 223.637 271.876 205.023 271.876 182.062C271.876 159.101 253.263 140.487 230.301 140.487C207.34 140.487 188.726 159.101 188.726 182.062C188.726 205.023 207.34 223.637 230.301 223.637Z" fill="#BDBCBC"/>
<path d="M174.855 112.156C197.816 112.156 216.43 93.5427 216.43 70.5814C216.43 47.6201 197.816 29.0062 174.855 29.0062C151.894 29.0062 133.28 47.6201 133.28 70.5814C133.28 93.5427 151.894 112.156 174.855 112.156Z" fill="#BDBCBC"/>
<path d="M61.9086 112.156C84.8699 112.156 103.484 93.5427 103.484 70.5814C103.484 47.6201 84.8699 29.0062 61.9086 29.0062C38.9473 29.0062 20.3335 47.6201 20.3335 70.5814C20.3335 93.5427 38.9473 112.156 61.9086 112.156Z" fill="#BDBCBC"/>
<path d="M287.815 112.156C310.776 112.156 329.39 93.5427 329.39 70.5814C329.39 47.6201 310.776 29.0062 287.815 29.0062C264.854 29.0062 246.24 47.6201 246.24 70.5814C246.24 93.5427 264.854 112.156 287.815 112.156Z" fill="#BDBCBC"/>
</g>
<mask id="mask1_63_537" style="mask-type:luminance" maskUnits="userSpaceOnUse" x="15" y="12" width="237" height="375">
<path d="M242.418 24.6456L246.866 34.9454C246.866 34.9454 237.97 26.049 228.572 24.5579V12.7043C228.572 12.7043 246.866 17.1525 246.703 24.5579C246.541 31.9632 246.866 39.3936 246.866 39.3936L233.522 61.6347V92.7722V110.565L237.97 137.254L251.315 170.347V190.645L246.866 212.887L237.97 239.576L233.522 252.92L197.936 275.161L184.591 297.403L162.35 306.299L149.006 323.678V339.542V355.242L122.316 373.035L100.075 377.483L86.7306 386.379C86.7306 386.379 11.0985 328.54 15.5467 248.46C19.9949 168.379 117.868 101.644 117.868 57.1614C117.868 39.3686 104.523 24.6205 104.523 24.6205H242.418V24.6456Z" fill="white"/>
</mask>
<g mask="url(#mask1_63_537)">
<path d="M683.869 239.275H-108.251V688.144H683.869V239.275Z" fill="white"/>
<path d="M118.231 449.544C141.192 449.544 159.806 430.93 159.806 407.969C159.806 385.007 141.192 366.394 118.231 366.394C95.2696 366.394 76.6558 385.007 76.6558 407.969C76.6558 430.93 95.2696 449.544 118.231 449.544Z" fill="#BDBCBC"/>
<path d="M6.16156 449.544C29.1229 449.544 47.7367 430.93 47.7367 407.969C47.7367 385.007 29.1229 366.394 6.16156 366.394C-16.7998 366.394 -35.4136 385.007 -35.4136 407.969C-35.4136 430.93 -16.7998 449.544 6.16156 449.544Z" fill="#BDBCBC"/>
<path d="M230.301 449.544C253.263 449.544 271.876 430.93 271.876 407.969C271.876 385.007 253.263 366.394 230.301 366.394C207.34 366.394 188.726 385.007 188.726 407.969C188.726 430.93 207.34 449.544 230.301 449.544Z" fill="#BDBCBC"/>
<path d="M174.855 338.063C197.816 338.063 216.43 319.449 216.43 296.488C216.43 273.527 197.816 254.913 174.855 254.913C151.894 254.913 133.28 273.527 133.28 296.488C133.28 319.449 151.894 338.063 174.855 338.063Z" fill="#BDBCBC"/>
<path d="M61.9086 338.063C84.8699 338.063 103.484 319.449 103.484 296.488C103.484 273.527 84.8699 254.913 61.9086 254.913C38.9473 254.913 20.3335 273.527 20.3335 296.488C20.3335 319.449 38.9473 338.063 61.9086 338.063Z" fill="#BDBCBC"/>
<path d="M287.815 338.063C310.776 338.063 329.39 319.449 329.39 296.488C329.39 273.527 310.776 254.913 287.815 254.913C264.854 254.913 246.24 273.527 246.24 296.488C246.24 319.449 264.854 338.063 287.815 338.063Z" fill="#BDBCBC"/>
</g>
<path d="M87.0566 386.918L86.3299 386.893C86.1419 386.743 67.1462 372.095 48.9524 347.837C32.1494 325.433 12.6023 289.997 14.9079 248.435C17.4265 203.075 49.2907 162.615 77.3959 126.917C98.7724 99.7766 117.229 76.3452 117.229 57.1615C117.229 39.8197 104.173 25.1845 104.048 25.0466L104.511 23.9941H227.959V12.6668L228.735 12.0529C229.5 12.2408 247.518 16.7141 247.343 24.5329C247.268 28.0915 247.305 31.6876 247.355 34.4318L247.455 34.6573L247.355 34.745C247.418 37.4766 247.493 39.3185 247.493 39.3561L247.405 39.707L234.148 61.7977V110.565L238.572 137.092L251.891 170.121L251.941 170.359V190.658L247.481 213.024L234.111 253.146L233.848 253.484L198.387 275.65L185.118 297.766L184.817 298.029L162.726 306.863L149.62 323.942V355.292L149.344 355.818L122.429 373.711L100.301 378.135L87.0566 386.918ZM105.852 25.2722C108.847 28.9811 118.482 42.0501 118.482 57.1866C118.482 76.7963 99.9001 100.391 78.3858 127.719C50.3934 163.267 18.6544 203.564 16.1609 248.522C11.9382 324.568 81.1675 381.204 86.7434 385.628L99.9377 376.894L122.066 372.471L148.379 354.929V323.703L148.505 323.328L161.849 305.948L162.112 305.748L184.166 296.926L197.41 274.861L197.61 274.648L233.008 252.52L246.278 212.699L250.701 190.533L250.688 170.472L237.344 137.367L232.895 110.678L232.883 61.6348L232.971 61.309L246.215 39.2308C246.19 38.7171 246.14 37.1884 246.09 35.0833C244.473 33.5546 236.93 26.7884 229.024 25.2722H105.852ZM233.472 25.2722C238.384 27.1893 242.681 30.4346 245.137 32.5272L242.005 25.2722H233.472ZM229.199 24.0192H242.418L242.995 24.3951L246.052 31.4621C246.027 29.3195 246.027 26.9262 246.09 24.5454C246.202 19.1575 234.6 14.9348 229.212 13.5064V24.0192H229.199Z" fill="black"/>
<path d="M228.585 12.6919H104.511V24.5455H228.585V12.6919Z" fill="white"/>
<path d="M228.573 25.1719H104.511L103.885 24.5454V12.6918L104.511 12.0653H228.585L229.212 12.6918V24.5454L228.573 25.1719ZM105.138 23.9189H227.959V13.3183H105.138V23.9189Z" fill="black"/>
<path d="M228.835 15.0599C228.835 17.7289 228.835 20.3978 228.848 23.0667C228.848 23.831 229.424 24.7332 230.226 24.8836C235 25.7607 240.225 27.3646 243.32 31.3868C243.897 32.126 244.736 32.5646 245.664 32.1511C246.503 31.7752 247.017 30.848 246.754 29.9333C246.19 27.9535 245.877 25.9487 245.851 23.8937C245.839 22.578 245.576 21.6633 244.448 20.8865C243.533 20.2474 242.569 19.671 241.629 19.0696C241.316 20.2349 241.002 21.4002 240.676 22.578C240.915 22.5404 241.153 22.5154 241.391 22.4778C242.23 22.365 242.969 21.9766 243.208 21.0995C243.433 20.2725 243.045 19.433 242.343 18.9819C239.536 17.1901 236.654 15.5235 233.685 14.0074C232.469 13.3934 230.803 14.1327 230.853 15.6363C230.941 18.205 231.605 20.6484 232.782 22.9289C233.797 24.8836 236.667 23.4927 236.216 21.4754C236.203 21.4253 236.191 21.3626 236.178 21.3125C236.178 21.6508 236.178 21.9766 236.178 22.3149C235.99 23.3424 234.612 22.9665 235.401 23.1168C235.664 23.167 235.94 23.2296 236.203 23.2923C236.692 23.405 237.168 23.5554 237.644 23.7058C238.571 24.019 239.449 24.4074 240.313 24.8711C240.94 23.7935 241.579 22.7033 242.205 21.6257C241.416 21.1997 240.614 20.7737 239.824 20.3351C239.01 19.8966 237.97 20.0595 237.406 20.8238C236.892 21.513 236.817 22.6908 237.556 23.2923C238.997 24.4826 240.438 25.6855 241.892 26.8759C242.669 27.5275 243.784 27.6402 244.548 26.8759C245.212 26.2118 245.338 24.8711 244.548 24.2195C243.107 23.0291 241.666 21.8262 240.213 20.6359C239.449 21.6258 238.697 22.6031 237.932 23.593C238.722 24.019 239.524 24.445 240.313 24.8836C242.443 26.0364 244.348 22.791 242.205 21.6383C240.551 20.7486 238.772 20.0344 236.93 19.6084C235.978 19.3828 234.975 19.1573 234.036 19.5457C232.845 20.0469 232.319 21.2498 232.595 22.4778C233.735 21.9891 234.888 21.513 236.028 21.0243C235.151 19.3453 234.675 17.5158 234.612 15.6363C233.672 16.1751 232.732 16.7139 231.78 17.2652C234.75 18.7814 237.632 20.4354 240.438 22.2397C240.752 21.0744 241.065 19.9091 241.391 18.7313C241.153 18.7689 240.915 18.7939 240.676 18.8315C239.837 18.9443 239.098 19.3327 238.86 20.2098C238.634 21.0368 239.022 21.8763 239.724 22.3274C240.489 22.8286 241.265 23.3173 242.03 23.8185C242.293 23.9814 242.769 24.4826 242.305 23.806C241.904 23.2171 242.067 23.6682 242.08 24.0566C242.092 24.4952 242.105 24.9337 242.143 25.3848C242.28 27.2643 242.606 29.1313 243.12 30.9482C244.26 30.4595 245.413 29.9834 246.553 29.4947C242.794 24.6205 237.118 22.3525 231.216 21.2624C231.68 21.8638 232.131 22.4653 232.595 23.0793C232.595 20.4103 232.595 17.7414 232.582 15.0725C232.595 12.6416 228.835 12.6291 228.835 15.0599Z" fill="black"/>
</svg>
