<svg width="1920" height="354" viewBox="0 0 1920 354" fill="none" xmlns="http://www.w3.org/2000/svg">
<g clip-path="url(#clip0_155_216)">
<path d="M1101.98 330.741L1161.1 347.629L1191.28 351.612L1232.87 353.259L1130.13 327.926L1101.98 330.741Z" fill="black"/>
<path d="M1165.32 76L1168.13 139.333L1176.58 150.593L1165.66 219.007L1206.84 120.333L1165.32 76Z" fill="black"/>
<path d="M1288.58 0.703857H1149.3C1149.3 0.703857 1136.04 7.99422 1136.47 19.0001C1137.2 37.6624 1150.86 39.2668 1150.86 39.2668C1150.86 39.2668 1173.06 79.5186 1172.43 131.621C1172.43 132.254 1185.73 141.445 1185.73 141.445C1185.73 141.445 1173.06 154.111 1172.89 154.942C1150.5 268.435 1101.28 331.219 1101.28 331.219L1233.49 353.259C1233.49 353.259 1329.28 280.778 1349.18 188.002C1359.82 138.348 1354.57 111.706 1343.55 80.9964C1332.53 50.2868 1288.58 0.703857 1288.58 0.703857Z" fill="white" stroke="black" stroke-width="1.40741" stroke-miterlimit="10"/>
<path d="M1382.23 22.7439C1382.23 22.7439 1338.16 50.2868 1321.64 55.7898C1305.12 61.2928 1288.59 55.7898 1288.59 55.7898C1288.59 55.7898 1274.41 69.6668 1277.22 93.5927C1279.87 116.125 1294.1 127.399 1294.1 127.399C1294.1 127.399 1311.84 112.916 1327.69 113.465C1363.07 114.69 1382.23 116.379 1382.23 116.379" fill="white"/>
<path d="M1382.23 22.7439C1382.23 22.7439 1338.16 50.2868 1321.64 55.7898C1305.12 61.2928 1288.59 55.7898 1288.59 55.7898C1288.59 55.7898 1274.41 69.6668 1277.22 93.5927C1279.87 116.125 1294.1 127.399 1294.1 127.399C1294.1 127.399 1311.84 112.916 1327.69 113.465C1363.07 114.69 1382.23 116.379 1382.23 116.379" stroke="black" stroke-width="1.40741" stroke-miterlimit="10"/>
<path d="M1384.99 116.393C1398.67 116.393 1409.77 95.4287 1409.77 69.5683C1409.77 43.7079 1398.67 22.7439 1384.99 22.7439C1371.3 22.7439 1360.2 43.7079 1360.2 69.5683C1360.2 95.4287 1371.3 116.393 1384.99 116.393Z" fill="white" stroke="black" stroke-width="1.40741" stroke-miterlimit="10"/>
<path d="M1169.03 40.4912C1169.03 40.4912 1200.91 42.7853 1239.05 40.4912C1268.76 38.7038 1294.08 32.863 1294.08 32.863" stroke="black" stroke-width="1.40741" stroke-miterlimit="10"/>
<path d="M1185.73 141.444L1215.28 137.222L1230.76 123.148" fill="white"/>
<path d="M1185.73 141.444L1215.28 137.222L1230.76 123.148" stroke="black" stroke-width="1.40741" stroke-miterlimit="10"/>
<path d="M1383.89 41.8282C1377.71 54.34 1377.58 68.5267 1379.68 82.08L1383.54 80.4474C1382.85 79.5467 1382.55 78.7585 1382.61 77.6044H1378.38C1378.68 84.4163 1380.95 90.7778 1383.35 97.083C1384.32 99.6163 1387.94 98.6592 1387.42 95.957C1384.62 81.2918 1384.23 66.2607 1386.11 51.4548H1381.89C1381.82 60.1245 1381.76 68.7941 1381.69 77.4637C1381.68 80.18 1385.9 80.18 1385.91 77.4637C1385.98 68.7941 1386.04 60.1245 1386.11 51.4548C1386.14 48.6541 1382.23 48.8371 1381.89 51.4548C1379.95 66.6548 1380.47 82.0378 1383.34 97.083L1387.41 95.957C1385.14 90.0318 1382.87 83.9941 1382.59 77.6044C1382.48 74.8881 1378.51 74.8881 1378.37 77.6044C1378.27 79.4059 1378.76 81.137 1379.88 82.5726C1381.35 84.4867 1384.11 83.3889 1383.73 80.94C1381.82 68.597 1381.89 55.3252 1387.52 43.9393C1388.72 41.5045 1385.08 39.3652 1383.87 41.8141L1383.89 41.8282Z" fill="#878787"/>
<path d="M1385.62 44.4319C1388.33 44.4319 1388.33 40.2097 1385.62 40.2097C1382.9 40.2097 1382.9 44.4319 1385.62 44.4319Z" fill="#878787"/>
<path d="M1393.96 34.0875C1383.59 34.0875 1378 50.1038 1378 69.6949C1378 89.286 1383.59 105.049 1393.96 105.049" stroke="black" stroke-width="1.40741" stroke-miterlimit="10"/>
<path d="M1384.99 40.0691C1393.61 40.0691 1398.26 53.3832 1398.26 69.6669C1398.26 85.9506 1393.61 99.0535 1384.99 99.0535" fill="#878787"/>
<path d="M1384.99 40.0691C1393.61 40.0691 1398.26 53.3832 1398.26 69.6669C1398.26 85.9506 1393.61 99.0535 1384.99 99.0535" stroke="black" stroke-width="1.40741" stroke-miterlimit="10"/>
<path d="M1215.28 137.222L1276.84 193.152L1288.47 194.926" fill="white"/>
<path d="M1215.28 137.222L1276.84 193.152L1288.47 194.926" stroke="black" stroke-width="1.40741" stroke-miterlimit="10"/>
</g>
<defs>
<clipPath id="clip0_155_216">
<rect width="310.474" height="354.005" fill="white" transform="translate(1100)"/>
</clipPath>
</defs>
</svg>
