<svg width="1920" height="444" viewBox="0 0 1920 444" fill="none" xmlns="http://www.w3.org/2000/svg">
<path d="M739.033 96.0978L760.58 184.708L728.294 146.877L739.033 96.0978Z" fill="black"/>
<path d="M760.046 185.173L727.76 147.341L727.605 146.736L738.344 95.9571L739.723 95.943L761.271 184.539L760.046 185.173ZM729.055 146.694L759.202 182.02L739.076 99.2926L729.055 146.694Z" fill="black"/>
<path d="M742.904 283.24L712.926 313.218L662.949 363.195L647.96 398.169L629.889 345.335L707.93 288.237L742.904 283.24Z" fill="black"/>
<path d="M648.608 398.451L647.299 398.394L629.228 345.56L629.481 344.758L707.522 287.66L707.831 287.533L742.805 282.537L743.396 283.733L663.54 363.589L648.608 398.451ZM630.719 345.589L648.03 396.213L662.456 362.689L740.919 284.226L708.197 288.898L630.719 345.589Z" fill="black"/>
<mask id="mask0_155_214" style="mask-type:luminance" maskUnits="userSpaceOnUse" x="497" y="13" width="266" height="421">
<path d="M752.896 26.8251L757.892 38.3939C757.892 38.3939 747.9 28.4013 737.344 26.7265V13.4125C737.344 13.4125 757.892 18.4088 757.709 26.7265C757.526 35.0443 757.892 43.3902 757.892 43.3902L742.903 68.3717V103.346V123.331L747.9 153.309L762.889 190.478V213.278L757.892 238.26L747.9 268.238L742.903 283.226L702.933 308.208L687.944 333.189L662.963 343.182L647.974 362.703V380.52V398.155L617.996 418.14L593.015 423.137L578.026 433.129C578.026 433.129 493.075 368.163 498.071 278.216C503.067 188.269 613 113.31 613 63.3473C613 43.3621 598.011 26.7969 598.011 26.7969H752.896V26.8251Z" fill="white"/>
</mask>
<g mask="url(#mask0_155_214)">
<path d="M1248.74 -236.276H359.02V267.9H1248.74V-236.276Z" fill="white"/>
<path d="M613.408 250.335C639.198 250.335 660.105 229.428 660.105 203.637C660.105 177.847 639.198 156.94 613.408 156.94C587.617 156.94 566.71 177.847 566.71 203.637C566.71 229.428 587.617 250.335 613.408 250.335Z" fill="#BDBCBC"/>
<path d="M487.53 250.335C513.32 250.335 534.228 229.428 534.228 203.638C534.228 177.847 513.32 156.94 487.53 156.94C461.739 156.94 440.832 177.847 440.832 203.638C440.832 229.428 461.739 250.335 487.53 250.335Z" fill="#BDBCBC"/>
<path d="M739.286 250.335C765.077 250.335 785.984 229.428 785.984 203.637C785.984 177.847 765.077 156.94 739.286 156.94C713.496 156.94 692.588 177.847 692.588 203.637C692.588 229.428 713.496 250.335 739.286 250.335Z" fill="#BDBCBC"/>
<path d="M677.008 125.118C702.799 125.118 723.706 104.211 723.706 78.4207C723.706 52.6302 702.799 31.7229 677.008 31.7229C651.218 31.7229 630.311 52.6302 630.311 78.4207C630.311 104.211 651.218 125.118 677.008 125.118Z" fill="#BDBCBC"/>
<path d="M550.146 125.118C575.936 125.118 596.843 104.211 596.843 78.4207C596.843 52.6302 575.936 31.7229 550.146 31.7229C524.355 31.7229 503.448 52.6302 503.448 78.4207C503.448 104.211 524.355 125.118 550.146 125.118Z" fill="#BDBCBC"/>
<path d="M803.887 125.118C829.677 125.118 850.584 104.211 850.584 78.4207C850.584 52.6302 829.677 31.7229 803.887 31.7229C778.096 31.7229 757.189 52.6302 757.189 78.4207C757.189 104.211 778.096 125.118 803.887 125.118Z" fill="#BDBCBC"/>
</g>
<mask id="mask1_155_214" style="mask-type:luminance" maskUnits="userSpaceOnUse" x="497" y="13" width="266" height="421">
<path d="M752.896 26.8251L757.892 38.3939C757.892 38.3939 747.9 28.4013 737.344 26.7265V13.4125C737.344 13.4125 757.892 18.4088 757.709 26.7265C757.526 35.0443 757.892 43.3902 757.892 43.3902L742.903 68.3717V103.346V123.331L747.9 153.309L762.889 190.478V213.278L757.892 238.26L747.9 268.238L742.903 283.226L702.933 308.208L687.944 333.189L662.963 343.182L647.974 362.703V380.52V398.155L617.996 418.14L593.015 423.137L578.026 433.129C578.026 433.129 493.075 368.163 498.071 278.216C503.067 188.269 613 113.31 613 63.3473C613 43.3621 598.011 26.7969 598.011 26.7969H752.896V26.8251Z" fill="white"/>
</mask>
<g mask="url(#mask1_155_214)">
<path d="M1248.74 267.9H359.02V772.075H1248.74V267.9Z" fill="white"/>
<path d="M613.408 504.077C639.198 504.077 660.105 483.169 660.105 457.379C660.105 431.588 639.198 410.681 613.408 410.681C587.617 410.681 566.71 431.588 566.71 457.379C566.71 483.169 587.617 504.077 613.408 504.077Z" fill="#BDBCBC"/>
<path d="M487.53 504.077C513.32 504.077 534.228 483.169 534.228 457.379C534.228 431.588 513.32 410.681 487.53 410.681C461.739 410.681 440.832 431.588 440.832 457.379C440.832 483.169 461.739 504.077 487.53 504.077Z" fill="#BDBCBC"/>
<path d="M739.286 504.077C765.077 504.077 785.984 483.169 785.984 457.379C785.984 431.588 765.077 410.681 739.286 410.681C713.496 410.681 692.588 431.588 692.588 457.379C692.588 483.169 713.496 504.077 739.286 504.077Z" fill="#BDBCBC"/>
<path d="M677.008 378.86C702.799 378.86 723.706 357.952 723.706 332.162C723.706 306.371 702.799 285.464 677.008 285.464C651.218 285.464 630.311 306.371 630.311 332.162C630.311 357.952 651.218 378.86 677.008 378.86Z" fill="#BDBCBC"/>
<path d="M550.146 378.86C575.936 378.86 596.843 357.952 596.843 332.162C596.843 306.371 575.936 285.464 550.146 285.464C524.355 285.464 503.448 306.371 503.448 332.162C503.448 357.952 524.355 378.86 550.146 378.86Z" fill="#BDBCBC"/>
<path d="M803.887 378.86C829.677 378.86 850.584 357.952 850.584 332.162C850.584 306.371 829.677 285.464 803.887 285.464C778.096 285.464 757.189 306.371 757.189 332.162C757.189 357.952 778.096 378.86 803.887 378.86Z" fill="#BDBCBC"/>
</g>
<path d="M578.392 433.735L577.576 433.706C577.365 433.538 556.028 417.085 535.593 389.838C516.72 364.673 494.764 324.872 497.354 278.188C500.183 227.24 535.973 181.795 567.541 141.698C591.551 111.213 612.283 84.8947 612.283 63.3473C612.283 43.8688 597.617 27.4303 597.477 27.2755L597.997 26.0932H736.655V13.3703L737.528 12.6807C738.386 12.8918 758.625 17.9162 758.428 26.6984C758.343 30.6955 758.385 34.7347 758.442 37.817L758.554 38.0703L758.442 38.1688C758.512 41.2369 758.597 43.3058 758.597 43.348L758.498 43.7421L743.608 68.5547V123.331L748.576 153.126L763.537 190.225L763.593 190.492V213.292L758.582 238.415L743.565 283.48L743.27 283.86L703.44 308.757L688.536 333.598L688.198 333.893L663.385 343.815L648.664 362.998V398.212L648.354 398.803L618.123 418.9L593.268 423.869L578.392 433.735ZM599.503 27.5288C602.867 31.6947 613.69 46.374 613.69 63.3755C613.69 85.4014 592.818 111.903 568.653 142.598C537.211 182.527 501.562 227.789 498.761 278.286C494.018 363.702 571.777 427.317 578.04 432.285L592.86 422.475L617.715 417.507L647.271 397.803V362.731L647.411 362.309L662.4 342.788L662.696 342.563L687.466 332.655L702.342 307.87L702.568 307.631L742.327 282.776L757.231 238.049L762.199 213.152L762.185 190.619L747.196 153.435L742.2 123.458L742.186 68.3718L742.285 68.0058L757.161 43.2073C757.133 42.6303 757.077 40.9133 757.02 38.5488C755.205 36.8318 746.732 29.2318 737.851 27.5288H599.503ZM742.848 27.5288C748.365 29.6821 753.192 33.3273 755.951 35.6777L752.432 27.5288H742.848ZM738.048 26.1214H752.896L753.544 26.5436L756.978 34.4814C756.95 32.0747 756.95 29.3866 757.02 26.7125C757.147 20.6607 744.114 15.9177 738.062 14.3133V26.1214H738.048Z" fill="black"/>
<path d="M737.358 13.3984H597.997V26.7125H737.358V13.3984Z" fill="white"/>
<path d="M737.345 27.4162H597.998L597.294 26.7125V13.3984L597.998 12.6947H737.359L738.063 13.3984V26.7125L737.345 27.4162ZM598.701 26.0088H736.655V14.1021H598.701V26.0088Z" fill="black"/>
<path d="M737.5 26.5V14C739.333 14.1667 744.5 15.3 750.5 18.5C756.5 21.7 757.667 24.5 757.5 25.5C757.5 26.6667 757.4 30.6 757 37C750.6 30.6 741.333 27.3333 737.5 26.5Z" fill="black" stroke="black"/>
</svg>
