<svg width="1920" height="982" viewBox="0 0 1920 982" fill="none" xmlns="http://www.w3.org/2000/svg">
<g clip-path="url(#clip0_151_212)">
<path d="M1119.74 11.4983H800.26V22.7575H1119.74V11.4983Z" fill="black"/>
<path d="M1120.45 23.4613H799.557V10.7947H1120.45V23.4613ZM800.964 22.0539H1119.04V12.2021H800.964V22.0539Z" fill="black"/>
<path d="M1129.59 0.942627H1119.74V33.313H1129.59V0.942627Z" fill="white"/>
<path d="M1130.3 34.0168H1119.04V0.239014H1130.3V34.0168ZM1120.44 32.6094H1128.89V1.64642H1120.44V32.6094Z" fill="black"/>
<path d="M1135.22 9.38745H1129.59V24.8689H1135.22V9.38745Z" fill="white"/>
<path d="M1135.93 25.5725H1128.89V8.68359H1135.93V25.5725ZM1130.3 24.1651H1134.52V10.091H1130.3V24.1651Z" fill="black"/>
<path d="M790.408 33.0737H800.26V0.703381H790.408V33.0737Z" fill="white"/>
<path d="M800.963 33.7773H789.704V-0.000488281H800.963V33.7773ZM791.112 32.3699H799.556V1.40692H791.112V32.3699Z" fill="black"/>
<path d="M784.778 24.6296H790.408V9.14816H784.778V24.6296Z" fill="white"/>
<path d="M791.111 25.333H784.074V8.44409H791.111V25.333ZM785.482 23.9256H789.704V9.8515H785.482V23.9256Z" fill="black"/>
<path d="M818.556 45.7405V666.407V949.295L894.556 666.407H916.371L961.408 949.295L1006.44 666.407H1028.26L1104.26 949.295V666.407V45.7405H818.556Z" fill="white"/>
<path d="M1103.58 949.478L1027.72 667.11H1007.05L962.111 949.408H960.718L915.779 667.11H895.105L819.245 949.478L817.866 949.295V45.7403L818.57 45.0366H1104.27L1104.98 45.7403V949.295L1103.6 949.478H1103.58ZM894.556 665.703H916.371L917.06 666.294L961.408 944.82L1005.75 666.294L1006.44 665.703H1028.26L1028.93 666.224L1103.56 943.961V46.444H819.26V943.961L893.88 666.224L894.556 665.703Z" fill="black"/>
<path d="M1077.52 10.5557V35.889H1039.52V10.5557H1012.78V35.889H974.778V10.5557H948.038V35.889H910.038V10.5557H883.297V35.889H845.297V10.5557H818.556V45.7408H827.001H845.297H883.297H910.038H948.038H974.778H1012.78H1039.52H1077.52H1093H1104.26V10.5557H1077.52Z" fill="white"/>
<path d="M1104.96 46.4441H817.853V9.85156H846.001V35.1849H882.593V9.85156H910.741V35.1849H947.334V9.85156H975.482V35.1849H1012.07V9.85156H1040.22V35.1849H1076.82V9.85156H1104.96V46.4441ZM819.26 45.0367H1103.56V11.259H1078.22V36.5923H1038.82V11.259H1013.48V36.5923H974.075V11.259H948.741V36.5923H909.334V11.259H884.001V36.5923H844.593V11.259H819.26V45.0367Z" fill="black"/>
<path d="M1090.89 653.037H831.927V59.1111H1090.89V653.037ZM833.334 651.629H1089.48V60.5185H833.334V651.629Z" fill="black"/>
<path d="M927.109 329.882H983.757C994.116 329.882 998.324 324.055 1004.47 312.078L1032.31 256.077L1056.59 336.356H860.75L984.728 83.8669H935.849C925.491 83.8669 920.959 89.6935 915.132 101.671L887.294 157.671L863.016 77.3928H1048.5L927.109 329.882Z" fill="black"/>
<path d="M960.296 358.818C1034.42 358.818 1074.56 412.553 1074.56 493.155C1074.56 573.757 1034.42 627.492 960.296 627.492C886.168 627.492 845.058 574.405 845.058 493.155C845.058 411.905 885.197 358.818 960.296 358.818ZM960.296 621.018C1004 621.018 1013.71 593.503 1013.71 567.607C1013.71 541.711 1004.97 531.676 1004.97 493.155C1004.97 454.634 1013.71 443.628 1013.71 418.703C1013.71 393.778 1003.67 364.968 960.296 365.292C915.949 365.616 905.914 393.131 906.238 418.703C905.914 443.952 914.654 454.958 914.654 493.155C914.654 531.352 905.914 542.358 906.238 567.607C905.914 593.179 915.949 621.342 960.296 621.018Z" fill="black"/>
</g>
<defs>
<clipPath id="clip0_151_212">
<rect width="351.852" height="949.479" fill="white" transform="translate(784.074)"/>
</clipPath>
</defs>
</svg>
