<svg width="1920" height="330" viewBox="0 0 1920 330" fill="none" xmlns="http://www.w3.org/2000/svg">
<g clip-path="url(#clip0_155_219)">
<path d="M1289.05 0.717529L1166.96 28.8657V180.669C1166.96 227.113 1189 270.982 1226.72 298.089C1242.81 309.657 1263.21 320.311 1289.05 328.559C1316.16 319.917 1337.29 308.616 1353.72 296.386C1390.18 269.279 1411.15 226.1 1411.15 180.669V28.8657L1289.05 0.717529Z" fill="white"/>
<path d="M1289.06 329.305L1288.84 329.235C1264.97 321.621 1243.93 311.332 1226.3 298.666C1188.71 271.63 1166.26 227.521 1166.26 180.669V28.317L1166.81 28.1904L1289.06 0L1289.21 0.0422222L1411.85 28.317V180.683C1411.85 226.621 1390.28 270.095 1354.15 296.963C1336.03 310.432 1314.21 321.297 1289.28 329.235L1289.07 329.305H1289.06ZM1167.67 29.4289V180.669C1167.67 227.071 1189.89 270.743 1227.13 297.512C1244.58 310.066 1265.42 320.255 1289.06 327.813C1313.76 319.918 1335.37 309.151 1353.3 295.809C1389.08 269.195 1410.44 226.156 1410.44 180.655V29.4289L1289.06 1.44963L1167.67 29.4289Z" fill="black"/>
<path d="M631.796 0.717529L509.704 28.8657V180.669C509.704 227.113 531.744 270.982 569.462 298.089C585.549 309.657 605.956 320.311 631.796 328.559C658.903 319.917 680.028 308.616 696.466 296.386C732.918 269.279 753.889 226.1 753.889 180.669V28.8657L631.796 0.717529Z" fill="white"/>
<path d="M631.797 329.305L631.586 329.235C607.716 321.621 586.675 311.332 569.04 298.666C531.449 271.63 509 227.521 509 180.669V28.317L509.549 28.1904L631.797 0L631.952 0.0422222L754.593 28.317V180.683C754.593 226.621 733.017 270.095 696.889 296.963C678.776 310.432 656.947 321.297 632.022 329.235L631.811 329.305H631.797ZM510.408 29.4289V180.669C510.408 227.071 532.631 270.743 569.871 297.512C587.323 310.066 608.166 320.255 631.797 327.813C656.497 319.918 678.114 309.151 696.045 295.809C731.821 269.195 753.186 226.156 753.186 180.655V29.4289L631.797 1.44963L510.408 29.4289Z" fill="black"/>
<path d="M705.586 59.7442L654.413 126.877C640.48 145.117 632.373 158.037 632.373 175.771C632.373 205.411 649.853 211.237 649.853 233.277C649.853 251.011 634.4 261.144 620.973 261.144C603.24 261.144 587.28 245.944 587.026 217.824C586.773 186.157 615.906 158.037 641.493 129.917L676.453 91.4108H597.413C589.56 91.4108 586.52 93.6908 579.426 101.797L574.106 107.877L560.426 54.6775H705.586V59.7442Z" fill="black"/>
<path d="M1300.12 48.063C1330.77 48.063 1361.42 64.023 1361.42 88.8496C1361.42 102.276 1350.53 112.41 1337.86 112.41C1326.21 112.41 1314.05 104.303 1314.05 88.8496C1314.05 74.663 1325.96 64.2763 1339.89 65.2896C1329.5 56.423 1315.06 53.1296 1300.12 53.1296C1265.41 53.1296 1255.02 74.9163 1255.02 94.9296C1255.02 110.13 1256.04 118.996 1259.84 135.716C1269.72 128.116 1281.12 125.33 1294.54 125.33C1339.13 125.33 1362.44 149.143 1362.44 189.423C1362.44 235.276 1329.5 258.33 1292.01 258.33C1240.84 258.33 1212.46 210.956 1212.46 153.196C1212.46 90.1163 1246.41 48.063 1300.12 48.063ZM1291.76 252.995C1311.52 252.995 1318.86 239.569 1318.86 227.662C1318.86 215.755 1314.3 210.435 1314.3 191.942C1314.3 173.449 1318.86 168.129 1318.86 155.716C1318.86 143.302 1313.54 130.382 1294.54 130.382C1267.18 130.382 1261.86 143.556 1261.86 155.716C1261.86 165.596 1266.17 173.449 1266.17 191.942C1266.17 210.435 1261.86 215.502 1261.86 227.662C1261.86 242.355 1274.02 252.995 1291.76 252.995Z" fill="black"/>
</g>
<defs>
<clipPath id="clip0_155_219">
<rect width="902.851" height="329.305" fill="white" transform="translate(509)"/>
</clipPath>
</defs>
</svg>
