<svg width="1920" height="216" viewBox="0 0 1920 216" fill="none" xmlns="http://www.w3.org/2000/svg">
<g clip-path="url(#clip0_155_218)">
<path d="M1097.73 208.024L1353.01 103.825V33.9202L1097.73 138.119V208.024Z" fill="#878787"/>
<path d="M1097.07 209V137.67L1097.48 137.498L1353.67 32.9307V104.26L1353.26 104.432L1097.07 209ZM1098.39 138.554V207.034L1352.35 103.377V34.8959L1098.39 138.554Z" fill="black"/>
<path d="M824.619 208.024L569.341 103.825V33.9202L824.619 138.119V208.024Z" fill="#878787"/>
<path d="M825.28 209L824.368 208.63L568.681 104.26V32.9307L569.593 33.3L825.28 137.67V209ZM570.002 103.377L823.959 207.034V138.554L570.002 34.8959V103.377Z" fill="black"/>
<path d="M1353.01 34.2368H1026.73V104.142H1353.01V34.2368Z" fill="white"/>
<path d="M1353.67 104.801H1026.07V33.5771H1353.67V104.801ZM1027.39 103.482H1352.35V34.8961H1027.39V103.482Z" fill="black"/>
<path d="M1424.34 138.435H1098.06V208.34H1424.34V138.435Z" fill="white"/>
<path d="M1425 209H1097.4V137.775H1425V209ZM1098.72 207.681H1423.68V139.094H1098.72V207.681Z" fill="black"/>
<path d="M825.94 138.435H499.66V208.34H825.94V138.435Z" fill="white"/>
<path d="M826.601 209H499V137.775H826.601V209ZM500.321 207.681H825.28V139.094H500.321V207.681Z" fill="black"/>
<path d="M893.969 33.5771H567.689V103.482H893.969V33.5771Z" fill="white"/>
<path d="M894.63 104.142H567.029V32.9177H894.63V104.142ZM568.35 102.823H893.309V34.2367H568.35V102.823Z" fill="black"/>
<path d="M893.97 102.823L797.208 77.7627V7.85742L893.97 32.9178V102.823Z" fill="#878787"/>
<path d="M894.63 103.667L796.548 78.2639V7L894.63 32.4033V103.667ZM797.869 77.2482L893.309 101.966V33.4189L797.869 8.70147V77.2482Z" fill="black"/>
<path d="M1027.06 104.142L1123.82 79.0818V9.17651L1027.06 34.2369V104.142Z" fill="#878787"/>
<path d="M1026.4 104.986V33.7224L1026.89 33.5905L1124.48 8.31909V79.5829L1123.99 79.7148L1026.4 104.986ZM1027.72 34.738V103.285L1123.16 78.5673V10.0206L1027.72 34.738Z" fill="black"/>
<path d="M1123.49 7.85742H797.208V77.7627H1123.49V7.85742Z" fill="white"/>
<path d="M1124.15 78.4218H796.548V7.19751H1124.15V78.4218ZM797.869 77.1028H1122.83V8.51648H797.869V77.1028Z" fill="black"/>
<path d="M813.614 54.9184V54.193H816.877V26.6266H813.614V25.9011H827.049V26.6266H823.773V54.193H827.049V54.9184H813.614Z" fill="black"/>
<path d="M829.228 54.9184V54.193H832.491V26.6266H829.228V25.9011H845.066C850.799 26.1253 853.309 29.0139 853.309 33.2214C853.309 36.598 851.315 39.4601 847.14 40.2515C852.913 40.5417 853.891 44.1293 853.891 47.3212V52.6894C853.891 53.7445 854.142 54.1798 854.762 54.1798H855.885V54.9052H853.56C847.827 54.9052 847.127 52.3992 847.127 48.0862V45.3691C847.127 42.1112 847.127 40.7659 844.697 40.7659H839.399V54.1798H842.662V54.9052H829.228V54.9184ZM847.286 37.3234C847.286 35.9517 846.414 35.3713 846.414 33.2214C846.414 31.0715 847.286 30.5439 847.286 29.159C847.286 27.7741 846.348 26.6266 843.983 26.6266H839.413V40.0405H843.983C846.348 40.0405 847.286 38.7347 847.286 37.3234Z" fill="black"/>
<path d="M856.797 54.9184V54.193H860.06V26.6266H856.797V25.9011H872.635C878.368 26.1253 880.878 29.0139 880.878 33.2214C880.878 36.598 878.884 39.4601 874.709 40.2515C880.482 40.5417 881.459 44.1293 881.459 47.3212V52.6894C881.459 53.7445 881.71 54.1798 882.331 54.1798H883.454V54.9052H881.129C875.396 54.9052 874.696 52.3992 874.696 48.0862V45.3691C874.696 42.1112 874.696 40.7659 872.265 40.7659H866.968V54.1798H870.231V54.9052H856.797V54.9184ZM874.855 37.3234C874.855 35.9517 873.983 35.3713 873.983 33.2214C873.983 31.0715 874.855 30.5439 874.855 29.159C874.855 27.7741 873.917 26.6266 871.552 26.6266H866.982V40.0405H871.552C873.917 40.0405 874.855 38.7347 874.855 37.3234Z" fill="black"/>
<path d="M903.77 34.1711L901.379 28.6182C900.758 27.2069 900.217 26.6266 899.054 26.6266H894.55V39.9745C896.545 39.9349 898.539 38.6687 900.283 35.3317V45.6329C898.579 42.1112 896.545 40.845 894.55 40.8055V54.193H900.217C901.379 54.193 902 53.5335 902.542 52.2014L905.303 45.5669L908.75 54.9184H884.378V54.193H887.641V26.6266H884.378V25.9011H907.046L903.783 34.1711H903.77Z" fill="black"/>
<path d="M910.56 54.193H913.823V26.6266H910.56V25.9011H925.302C931.035 26.1253 933.545 29.0139 933.545 33.2214C933.545 37.6795 930.824 40.7659 924.576 40.7659H920.732V54.1798H923.994V54.9052H910.56V54.1798V54.193ZM927.535 37.3234C927.535 35.9517 926.663 35.3713 926.663 33.2214C926.663 31.0715 927.535 30.5439 927.535 29.159C927.535 27.7741 926.597 26.6266 924.232 26.6266H920.745V40.0405H924.232C926.597 40.0405 927.535 38.7347 927.535 37.3234Z" fill="black"/>
<path d="M946.86 54.1929H949.251L945.658 44.3665H937.045L936.86 44.8414C936.134 46.6879 936.464 47.2683 937.006 48.7191L939.08 54.1929H941.735V54.9183H929.925V54.1929H932.356L940.744 32.6541C941.906 29.6469 943.65 25.5053 943.65 24.094H944.377L956.107 54.1929H958.643V54.9183H946.834V54.1929H946.86ZM945.367 43.6411L941.484 32.9838L937.349 43.6411H945.381H945.367Z" fill="black"/>
<path d="M958.3 54.9184V54.193H961.563V26.6266H958.3V25.9011H974.138C979.871 26.1253 982.381 29.0139 982.381 33.2214C982.381 36.598 980.386 39.4601 976.212 40.2515C981.985 40.5417 982.962 44.1293 982.962 47.3212V52.6894C982.962 53.7445 983.213 54.1798 983.834 54.1798H984.957V54.9052H982.632C976.899 54.9052 976.199 52.3992 976.199 48.0862V45.3691C976.199 42.1112 976.199 40.7659 973.768 40.7659H968.471V54.1798H971.734V54.9052H958.3V54.9184ZM976.357 37.3234C976.357 35.9517 975.486 35.3713 975.486 33.2214C975.486 31.0715 976.357 30.5439 976.357 29.159C976.357 27.7741 975.42 26.6266 973.055 26.6266H968.484V40.0405H973.055C975.42 40.0405 976.357 38.7347 976.357 37.3234Z" fill="black"/>
<path d="M1001.89 54.1929H1004.28L1000.69 44.3665H992.077L991.892 44.8414C991.165 46.6879 991.495 47.2683 992.037 48.7191L994.111 54.1929H996.766V54.9183H984.957V54.1929H987.387L995.775 32.6541C996.938 29.6469 998.681 25.5053 998.681 24.094H999.408L1011.14 54.1929H1013.67V54.9183H1001.86V54.1929H1001.89ZM1000.4 43.6411L996.515 32.9838L992.38 43.6411H1000.41H1000.4Z" fill="black"/>
<path d="M1014.06 54.9184V54.193H1017.32V26.6266H1014.06V25.9011H1029.17C1035.42 25.9011 1038.14 28.8424 1038.14 33.2214C1038.14 36.6639 1036.69 39.4601 1031.97 40.2911C1037.02 40.7923 1038.87 43.7336 1038.87 47.3607C1038.87 51.8189 1036.15 54.9052 1029.9 54.9052H1014.06V54.9184ZM1024.23 26.6266V40.0405H1028.8C1031.17 40.0405 1032.1 38.7347 1032.1 37.3234C1032.1 35.9121 1031.23 35.3713 1031.23 33.2214C1031.23 31.0715 1032.1 30.5439 1032.1 29.159C1032.1 27.7741 1031.17 26.6266 1028.8 26.6266H1024.23ZM1032.84 51.4759C1032.84 50.1042 1031.97 49.5107 1031.97 47.3739C1031.97 45.2372 1032.84 44.6832 1032.84 43.3115C1032.84 41.9398 1031.91 40.7791 1029.54 40.7791H1024.24V54.193H1029.54C1031.91 54.193 1032.84 52.8872 1032.84 51.4759Z" fill="black"/>
<path d="M1040.32 54.9184V54.193H1043.58V26.6266H1040.32V25.9011H1053.75V26.6266H1050.49V54.193H1053.75V54.9184H1040.32Z" fill="black"/>
<path d="M1069.02 26.6266H1065.76V54.193H1070.7C1071.86 54.193 1072.49 53.5335 1073.03 52.2014L1075.79 45.5669L1079.24 54.9184H1055.59V54.193H1058.85V26.6266H1055.59V25.9011H1069.02V26.6266Z" fill="black"/>
<path d="M1099.71 34.1711L1097.32 28.6182C1096.7 27.2069 1096.16 26.6266 1094.99 26.6266H1090.49V39.9745C1092.48 39.9349 1094.48 38.6687 1096.22 35.3317V45.6329C1094.52 42.1112 1092.48 40.845 1090.49 40.8055V54.193H1096.16C1097.32 54.193 1097.94 53.5335 1098.48 52.2014L1101.24 45.5669L1104.69 54.9184H1080.32V54.193H1083.58V26.6266H1080.32V25.9011H1102.99L1099.72 34.1711H1099.71Z" fill="black"/>
<path d="M707.303 73.1859C713.643 71.3393 716.748 71.4712 720.777 69.3609C716.88 67.3824 713.643 67.5143 707.303 65.7337C702.085 64.151 702.415 60.6557 703.274 59.007C704.265 57.4242 707.171 55.3798 711.068 59.007C715.889 63.6893 717.21 66.591 721.041 68.9652C720.909 64.4807 719.126 61.8428 717.606 55.3798C716.285 50.1699 719.522 48.6531 721.371 48.6531C723.221 48.6531 726.457 50.1699 725.136 55.3798C723.617 61.7768 721.833 64.4147 721.701 68.8333C725.532 66.5251 726.853 63.6893 731.675 59.1389C735.572 55.3798 738.478 57.4242 739.336 59.007C740.327 60.6557 740.657 64.2169 735.439 65.6678C729.099 67.5143 725.995 67.3824 722.032 69.4928C725.862 71.4712 729.099 71.3393 735.439 73.1199C740.657 74.7027 740.327 78.198 739.468 79.7807C738.478 81.4294 735.572 83.4738 731.675 79.7807C726.853 75.1643 725.532 72.2626 721.701 69.8885C721.833 74.373 723.617 77.0109 725.136 83.4738C726.457 88.6838 723.221 90.2006 721.371 90.2006C719.522 90.2006 716.285 88.6838 717.606 83.4738C719.126 77.1428 720.843 74.4389 721.041 70.0863C717.21 72.3945 715.889 75.1643 711.068 79.7148C707.171 83.4738 704.265 81.4294 703.406 79.7807C702.415 78.198 702.085 74.6367 707.303 73.1859Z" fill="black"/>
<path d="M1189.46 73.1859C1195.8 71.3393 1198.9 71.4712 1202.93 69.3609C1199.03 67.3824 1195.8 67.5143 1189.46 65.7337C1184.24 64.151 1184.57 60.6557 1185.43 59.007C1186.42 57.4242 1189.33 55.3798 1193.22 59.007C1198.04 63.6893 1199.36 66.591 1203.2 68.9652C1203.06 64.4807 1201.28 61.8428 1199.76 55.3798C1198.44 50.1699 1201.68 48.6531 1203.53 48.6531C1205.38 48.6531 1208.61 50.1699 1207.29 55.3798C1205.77 61.7768 1203.99 64.4147 1203.86 68.8333C1207.69 66.5251 1209.01 63.6893 1213.83 59.1389C1217.73 55.3798 1220.63 57.4242 1221.49 59.007C1222.48 60.6557 1222.81 64.2169 1217.59 65.6678C1211.25 67.5143 1208.15 67.3824 1204.19 69.4928C1208.02 71.4712 1211.25 71.3393 1217.59 73.1199C1222.81 74.7027 1222.48 78.198 1221.62 79.7807C1220.63 81.4294 1217.73 83.4738 1213.83 79.7807C1209.01 75.1643 1207.69 72.2626 1203.86 69.8885C1203.99 74.373 1205.77 77.0109 1207.29 83.4738C1208.61 88.6838 1205.38 90.2006 1203.53 90.2006C1201.68 90.2006 1198.44 88.6838 1199.76 83.4738C1201.28 77.1428 1203 74.4389 1203.2 70.0863C1199.36 72.3945 1198.04 75.1643 1193.22 79.7148C1189.33 83.4738 1186.42 81.4294 1185.56 79.7807C1184.57 78.198 1184.24 74.6367 1189.46 73.1859Z" fill="black"/>
<path d="M1212.79 168.112L1210.03 161.834C1209.4 160.462 1208.86 159.842 1207.7 159.842H1205.71V187.408H1208.97V188.134H1195.53V187.408H1198.8V159.842H1196.8C1195.64 159.842 1195.1 160.462 1194.48 161.834L1191.72 168.112L1188.63 159.116H1215.86L1212.77 168.112H1212.79Z" fill="black"/>
<path d="M1235.64 167.386L1233.25 161.834C1232.63 160.422 1232.09 159.842 1230.92 159.842H1226.42V173.19C1228.41 173.15 1230.41 171.884 1232.15 168.547V178.848C1230.45 175.327 1228.41 174.06 1226.42 174.021V187.408H1232.09C1233.25 187.408 1233.87 186.749 1234.41 185.417L1237.17 178.782L1240.62 188.134H1216.25V187.408H1219.51V159.842H1216.25V159.116H1238.92L1235.65 167.386H1235.64Z" fill="black"/>
<path d="M1241.7 187.408H1243.95L1244.97 178.782V161.372L1243.51 159.13H1251.36L1257.09 167.439L1262.51 159.13H1271.37V159.855H1268.11V187.422H1271.37V188.147H1257.94V187.422H1261.2V162.546L1255.82 170.882C1254.66 172.702 1254.12 173.533 1253.9 174.285H1252.81C1252.63 173.52 1252.31 172.689 1251.15 170.882L1245.73 162.546V175.749C1245.73 178.756 1246.75 179.996 1247.66 181.513L1251.21 187.422H1255.14V188.147H1241.7V187.422V187.408Z" fill="black"/>
<path d="M1273.21 187.408H1276.47V159.842H1273.21V159.116H1287.95C1293.68 159.341 1296.19 162.229 1296.19 166.437C1296.19 170.895 1293.47 173.981 1287.22 173.981H1283.38V187.395H1286.64V188.121H1273.21V187.395V187.408ZM1290.17 170.539C1290.17 169.167 1289.3 168.587 1289.3 166.437C1289.3 164.287 1290.17 163.759 1290.17 162.374C1290.17 160.989 1289.23 159.842 1286.87 159.842H1283.38V173.256H1286.87C1289.23 173.256 1290.17 171.95 1290.17 170.539Z" fill="black"/>
<path d="M1312.59 188.675C1303.8 188.675 1299.3 185.272 1299.3 176.197V159.842H1296.58V159.116H1310.01V159.842H1307.1V181.605C1307.1 184.467 1307.61 187.949 1312.59 187.949C1317.09 187.949 1320.04 184.863 1320.04 179.429V159.842H1316.4V159.116H1324.21V159.842H1320.95V179.429C1320.95 185.628 1317.65 188.675 1312.6 188.675H1312.59Z" fill="black"/>
<path d="M1328.13 177.912L1329.04 182.331C1329.69 185.483 1330.71 187.949 1334.09 187.949C1337.25 187.949 1339.1 185.562 1339.1 182.687C1339.1 179.495 1337.46 177.859 1334.67 176.527L1331.12 174.826C1327.53 173.124 1325.02 170.288 1325.02 166.49C1325.02 161.056 1330.02 158.589 1334.53 158.589C1338.08 158.589 1339.22 159.13 1341.5 159.13C1342.33 159.13 1343.5 159.024 1344.45 158.774L1341.11 167.875L1338.24 162.177C1337.22 160.185 1335.91 159.315 1333.81 159.315C1330.29 159.315 1329.16 161.702 1329.16 163.482C1329.16 165.843 1330.83 167.215 1332.9 168.231L1338.67 171.053C1343.54 173.441 1344.53 176.936 1344.53 178.994C1344.53 185.153 1339.3 188.675 1333.73 188.675C1329.41 188.675 1324.87 186.749 1322.4 185.048L1328.13 177.899V177.912Z" fill="black"/>
<path d="M593.964 188.134V187.408H597.227V159.842H593.964V159.116H616.632L613.369 167.386L610.978 161.834C610.358 160.422 609.816 159.842 608.654 159.842H604.149V173.19C606.183 173.15 608.508 171.884 610.252 168.547V178.848C608.548 175.327 606.183 174.06 604.149 174.021V187.408H607.412V188.134H593.978H593.964Z" fill="black"/>
<path d="M632.286 188.675C623.502 188.675 618.997 185.272 618.997 176.197V159.842H616.276V159.116H629.71V159.842H626.804V181.605C626.804 184.467 627.306 187.949 632.286 187.949C636.791 187.949 639.736 184.863 639.736 179.429V159.842H636.104V159.116H643.911V159.842H640.648V179.429C640.648 185.628 637.345 188.675 632.299 188.675H632.286Z" fill="black"/>
<path d="M670.58 173.375H667.317V188.675L663.975 187.039C662.126 188.015 659.946 188.675 657.582 188.675C648.797 188.675 643.923 182.726 643.923 173.625C643.923 164.524 648.784 158.576 657.212 158.576C661.571 158.576 663.13 159.631 667.132 158.76L663.79 167.861L661.28 162.678C660.052 160.106 658.599 159.301 656.485 159.301C652.06 159.301 650.752 162.414 650.752 165.289C650.752 168.165 651.73 169.352 651.73 173.625C651.73 177.899 650.752 179.138 650.752 181.961C650.752 184.784 652.245 187.949 657.582 187.949C658.454 187.949 659.431 187.883 660.422 187.619V173.361H657.159V172.636H670.593V173.361L670.58 173.375Z" fill="black"/>
<path d="M672.034 188.134V187.408H675.296V159.842H672.034V159.116H685.468V159.842H682.192V187.408H685.468V188.134H672.034Z" fill="black"/>
<path d="M711.082 168.112L708.321 161.834C707.7 160.462 707.159 159.842 705.996 159.842H704.002V187.408H707.264V188.134H693.83V187.408H697.093V159.842H695.098C693.936 159.842 693.394 160.462 692.773 161.834L690.012 168.112L686.921 159.116H714.16L711.069 168.112H711.082Z" fill="black"/>
</g>
<defs>
<clipPath id="clip0_155_218">
<rect width="926" height="202" fill="white" transform="translate(499 7)"/>
</clipPath>
</defs>
</svg>
