<svg width="1920" height="330" viewBox="0 0 1920 330" fill="none" xmlns="http://www.w3.org/2000/svg">
<g clip-path="url(#clip0_155_217)">
<path d="M708.796 0.718018L586.704 28.8662V180.669C586.704 227.113 608.744 270.982 646.462 298.089C662.549 309.658 682.956 320.312 708.796 328.559C735.903 319.918 757.028 308.616 773.466 296.386C809.918 269.279 830.889 226.1 830.889 180.669V28.8662L708.796 0.718018Z" fill="white"/>
<path d="M708.796 329.305L708.585 329.235C684.716 321.621 663.675 311.332 646.04 298.666C608.448 271.63 586 227.521 586 180.669V28.317L586.549 28.1904L708.796 0L708.951 0.0422222L831.592 28.317V180.683C831.592 226.621 810.017 270.095 773.889 296.963C755.775 310.432 733.947 321.297 709.021 329.235L708.81 329.305H708.796ZM587.407 29.4289V180.669C587.407 227.071 609.63 270.743 646.87 297.512C664.322 310.066 685.166 320.255 708.796 327.813C733.496 319.918 755.114 309.151 773.044 295.809C808.821 269.195 830.185 226.156 830.185 180.655V29.4289L708.796 1.44963L587.407 29.4289Z" fill="black"/>
<path d="M1211.24 0.718018L1089.15 28.8662V180.669C1089.15 227.113 1111.19 270.982 1148.91 298.089C1164.99 309.658 1185.4 320.312 1211.24 328.559C1238.35 319.918 1259.47 308.616 1275.91 296.386C1312.36 269.279 1333.33 226.1 1333.33 180.669V28.8662L1211.24 0.718018Z" fill="white"/>
<path d="M1211.24 329.305L1211.03 329.235C1187.16 321.621 1166.12 311.332 1148.48 298.666C1110.89 271.63 1088.44 227.521 1088.44 180.669V28.317L1088.99 28.1904L1211.24 0L1211.4 0.0422222L1334.04 28.317V180.683C1334.04 226.621 1312.46 270.095 1276.33 296.963C1258.22 310.432 1236.39 321.297 1211.47 329.235L1211.26 329.305H1211.24ZM1089.85 29.4289V180.669C1089.85 227.071 1112.08 270.743 1149.32 297.512C1166.77 310.066 1187.61 320.255 1211.24 327.813C1235.94 319.918 1257.56 309.151 1275.49 295.809C1311.27 269.195 1332.63 226.156 1332.63 180.655V29.4289L1211.24 1.44963L1089.85 29.4289Z" fill="black"/>
<path d="M761.026 249.449V254.515H652.092V249.449H682.492V89.6096H654.626V84.5429H679.959C707.319 84.5429 720.492 74.1563 726.826 39.1963H730.626V249.449H761.026Z" fill="black"/>
<path d="M1133.89 249.449L1219.52 126.836C1228.64 113.916 1239.02 98.7157 1239.02 82.2491C1239.02 69.8357 1233.7 53.1157 1207.36 53.1157C1191.14 53.1157 1180.5 57.6757 1172.65 64.0091C1186.84 64.0091 1198.24 75.9157 1198.24 90.3557C1198.24 104.796 1186.84 115.942 1172.65 115.942C1158.46 115.942 1146.81 104.542 1146.81 90.3557C1146.81 65.7824 1178.73 48.0491 1207.36 48.0491C1243.08 48.0491 1278.29 62.7424 1278.29 98.209C1278.29 124.809 1251.69 147.356 1230.16 164.836L1164.29 217.782H1245.86C1253.72 217.782 1260.3 216.262 1266.38 207.396L1272.46 198.782L1282.85 254.516H1133.89V249.449Z" fill="black"/>
</g>
<defs>
<clipPath id="clip0_155_217">
<rect width="748.037" height="329.305" fill="white" transform="translate(586)"/>
</clipPath>
</defs>
</svg>
