<svg width="341" height="482" viewBox="0 0 341 482" fill="none" xmlns="http://www.w3.org/2000/svg">
<path d="M228.378 10.7837H262.196L262.56 20.5572H256.22C256.22 20.5572 246.596 41.2821 246.596 57.609C246.596 70.6153 249.203 83.6216 259.603 88.8216V94.0217H255.944L255.668 101.828C255.668 101.828 262.209 114.834 270.015 122.641C277.822 130.447 290.051 141.812 290.051 141.812L234.38 157.587L186.777 86.2279L202.39 10.7962H228.403L228.378 10.7837Z" fill="#878787"/>
<path d="M234.53 158.176L233.841 157.926L186.239 86.5663L186.151 86.0901L201.763 10.6584L202.377 10.1572H262.197L262.823 10.7587L263.186 20.5322L262.56 21.1838H256.633C255.368 24.0156 247.223 42.7733 247.223 57.609C247.223 73.9734 251.358 83.9976 259.878 88.2578L260.229 88.8217V94.0217L259.603 94.6482H256.545L256.295 101.69C257.034 103.119 263.237 114.985 270.454 122.202C278.16 129.908 290.352 141.248 290.477 141.361L290.227 142.426L234.555 158.189L234.53 158.176ZM187.429 86.0901L234.63 156.861L288.798 141.524C285.929 138.842 276.13 129.658 269.564 123.092C261.783 115.31 255.167 102.254 255.104 102.116L255.042 101.815L255.317 94.0092L255.944 93.4077H258.976V89.2101C250.23 84.6241 245.97 74.2867 245.97 57.609C245.97 40.9313 255.556 20.5071 255.656 20.2941L256.22 19.9308H261.908L261.595 11.4102H202.891L187.441 86.0901H187.429Z" fill="black"/>
<path d="M244.367 103.507L250.231 118.756L227.927 157.487L244.367 103.507Z" fill="black"/>
<path d="M228.478 157.8L227.338 157.312L243.765 103.332L244.955 103.294L250.819 118.556L250.782 119.095L228.478 157.826V157.8ZM244.429 105.424L230.132 152.412L249.541 118.706L244.429 105.424Z" fill="black"/>
<path d="M224.606 11.2979L229.807 10.7842L224.606 86.2159V52.4094V11.2979Z" fill="black"/>
<path d="M225.233 86.2657L223.98 86.2281V11.3102L224.544 10.6837L229.744 10.1699L230.433 10.834L225.233 86.2657ZM225.233 11.8615V68.0218L229.13 11.4731L225.233 11.8615Z" fill="black"/>
<path d="M316.816 322.911L311.616 350.54L296.004 372.33L288.197 398.343L262.398 438.038C257.536 445.519 257.599 455.167 262.548 462.585L272.597 465.968L272.986 473.774H171.165L142.559 419.155L288.222 291.698L316.829 322.911H316.816Z" fill="#878787"/>
<path d="M272.986 474.401H171.166L170.614 474.062L142.008 419.443L142.146 418.679L287.809 291.222L288.686 291.272L317.292 322.485L317.443 323.024L312.243 350.653L312.143 350.903L296.593 372.605L288.749 398.681L262.949 438.376C258.263 445.594 258.275 454.866 262.974 462.058L272.81 465.379L273.236 465.943L273.625 473.749L272.998 474.401H272.986ZM171.541 473.148H272.334L272.008 466.431L262.373 463.186L262.047 462.935C256.947 455.305 256.884 445.393 261.897 437.7L287.646 398.079L295.515 371.966L311.04 350.289L316.152 323.099L288.16 292.563L143.336 419.28L171.541 473.135V473.148Z" fill="black"/>
<path d="M168.559 438.664H182.869L173.884 473.649H171.441L168.559 438.664Z" fill="black"/>
<path d="M173.884 474.275H171.441L170.815 473.699L167.933 438.714L168.559 438.038H182.869L183.47 438.815L174.498 473.799L173.897 474.275H173.884ZM172.017 473.022H173.396L182.054 439.291H169.236L172.017 473.022Z" fill="black"/>
<path d="M316.816 322.911L270.003 364.536L254.391 393.142L241.384 406.149L238.791 341.117L316.816 322.911Z" fill="black"/>
<path d="M241.835 406.587L240.77 406.174L238.164 341.142L238.653 340.503L316.691 322.297L317.255 323.374L270.517 364.912L254.854 393.568L241.848 406.575L241.835 406.587ZM239.43 341.618L241.948 404.695L253.877 392.766L269.577 364.06L314.548 324.088L239.417 341.618H239.43Z" fill="black"/>
<mask id="mask0_63_804" style="mask-type:luminance" maskUnits="userSpaceOnUse" x="7" y="10" width="329" height="464">
<path d="M80.1208 10.7837H224.556V21.7852C224.556 21.7852 223.178 44.5901 228.378 62.809C233.578 81.0153 241.384 96.628 241.384 96.628C241.384 96.628 246.584 104.434 246.584 114.834C246.584 125.234 230.972 146.047 230.972 146.047L249.178 133.041C249.178 133.041 259.578 140.847 264.791 143.441C269.991 146.047 285.603 135.634 285.603 135.634C285.603 135.634 335.022 200.666 335.022 255.285C335.022 309.904 316.816 322.91 316.816 322.91L290.803 330.717L285.603 346.329L262.548 358.872L241.384 406.148L171.153 447.761V473.774H68.9314V466.707C68.9314 466.707 93.1271 463.361 93.1271 452.961C93.1271 442.561 7.29541 372.329 7.29541 255.285C7.29541 151.247 82.7271 101.828 82.7271 101.828V88.8216C82.7271 88.8216 100.933 78.4216 100.933 60.2152C100.933 42.0089 90.5334 21.1963 90.5334 21.1963H80.1333V10.7962L80.1208 10.7837Z" fill="white"/>
</mask>
<g mask="url(#mask0_63_804)">
<path d="M951.67 -86.9641H-125.712V523.544H951.67V-86.9641Z" fill="white"/>
<path d="M182.341 199.037C213.579 199.037 238.903 173.714 238.903 142.476C238.903 111.238 213.579 85.9148 182.341 85.9148C151.104 85.9148 125.78 111.238 125.78 142.476C125.78 173.714 151.104 199.037 182.341 199.037Z" fill="#E3E3E3"/>
<path d="M29.9118 199.037C61.1497 199.037 86.473 173.714 86.473 142.476C86.473 111.238 61.1497 85.9148 29.9118 85.9148C-1.32609 85.9148 -26.6494 111.238 -26.6494 142.476C-26.6494 173.714 -1.32609 199.037 29.9118 199.037Z" fill="#E3E3E3"/>
<path d="M334.771 199.037C366.009 199.037 391.332 173.714 391.332 142.476C391.332 111.238 366.009 85.9148 334.771 85.9148C303.533 85.9148 278.21 111.238 278.21 142.476C278.21 173.714 303.533 199.037 334.771 199.037Z" fill="#E3E3E3"/>
<path d="M182.341 502.305C213.579 502.305 238.903 476.982 238.903 445.744C238.903 414.506 213.579 389.183 182.341 389.183C151.104 389.183 125.78 414.506 125.78 445.744C125.78 476.982 151.104 502.305 182.341 502.305Z" fill="#E3E3E3"/>
<path d="M29.9118 502.305C61.1497 502.305 86.473 476.982 86.473 445.744C86.473 414.506 61.1497 389.183 29.9118 389.183C-1.32609 389.183 -26.6494 414.506 -26.6494 445.744C-26.6494 476.982 -1.32609 502.305 29.9118 502.305Z" fill="#E3E3E3"/>
<path d="M334.771 502.305C366.009 502.305 391.332 476.982 391.332 445.744C391.332 414.506 366.009 389.183 334.771 389.183C303.533 389.183 278.21 414.506 278.21 445.744C278.21 476.982 303.533 502.305 334.771 502.305Z" fill="#E3E3E3"/>
<path d="M259.353 350.665C290.591 350.665 315.914 325.342 315.914 294.104C315.914 262.866 290.591 237.543 259.353 237.543C228.115 237.543 202.792 262.866 202.792 294.104C202.792 325.342 228.115 350.665 259.353 350.665Z" fill="#E3E3E3"/>
<path d="M105.719 350.665C136.957 350.665 162.281 325.342 162.281 294.104C162.281 262.866 136.957 237.543 105.719 237.543C74.4815 237.543 49.1582 262.866 49.1582 294.104C49.1582 325.342 74.4815 350.665 105.719 350.665Z" fill="#E3E3E3"/>
<path d="M-45.908 350.665C-14.6701 350.665 10.6532 325.342 10.6532 294.104C10.6532 262.866 -14.6701 237.543 -45.908 237.543C-77.1459 237.543 -102.469 262.866 -102.469 294.104C-102.469 325.342 -77.1459 350.665 -45.908 350.665Z" fill="#E3E3E3"/>
<path d="M259.353 47.4098C290.591 47.4098 315.914 22.0865 315.914 -9.15142C315.914 -40.3893 290.591 -65.7126 259.353 -65.7126C228.115 -65.7126 202.792 -40.3893 202.792 -9.15142C202.792 22.0865 228.115 47.4098 259.353 47.4098Z" fill="#E3E3E3"/>
<path d="M105.719 47.4098C136.957 47.4098 162.281 22.0865 162.281 -9.15142C162.281 -40.3893 136.957 -65.7126 105.719 -65.7126C74.4815 -65.7126 49.1582 -40.3893 49.1582 -9.15142C49.1582 22.0865 74.4815 47.4098 105.719 47.4098Z" fill="#E3E3E3"/>
<path d="M-45.908 47.4098C-14.6701 47.4098 10.6532 22.0865 10.6532 -9.15142C10.6532 -40.3893 -14.6701 -65.7126 -45.908 -65.7126C-77.1459 -65.7126 -102.469 -40.3893 -102.469 -9.15142C-102.469 22.0865 -77.1459 47.4098 -45.908 47.4098Z" fill="#E3E3E3"/>
</g>
<path d="M171.153 474.401H68.9316L68.305 473.774V466.707L68.8439 466.081C69.0819 466.043 92.4883 462.697 92.4883 452.961C92.4883 450.794 87.7268 444.955 81.1234 436.885C56.9527 407.276 6.64404 345.678 6.64404 255.285C6.64404 201.368 27.2186 162.374 44.4852 139.168C61.9397 115.687 79.6449 103.156 82.0757 101.49V88.8219L82.389 88.2831C82.5644 88.1828 100.282 77.8329 100.282 60.2155C100.282 43.638 91.4483 24.6172 90.1076 21.823H80.0959L79.4694 21.1965V10.7964L80.0959 10.1699H224.531L225.158 10.7964V21.7979C225.145 22.0611 223.842 44.7532 228.954 62.6463C234.079 80.5895 241.835 96.2021 241.923 96.3525C242.099 96.6156 247.186 104.372 247.186 114.835C247.186 123.004 238.026 137.101 233.678 143.328L248.802 132.527H249.542C249.642 132.615 259.967 140.333 265.054 142.877C269.051 144.869 280.98 137.953 285.24 135.108L286.092 135.246C286.593 135.898 335.636 201.067 335.636 255.273C335.636 309.478 317.919 322.873 317.167 323.412L316.979 323.5L291.28 331.206L286.18 346.505L285.892 346.856L263.024 359.298L241.948 406.387L241.698 406.675L171.779 448.112V473.762L171.153 474.388V474.401ZM69.5581 473.148H170.526V447.761L170.84 447.223L240.896 405.71L261.984 358.622L262.26 358.321L285.09 345.891L290.215 330.516L290.628 330.116L316.528 322.347C317.793 321.332 334.396 307.06 334.396 255.285C334.396 203.511 289.876 142.464 285.453 136.487C282.671 138.278 269.502 146.486 264.515 144.005C259.816 141.649 251.108 135.246 249.178 133.818L231.348 146.561L230.483 145.671C230.633 145.458 245.958 124.909 245.958 114.835C245.958 104.76 240.908 97.0542 240.858 96.979C240.745 96.7535 232.926 81.0406 227.777 62.9846C222.602 44.8785 223.917 21.9859 223.93 21.7603V11.4229H80.735V20.57H90.5085L91.0724 20.9208C91.1726 21.1338 101.548 42.0718 101.548 60.2155C101.548 77.2314 85.7846 87.6691 83.3413 89.1852V101.841L83.0531 102.367C82.8651 102.492 64.0448 114.985 45.4625 139.97C28.3213 163.026 7.89706 201.756 7.89706 255.298C7.89706 345.239 58.0052 406.612 82.0882 436.108C89.3557 445.005 93.7288 450.368 93.7288 452.986C93.7288 463.048 73.2545 466.694 69.533 467.271V473.173L69.5581 473.148Z" fill="black"/>
<path d="M193.018 21.259H95.7334V22.5121H193.018V21.259Z" fill="black"/>
<path d="M230.984 146.047L217.978 179.853L184.159 208.472" fill="white"/>
<path d="M184.573 208.949L183.758 207.984L217.452 179.478L230.396 145.822L231.573 146.273L218.567 180.079L218.379 180.33L184.573 208.949Z" fill="black"/>
<path d="M165.952 110.248C127.334 110.248 95.9334 105.086 95.6201 105.036L95.8206 103.795C96.1339 103.845 127.434 108.983 165.952 108.983C204.47 108.983 234.191 103.845 234.492 103.795L234.705 105.023C234.404 105.073 204.57 110.236 165.952 110.236V110.248Z" fill="black"/>
</svg>
