<svg width="1920" height="541" viewBox="0 0 1920 541" fill="none" xmlns="http://www.w3.org/2000/svg">
<path d="M1024.57 11.2734H1062.56L1062.96 22.2512H1055.84C1055.84 22.2512 1045.03 45.5297 1045.03 63.8682C1045.03 78.4771 1047.96 93.086 1059.64 98.9267V104.767H1055.53L1055.22 113.536C1055.22 113.536 1062.57 128.144 1071.34 136.913C1080.11 145.681 1093.84 158.446 1093.84 158.446L1031.31 176.165L977.844 96.0134L995.381 11.2875H1024.6L1024.57 11.2734Z" fill="#878787"/>
<path d="M1031.48 176.827L1030.71 176.545L977.239 96.3932L977.14 95.8584L994.676 11.1325L995.366 10.5696H1062.56L1063.26 11.2451L1063.67 22.2229L1062.96 22.9548H1056.31C1054.89 26.1355 1045.74 47.2044 1045.74 63.8681C1045.74 82.2488 1050.38 93.508 1059.95 98.2932L1060.35 98.9266V104.767L1059.64 105.471H1056.21L1055.93 113.381C1056.76 114.985 1063.72 128.313 1071.83 136.42C1080.49 145.075 1094.18 157.812 1094.32 157.939L1094.04 159.135L1031.51 176.841L1031.48 176.827ZM978.576 95.8584L1031.59 175.349L1092.43 158.122C1089.21 155.11 1078.21 144.794 1070.83 137.419C1062.09 128.679 1054.66 114.014 1054.59 113.859L1054.52 113.521L1054.83 104.753L1055.53 104.078H1058.94V99.3629C1049.11 94.2118 1044.33 82.6006 1044.33 63.8681C1044.33 45.1355 1055.1 22.1948 1055.21 21.9555L1055.84 21.5473H1062.23L1061.88 11.977H995.943L978.59 95.8584H978.576Z" fill="black"/>
<path d="M1042.53 115.422L1049.12 132.55L1024.06 176.053L1042.53 115.422Z" fill="black"/>
<path d="M1024.68 176.405L1023.4 175.856L1041.85 115.225L1043.19 115.182L1049.78 132.325L1049.73 132.93L1024.68 176.433V176.405ZM1042.6 117.575L1026.54 170.353L1048.34 132.493L1042.6 117.575Z" fill="black"/>
<path d="M1020.33 11.851L1026.18 11.2739L1020.33 95.9998V58.028V11.851Z" fill="black"/>
<path d="M1021.04 96.0556L1019.63 96.0133V11.8645L1020.26 11.1608L1026.1 10.5837L1026.88 11.3297L1021.04 96.0556ZM1021.04 12.4837V75.5637L1025.41 12.0474L1021.04 12.4837Z" fill="black"/>
<path d="M1123.91 361.859L1118.06 392.892L1100.53 417.367L1091.76 446.585L1062.78 491.172C1057.32 499.574 1057.39 510.411 1062.95 518.743L1074.24 522.543L1074.67 531.311H960.308L928.177 469.962L1091.79 326.801L1123.92 361.859H1123.91Z" fill="#878787"/>
<path d="M1074.67 532.014H960.308L959.689 531.634L927.558 470.285L927.713 469.427L1091.32 326.265L1092.31 326.321L1124.44 361.38L1124.61 361.985L1118.77 393.018L1118.66 393.3L1101.19 417.676L1092.38 446.964L1063.4 491.551C1058.14 499.658 1058.15 510.072 1063.43 518.151L1074.48 521.881L1074.96 522.514L1075.39 531.282L1074.69 532.014H1074.67ZM960.731 530.607H1073.94L1073.58 523.063L1062.75 519.418L1062.39 519.136C1056.66 510.565 1056.59 499.432 1062.22 490.791L1091.14 446.289L1099.98 416.958L1117.42 392.61L1123.16 362.07L1091.72 327.771L929.05 470.102L960.731 530.592V530.607Z" fill="black"/>
<path d="M957.381 491.875H973.454L963.363 531.169H960.618L957.381 491.875Z" fill="black"/>
<path d="M963.362 531.873H960.618L959.914 531.226L956.677 491.931L957.381 491.171H973.454L974.129 492.043L964.052 531.338L963.376 531.873H963.362ZM961.265 530.466H962.814L972.539 492.578H958.141L961.265 530.466Z" fill="black"/>
<path d="M1123.91 361.859L1071.33 408.613L1053.79 440.744L1039.18 455.353L1036.27 382.308L1123.91 361.859Z" fill="black"/>
<path d="M1039.69 455.845L1038.49 455.381L1035.56 382.336L1036.11 381.619L1123.76 361.169L1124.4 362.379L1071.9 409.035L1054.31 441.222L1039.7 455.831L1039.69 455.845ZM1036.98 382.871L1039.81 453.72L1053.21 440.321L1070.85 408.078L1121.36 363.182L1036.97 382.871H1036.98Z" fill="black"/>
<mask id="mask0_151_213" style="mask-type:luminance" maskUnits="userSpaceOnUse" x="776" y="11" width="369" height="521">
<path d="M858.046 11.2734H1020.28V23.6305C1020.28 23.6305 1018.73 49.2453 1024.57 69.709C1030.41 90.1586 1039.18 107.695 1039.18 107.695C1039.18 107.695 1045.02 116.463 1045.02 128.144C1045.02 139.826 1027.48 163.203 1027.48 163.203L1047.93 148.594C1047.93 148.594 1059.61 157.362 1065.47 160.276C1071.31 163.203 1088.85 151.507 1088.85 151.507C1088.85 151.507 1144.35 224.552 1144.35 285.901C1144.35 347.25 1123.91 361.858 1123.91 361.858L1094.69 370.627L1088.85 388.163L1062.95 402.251L1039.18 455.352L960.294 502.092V531.31H845.478V523.372C845.478 523.372 872.655 519.615 872.655 507.933C872.655 496.252 776.248 417.367 776.248 285.901C776.248 169.044 860.973 113.536 860.973 113.536V98.9267C860.973 98.9267 881.423 87.2452 881.423 66.7956C881.423 46.346 869.742 22.969 869.742 22.969H858.06V11.2875L858.046 11.2734Z" fill="white"/>
</mask>
<g mask="url(#mask0_151_213)">
<path d="M1836.98 -98.5183H626.852V587.212H1836.98V-98.5183Z" fill="white"/>
<path d="M972.861 222.722C1007.95 222.722 1036.39 194.279 1036.39 159.192C1036.39 124.105 1007.95 95.6616 972.861 95.6616C937.775 95.6616 909.331 124.105 909.331 159.192C909.331 194.279 937.775 222.722 972.861 222.722Z" fill="#E3E3E3"/>
<path d="M801.65 222.722C836.737 222.722 865.181 194.279 865.181 159.192C865.181 124.105 836.737 95.6616 801.65 95.6616C766.564 95.6616 738.12 124.105 738.12 159.192C738.12 194.279 766.564 222.722 801.65 222.722Z" fill="#E3E3E3"/>
<path d="M1144.07 222.722C1179.16 222.722 1207.6 194.279 1207.6 159.192C1207.6 124.105 1179.16 95.6616 1144.07 95.6616C1108.99 95.6616 1080.54 124.105 1080.54 159.192C1080.54 194.279 1108.99 222.722 1144.07 222.722Z" fill="#E3E3E3"/>
<path d="M972.861 563.357C1007.95 563.357 1036.39 534.914 1036.39 499.827C1036.39 464.74 1007.95 436.296 972.861 436.296C937.775 436.296 909.331 464.74 909.331 499.827C909.331 534.914 937.775 563.357 972.861 563.357Z" fill="#E3E3E3"/>
<path d="M801.65 563.357C836.737 563.357 865.181 534.914 865.181 499.827C865.181 464.74 836.737 436.296 801.65 436.296C766.564 436.296 738.12 464.74 738.12 499.827C738.12 534.914 766.564 563.357 801.65 563.357Z" fill="#E3E3E3"/>
<path d="M1144.07 563.357C1179.16 563.357 1207.6 534.914 1207.6 499.827C1207.6 464.74 1179.16 436.296 1144.07 436.296C1108.99 436.296 1080.54 464.74 1080.54 499.827C1080.54 534.914 1108.99 563.357 1144.07 563.357Z" fill="#E3E3E3"/>
<path d="M1059.36 393.033C1094.45 393.033 1122.89 364.589 1122.89 329.502C1122.89 294.416 1094.45 265.972 1059.36 265.972C1024.28 265.972 995.832 294.416 995.832 329.502C995.832 364.589 1024.28 393.033 1059.36 393.033Z" fill="#E3E3E3"/>
<path d="M886.799 393.033C921.886 393.033 950.329 364.589 950.329 329.502C950.329 294.416 921.886 265.972 886.799 265.972C851.712 265.972 823.269 294.416 823.269 329.502C823.269 364.589 851.712 393.033 886.799 393.033Z" fill="#E3E3E3"/>
<path d="M716.489 393.033C751.576 393.033 780.019 364.589 780.019 329.502C780.019 294.416 751.576 265.972 716.489 265.972C681.402 265.972 652.958 294.416 652.958 329.502C652.958 364.589 681.402 393.033 716.489 393.033Z" fill="#E3E3E3"/>
<path d="M1059.36 52.4122C1094.45 52.4122 1122.89 23.9687 1122.89 -11.1181C1122.89 -46.2049 1094.45 -74.6484 1059.36 -74.6484C1024.28 -74.6484 995.832 -46.2049 995.832 -11.1181C995.832 23.9687 1024.28 52.4122 1059.36 52.4122Z" fill="#E3E3E3"/>
<path d="M886.799 52.4122C921.886 52.4122 950.329 23.9687 950.329 -11.1181C950.329 -46.2049 921.886 -74.6484 886.799 -74.6484C851.712 -74.6484 823.269 -46.2049 823.269 -11.1181C823.269 23.9687 851.712 52.4122 886.799 52.4122Z" fill="#E3E3E3"/>
<path d="M716.489 52.4122C751.576 52.4122 780.019 23.9687 780.019 -11.1181C780.019 -46.2049 751.576 -74.6484 716.489 -74.6484C681.402 -74.6484 652.958 -46.2049 652.958 -11.1181C652.958 23.9687 681.402 52.4122 716.489 52.4122Z" fill="#E3E3E3"/>
</g>
<path d="M960.294 532.014H845.478L844.774 531.31V523.372L845.379 522.669C845.647 522.626 871.937 518.869 871.937 507.933C871.937 505.498 866.589 498.94 859.172 489.876C832.023 456.619 775.516 387.431 775.516 285.901C775.516 225.34 798.625 181.541 818.019 155.476C837.624 129.101 857.511 115.027 860.242 113.156V98.9267L860.593 98.3215C860.79 98.2089 880.691 86.5837 880.691 66.7956C880.691 48.1756 870.769 26.8111 869.263 23.6726H858.018L857.314 22.9689V11.2874L858.018 10.5837H1020.25L1020.95 11.2874V23.6445C1020.94 23.94 1019.48 49.4282 1025.22 69.5259C1030.97 89.68 1039.69 107.216 1039.78 107.385C1039.98 107.681 1045.7 116.393 1045.7 128.144C1045.7 137.321 1035.41 153.154 1030.52 160.149L1047.51 148.017H1048.34C1048.45 148.116 1060.05 156.785 1065.77 159.642C1070.25 161.88 1083.65 154.111 1088.44 150.916L1089.4 151.071C1089.96 151.803 1145.04 225.002 1145.04 285.887C1145.04 346.771 1125.14 361.816 1124.3 362.421L1124.09 362.52L1095.22 371.175L1089.49 388.36L1089.17 388.754L1063.49 402.729L1039.81 455.62L1039.53 455.944L960.998 502.486V531.296L960.294 532V532.014ZM846.182 530.606H959.59V502.092L959.942 501.487L1038.63 454.86L1062.32 401.969L1062.63 401.632L1088.27 387.67L1094.03 370.401L1094.49 369.951L1123.58 361.225C1125 360.085 1143.65 344.055 1143.65 285.901C1143.65 227.747 1093.65 159.178 1088.68 152.464C1085.55 154.477 1070.76 163.696 1065.16 160.909C1059.88 158.263 1050.1 151.071 1047.93 149.467L1027.91 163.78L1026.93 162.781C1027.1 162.541 1044.32 139.46 1044.32 128.144C1044.32 116.829 1038.64 108.173 1038.59 108.089C1038.46 107.836 1029.68 90.1867 1023.89 69.9059C1018.08 49.5689 1019.56 23.8556 1019.57 23.6023V11.9911H858.736V22.2652H869.713L870.347 22.6593C870.459 22.8986 882.113 46.4163 882.113 66.7956C882.113 85.9081 864.407 97.6319 861.663 99.3348V113.55L861.339 114.141C861.128 114.281 839.989 128.313 819.117 156.377C799.864 182.273 776.923 225.776 776.923 285.915C776.923 386.938 833.205 455.873 860.256 489.004C868.419 498.996 873.33 505.02 873.33 507.961C873.33 519.263 850.333 523.358 846.153 524.006V530.635L846.182 530.606Z" fill="black"/>
<path d="M984.853 23.0396H875.582V24.447H984.853V23.0396Z" fill="black"/>
<path d="M1027.5 163.203L1012.89 201.174L974.903 233.32" fill="white"/>
<path d="M975.368 233.855L974.453 232.771L1012.3 200.753L1026.84 162.95L1028.16 163.457L1013.55 201.428L1013.34 201.71L975.368 233.855Z" fill="black"/>
<path d="M954.453 122.993C911.077 122.993 875.807 117.195 875.455 117.138L875.68 115.745C876.032 115.801 911.189 121.572 954.453 121.572C997.716 121.572 1031.1 115.801 1031.44 115.745L1031.68 117.124C1031.34 117.181 997.829 122.979 954.453 122.979V122.993Z" fill="black"/>
</svg>
