<svg width="1920" height="216" viewBox="0 0 1920 216" fill="none" xmlns="http://www.w3.org/2000/svg">
<g clip-path="url(#clip0_155_220)">
<path d="M815.685 1.04102L543.704 112.226V186.819L815.685 75.6336V1.04102Z" fill="#878787"/>
<path d="M543.001 187.875V111.762L543.437 111.579L816.39 0V76.1126L815.953 76.2955L543.001 187.875ZM544.408 112.705V185.778L814.982 75.1696V2.09704L544.408 112.705Z" fill="black"/>
<path d="M1106.67 1.04102L1378.65 112.226V186.819L1106.67 75.6336V1.04102Z" fill="#878787"/>
<path d="M1379.35 187.874L1378.38 187.48L1105.96 76.1123V-0.000244141L1106.93 0.39383L1379.35 111.762V187.874ZM1107.37 75.1693L1377.94 185.777V112.705L1107.37 2.09679V75.1693Z" fill="black"/>
<path d="M891.334 111.889H543.704V186.481H891.334V111.889Z" fill="white"/>
<path d="M892.038 187.185H543.001V111.185H892.038V187.185ZM544.408 185.777H890.63V112.592H544.408V185.777Z" fill="black"/>
<path d="M815.334 0.703613H467.704V75.2962H815.334V0.703613Z" fill="white"/>
<path d="M816.037 76H467V0H816.037V76ZM468.407 74.5925H814.629V1.40741H468.407V74.5925Z" fill="black"/>
<path d="M1452.89 0.703613H1105.26V75.2962H1452.89V0.703613Z" fill="white"/>
<path d="M1453.59 76H1104.56V0H1453.59V76ZM1105.96 74.5925H1452.19V1.40741H1105.96V74.5925Z" fill="black"/>
<path d="M1380.41 112.592H1032.78V187.185H1380.41V112.592Z" fill="white"/>
<path d="M1381.11 187.888H1032.08V111.888H1381.11V187.888ZM1033.48 186.481H1379.7V113.296H1033.48V186.481Z" fill="black"/>
<path d="M1032.78 113.296L1135.87 140.037V214.629L1032.78 187.888V113.296Z" fill="#878787"/>
<path d="M1136.58 215.544L1032.08 188.438V112.396L1136.58 139.502V215.544ZM1033.48 187.354L1135.17 213.729V140.586L1033.48 114.211V187.354Z" fill="black"/>
<path d="M890.982 111.889L787.89 138.629V213.222L890.982 186.481V111.889Z" fill="#878787"/>
<path d="M787.186 214.137V138.095L787.707 137.954L891.686 110.988V187.03L891.165 187.171L787.186 214.137ZM788.593 139.179V212.322L890.279 185.947V112.804L788.593 139.179Z" fill="black"/>
<path d="M788.241 214.643L1135.87 214.643V140.05L788.241 140.05V214.643Z" fill="white"/>
<path d="M1136.57 215.333H787.538V139.333H1136.57V215.333ZM788.945 213.926H1135.17V140.741H788.945V213.926Z" fill="black"/>
<path d="M803.877 192.196V191.422H807.354V162.007H803.877V161.233H818.191V162.007H814.7V191.422H818.191V192.196H803.877Z" fill="black"/>
<path d="M820.514 192.196V191.422H823.99V162.007H820.514V161.233H837.389C843.497 161.472 846.171 164.555 846.171 169.044C846.171 172.647 844.046 175.701 839.598 176.546C845.748 176.855 846.79 180.684 846.79 184.089V189.818C846.79 190.944 847.057 191.408 847.719 191.408H848.915V192.182H846.438C840.33 192.182 839.584 189.508 839.584 184.906V182.006C839.584 178.53 839.584 177.095 836.994 177.095H831.351V191.408H834.827V192.182H820.514V192.196ZM839.753 173.421C839.753 171.958 838.824 171.338 838.824 169.044C838.824 166.75 839.753 166.187 839.753 164.709C839.753 163.232 838.754 162.007 836.234 162.007H831.365V176.321H836.234C838.754 176.321 839.753 174.927 839.753 173.421Z" fill="black"/>
<path d="M849.886 192.196V191.422H853.362V162.007H849.886V161.233H866.761C872.869 161.472 875.543 164.555 875.543 169.044C875.543 172.647 873.418 175.701 868.97 176.546C875.121 176.855 876.162 180.684 876.162 184.089V189.818C876.162 190.944 876.429 191.408 877.091 191.408H878.287V192.182H875.81C869.702 192.182 868.956 189.508 868.956 184.906V182.006C868.956 178.53 868.956 177.095 866.367 177.095H860.723V191.408H864.199V192.182H849.886V192.196ZM869.125 173.421C869.125 171.958 868.196 171.338 868.196 169.044C868.196 166.75 869.125 166.187 869.125 164.709C869.125 163.232 868.126 162.007 865.606 162.007H860.737V176.321H865.606C868.126 176.321 869.125 174.927 869.125 173.421Z" fill="black"/>
<path d="M899.933 170.057L897.385 164.132C896.724 162.626 896.147 162.007 894.908 162.007H890.109V176.25C892.234 176.208 894.359 174.857 896.217 171.296V182.288C894.402 178.53 892.234 177.179 890.109 177.137V191.422H896.147C897.385 191.422 898.047 190.718 898.624 189.297L901.565 182.217L905.239 192.196H879.272V191.422H882.748V162.007H879.272V161.233H903.423L899.947 170.057H899.933Z" fill="black"/>
<path d="M907.167 191.422H910.643V162.007H907.167V161.233H922.874C928.982 161.472 931.656 164.554 931.656 169.044C931.656 173.801 928.757 177.094 922.1 177.094H918.004V191.408H921.48V192.182H907.167V191.408V191.422ZM925.238 173.421C925.238 171.957 924.309 171.338 924.309 169.044C924.309 166.75 925.238 166.187 925.238 164.709C925.238 163.231 924.239 162.007 921.72 162.007H918.004V176.32H921.72C924.239 176.32 925.238 174.927 925.238 173.421Z" fill="black"/>
<path d="M945.843 191.421H948.39L944.562 180.936H935.386L935.189 181.443C934.415 183.413 934.766 184.033 935.343 185.581L937.553 191.421H940.382V192.196H927.8V191.421H930.389L939.326 168.439C940.565 165.23 942.423 160.81 942.423 159.304H943.197L955.695 191.421H958.397V192.196H945.815V191.421H945.843ZM944.252 180.162L940.115 168.79L935.709 180.162H944.266H944.252Z" fill="black"/>
<path d="M958.031 192.196V191.422H961.507V162.007H958.031V161.233H974.906C981.014 161.472 983.688 164.554 983.688 169.044C983.688 172.647 981.563 175.701 977.115 176.546C983.266 176.855 984.307 180.683 984.307 184.089V189.817C984.307 190.943 984.574 191.408 985.236 191.408H986.432V192.182H983.955C977.847 192.182 977.101 189.508 977.101 184.906V182.006C977.101 178.53 977.101 177.094 974.511 177.094H968.868V191.408H972.344V192.182H958.031V192.196ZM977.256 173.421C977.256 171.957 976.327 171.338 976.327 169.044C976.327 166.75 977.256 166.187 977.256 164.709C977.256 163.231 976.257 162.007 973.737 162.007H968.868V176.32H973.737C976.257 176.32 977.256 174.927 977.256 173.421Z" fill="black"/>
<path d="M1004.48 191.421H1007.02L1003.19 180.936H994.018L993.821 181.443C993.047 183.413 993.399 184.033 993.976 185.581L996.185 191.421H999.014V192.196H986.432V191.421H989.022L997.959 168.439C999.197 165.23 1001.06 160.81 1001.06 159.304H1001.83L1014.33 191.421H1017.03V192.196H1004.45V191.421H1004.48ZM1002.88 180.162L998.747 168.79L994.342 180.162H1002.9H1002.88Z" fill="black"/>
<path d="M1017.44 192.196V191.422H1020.91V162.007H1017.44V161.233H1033.54C1040.2 161.233 1043.09 164.371 1043.09 169.044C1043.09 172.717 1041.55 175.701 1036.52 176.588C1041.9 177.123 1043.87 180.261 1043.87 184.131C1043.87 188.888 1040.97 192.182 1034.31 192.182H1017.44V192.196ZM1028.27 162.007V176.32H1033.14C1035.66 176.32 1036.66 174.927 1036.66 173.421C1036.66 171.915 1035.73 171.338 1035.73 169.044C1035.73 166.75 1036.66 166.187 1036.66 164.709C1036.66 163.231 1035.66 162.007 1033.14 162.007H1028.27ZM1037.45 188.508C1037.45 187.045 1036.52 186.411 1036.52 184.131C1036.52 181.851 1037.45 181.26 1037.45 179.797C1037.45 178.333 1036.45 177.094 1033.93 177.094H1028.29V191.408H1033.93C1036.45 191.408 1037.45 190.014 1037.45 188.508Z" fill="black"/>
<path d="M1045.42 192.196V191.422H1048.89V162.007H1045.42V161.233H1059.73V162.007H1056.25V191.422H1059.73V192.196H1045.42Z" fill="black"/>
<path d="M1076 162.007H1072.52V191.422H1077.79C1079.03 191.422 1079.69 190.718 1080.26 189.297L1083.21 182.217L1086.88 192.196H1061.69V191.422H1065.16V162.007H1061.69V161.233H1076V162.007Z" fill="black"/>
<path d="M1108.69 170.057L1106.15 164.132C1105.49 162.626 1104.91 162.007 1103.67 162.007H1098.87V176.25C1101 176.208 1103.12 174.857 1104.98 171.296V182.288C1103.16 178.53 1101 177.179 1098.87 177.137V191.422H1104.91C1106.15 191.422 1106.81 190.718 1107.39 189.297L1110.33 182.217L1114 192.196H1088.03V191.422H1091.51V162.007H1088.03V161.233H1112.18L1108.71 170.057H1108.69Z" fill="black"/>
<path d="M1200.98 153.295C1207.73 151.324 1211.04 151.465 1215.33 149.213C1211.18 147.102 1207.73 147.243 1200.98 145.343C1195.42 143.654 1195.77 139.924 1196.69 138.165C1197.74 136.476 1200.84 134.295 1204.99 138.165C1210.13 143.161 1211.53 146.258 1215.61 148.791C1215.47 144.006 1213.57 141.191 1211.96 134.295C1210.55 128.735 1214 127.117 1215.97 127.117C1217.94 127.117 1221.39 128.735 1219.98 134.295C1218.36 141.121 1216.46 143.935 1216.32 148.65C1220.4 146.187 1221.81 143.161 1226.94 138.306C1231.1 134.295 1234.19 136.476 1235.11 138.165C1236.16 139.924 1236.51 143.724 1230.96 145.272C1224.2 147.243 1220.89 147.102 1216.67 149.354C1220.75 151.465 1224.2 151.324 1230.96 153.224C1236.51 154.913 1236.16 158.643 1235.25 160.332C1234.19 162.091 1231.1 164.272 1226.94 160.332C1221.81 155.406 1220.4 152.31 1216.32 149.776C1216.46 154.561 1218.36 157.376 1219.98 164.272C1221.39 169.832 1217.94 171.45 1215.97 171.45C1214 171.45 1210.55 169.832 1211.96 164.272C1213.57 157.517 1215.4 154.632 1215.61 149.987C1211.53 152.45 1210.13 155.406 1204.99 160.261C1200.84 164.272 1197.74 162.091 1196.83 160.332C1195.77 158.643 1195.42 154.843 1200.98 153.295Z" fill="black"/>
<path d="M687.274 153.295C694.03 151.324 697.337 151.465 701.63 149.213C697.478 147.102 694.03 147.243 687.274 145.343C681.715 143.654 682.067 139.924 682.982 138.165C684.037 136.476 687.134 134.295 691.285 138.165C696.422 143.161 697.83 146.258 701.911 148.791C701.771 144.006 699.871 141.191 698.252 134.295C696.845 128.735 700.293 127.117 702.263 127.117C704.234 127.117 707.682 128.735 706.274 134.295C704.656 141.121 702.756 143.935 702.615 148.65C706.697 146.187 708.104 143.161 713.241 138.306C717.393 134.295 720.489 136.476 721.404 138.165C722.459 139.924 722.811 143.724 717.252 145.272C710.496 147.243 707.189 147.102 702.967 149.354C707.048 151.465 710.496 151.324 717.252 153.224C722.811 154.913 722.459 158.643 721.545 160.332C720.489 162.091 717.393 164.272 713.241 160.332C708.104 155.406 706.697 152.31 702.615 149.776C702.756 154.561 704.656 157.376 706.274 164.272C707.682 169.832 704.234 171.45 702.263 171.45C700.293 171.45 696.845 169.832 698.252 164.272C699.871 157.517 701.7 154.632 701.911 149.987C697.83 152.45 696.422 155.406 691.285 160.261C687.134 164.272 684.037 162.091 683.122 160.332C682.067 158.643 681.715 154.843 687.274 153.295Z" fill="black"/>
<path d="M575.399 30.09L572.458 23.3907C571.796 21.927 571.219 21.2655 569.981 21.2655H567.855V50.6803H571.332V51.4544H557.018V50.6803H560.495V21.2655H558.37C557.131 21.2655 556.554 21.927 555.893 23.3907L552.951 30.09L549.658 20.4915H578.678L575.385 30.09H575.399Z" fill="black"/>
<path d="M599.748 29.3159L597.2 23.3907C596.539 21.8848 595.962 21.2655 594.723 21.2655H589.924V35.5085C592.049 35.4663 594.174 34.1151 596.032 30.5544V41.5463C594.217 37.7885 592.049 36.4374 589.924 36.3952V50.6803H595.962C597.2 50.6803 597.862 49.9766 598.439 48.5551L601.38 41.4759L605.054 51.4544H579.087V50.6803H582.563V21.2655H579.087V20.4915H603.238L599.762 29.3159H599.748Z" fill="black"/>
<path d="M606.208 50.6803H608.601L609.684 41.4759V22.8981L608.136 20.4915H616.496L622.604 29.3581L628.375 20.4915H637.818V21.2655H634.342V50.6803H637.818V51.4544H623.505V50.6803H626.981V24.1366L621.253 33.0314C620.015 34.9737 619.438 35.8603 619.198 36.6626H618.044C617.847 35.8463 617.509 34.9596 616.271 33.0314L610.501 24.1366V38.2248C610.501 41.4337 611.584 42.7566 612.555 44.3751L616.341 50.6803H620.521V51.4544H606.208V50.6803Z" fill="black"/>
<path d="M639.76 50.6803H643.237V21.2655H639.76V20.4915H655.467C661.575 20.7307 664.249 23.827 664.249 28.3026C664.249 33.0596 661.35 36.3529 654.693 36.3529H650.597V50.6662H654.074V51.4403H639.76V50.6662V50.6803ZM657.845 32.6796C657.845 31.2159 656.917 30.5966 656.917 28.3026C656.917 26.0085 657.845 25.4315 657.845 23.9677C657.845 22.504 656.846 21.2655 654.327 21.2655H650.611V35.5789H654.327C656.846 35.5789 657.845 34.1855 657.845 32.6796Z" fill="black"/>
<path d="M681.714 52.0314C672.355 52.0314 667.556 48.4003 667.556 38.7174V21.2655H664.657V20.4915H678.97V21.2655H675.874V44.4877C675.874 47.5418 676.409 51.2574 681.714 51.2574C686.514 51.2574 689.652 47.964 689.652 42.1655V21.2655H685.782V20.4915H694.1V21.2655H690.623V42.1655C690.623 48.7803 687.105 52.0314 681.729 52.0314H681.714Z" fill="black"/>
<path d="M698.28 40.5333L699.251 45.2481C699.94 48.6118 701.024 51.2437 704.627 51.2437C707.991 51.2437 709.961 48.6963 709.961 45.6281C709.961 42.2222 708.216 40.477 705.246 39.0555L701.46 37.24C697.632 35.4244 694.958 32.3985 694.958 28.3452C694.958 22.5466 700.292 19.9148 705.091 19.9148C708.877 19.9148 710.088 20.4918 712.522 20.4918C713.409 20.4918 714.648 20.3792 715.661 20.1118L712.1 29.8229L709.046 23.7429C707.962 21.6178 706.569 20.6889 704.331 20.6889C700.574 20.6889 699.377 23.2363 699.377 25.1363C699.377 27.6555 701.151 29.1192 703.36 30.2029L709.511 33.2289C714.69 35.7763 715.745 39.4918 715.745 41.7014C715.745 48.274 710.172 52.0318 704.247 52.0318C699.645 52.0318 694.803 49.977 692.171 48.1614L698.28 40.5333Z" fill="black"/>
<path d="M1223.19 51.4539V50.6798H1226.66V21.265H1223.19V20.491H1247.34L1243.86 29.3154L1241.31 23.3902C1240.65 21.8843 1240.08 21.265 1238.84 21.265H1234.04V35.508C1236.21 35.4658 1238.68 34.1147 1240.54 30.5539V41.5458C1238.73 37.788 1236.21 36.4369 1234.04 36.3947V50.6798H1237.51V51.4539H1223.2H1223.19Z" fill="black"/>
<path d="M1264.02 52.0309C1254.66 52.0309 1249.86 48.3998 1249.86 38.7169V21.265H1246.96V20.491H1261.27V21.265H1258.18V44.4872C1258.18 47.5413 1258.71 51.2569 1264.02 51.2569C1268.82 51.2569 1271.95 47.9635 1271.95 42.165V21.265H1268.08V20.491H1276.4V21.265H1272.93V42.165C1272.93 48.7798 1269.41 52.0309 1264.03 52.0309H1264.02Z" fill="black"/>
<path d="M1304.8 35.7054H1301.33V52.0313L1297.77 50.2861C1295.8 51.3276 1293.47 52.0313 1290.95 52.0313C1281.6 52.0313 1276.4 45.6839 1276.4 35.9728C1276.4 26.2617 1281.58 19.9143 1290.56 19.9143C1295.21 19.9143 1296.87 21.0402 1301.13 20.1113L1297.57 29.8225L1294.9 24.2913C1293.59 21.5469 1292.04 20.6884 1289.79 20.6884C1285.07 20.6884 1283.68 24.0099 1283.68 27.078C1283.68 30.1462 1284.72 31.4128 1284.72 35.9728C1284.72 40.5328 1283.68 41.8558 1283.68 44.8676C1283.68 47.8795 1285.27 51.2573 1290.95 51.2573C1291.88 51.2573 1292.93 51.1869 1293.98 50.9054V35.6913H1290.5V34.9173H1304.82V35.6913L1304.8 35.7054Z" fill="black"/>
<path d="M1306.37 51.4539V50.6798H1309.84V21.265H1306.37V20.491H1320.68V21.265H1317.19V50.6798H1320.68V51.4539H1306.37Z" fill="black"/>
<path d="M1347.97 30.0895L1345.03 23.3902C1344.37 21.9265 1343.79 21.265 1342.55 21.265H1340.42V50.6798H1343.9V51.4539H1329.59V50.6798H1333.06V21.265H1330.94C1329.7 21.265 1329.12 21.9265 1328.46 23.3902L1325.52 30.0895L1322.23 20.491H1351.25L1347.95 30.0895H1347.97Z" fill="black"/>
</g>
<defs>
<clipPath id="clip0_155_220">
<rect width="986.592" height="215.544" fill="white" transform="translate(467)"/>
</clipPath>
</defs>
</svg>
