<svg width="644" height="846" viewBox="0 0 644 846" fill="none" xmlns="http://www.w3.org/2000/svg">
<g clip-path="url(#clip0_63_255)">
<path d="M299.446 10.2372H15.0107V20.2614H299.446V10.2372Z" fill="black" stroke="black" stroke-width="1.25302" stroke-miterlimit="10"/>
<path d="M308.216 0.8396H299.445V29.659H308.216V0.8396Z" fill="white" stroke="black" stroke-width="1.25302" stroke-miterlimit="10"/>
<path d="M313.229 8.35767H308.217V22.1409H313.229V8.35767Z" fill="white" stroke="black" stroke-width="1.25302" stroke-miterlimit="10"/>
<path d="M6.23962 29.446H15.0107L15.0107 0.626575H6.23962L6.23962 29.446Z" fill="white" stroke="black" stroke-width="1.25302" stroke-miterlimit="10"/>
<path d="M1.22719 21.9279H6.23926L6.23926 8.14466H1.22719L1.22719 21.9279Z" fill="white" stroke="black" stroke-width="1.25302" stroke-miterlimit="10"/>
<path d="M31.2993 40.7231V593.304V845.161L149.71 593.304H167.252L285.662 845.161V593.304V40.7231H31.2993Z" fill="white" stroke="black" stroke-width="1.25302" stroke-linejoin="bevel"/>
<path d="M261.855 9.39764V31.952H228.023V9.39764H204.216V31.952H170.384V9.39764H146.577V31.952H112.745V9.39764H88.9381V31.952H55.1067V9.39764H31.2993V40.7231H38.8174H55.1067H88.9381H112.745H146.577H170.384H204.216H228.023H261.855H275.638H285.662V9.39764H261.855Z" fill="white" stroke="black" stroke-width="1.25302" stroke-miterlimit="10"/>
<path d="M273.132 53.2533H43.8301V580.774H273.132V53.2533Z" stroke="black" stroke-width="1.25302" stroke-miterlimit="10"/>
<path d="M57.6128 304.07V298.306H83.5503V79.2785H57.6128V73.5146H177.502C223.901 73.5146 242.922 94.2646 242.922 124.813C242.922 155.362 223.901 179.282 180.095 179.282C166.262 179.282 155.599 175.823 147.529 165.448C140.613 156.514 142.63 145.563 148.106 141.24C155.022 136.341 164.245 137.782 169.144 144.41C173.755 151.039 172.314 159.973 165.686 164.872C163.092 166.889 159.922 167.754 157.04 167.754C162.804 173.23 167.991 174.959 177.213 174.959C190.758 174.959 196.811 163.719 196.811 153.633C196.811 144.122 191.047 140.087 191.047 124.813C191.047 109.539 196.811 106.081 196.811 96.2819C196.811 86.4833 191.047 79.2785 174.62 79.2785H138.307V298.306H180.383C198.252 298.306 205.456 288.796 205.456 277.844C205.456 267.469 201.133 262.57 201.133 246.431C201.133 230.292 207.474 225.969 207.474 215.306C207.474 204.643 201.133 194.844 186.147 194.844C176.925 194.844 170.297 196.573 163.668 202.049C166.55 202.049 169.144 202.914 171.738 204.931C178.366 209.83 179.807 218.764 175.196 225.393C170.297 232.021 161.074 233.462 154.158 228.563C148.682 224.24 146.665 213.289 153.581 204.355C161.651 193.98 175.196 189.08 189.029 189.08C230.817 189.08 255.89 212.712 255.89 246.431C255.89 280.15 230.817 304.07 183.265 304.07H57.6128Z" fill="black"/>
<path d="M211.784 394.099L192.764 350.005C187.864 338.766 183.541 334.155 174.319 334.155H138.583V440.21C154.434 439.922 170.285 429.835 184.118 403.321V485.169C170.573 457.214 154.434 447.127 138.583 446.839V553.182H183.541C192.764 553.182 197.663 547.995 201.986 537.332L223.889 484.592L251.267 558.946H57.9014V553.182H83.8388V334.155H57.9014V328.391H237.722L211.784 394.099Z" fill="black"/>
<path d="M628.99 10.2372H344.555V20.2614H628.99V10.2372Z" fill="black" stroke="black" stroke-width="1.25302" stroke-miterlimit="10"/>
<path d="M637.76 0.8396H628.989V29.659H637.76V0.8396Z" fill="white" stroke="black" stroke-width="1.25302" stroke-miterlimit="10"/>
<path d="M642.773 8.35767H637.761V22.1409H642.773V8.35767Z" fill="white" stroke="black" stroke-width="1.25302" stroke-miterlimit="10"/>
<path d="M335.784 29.446H344.555V0.626575H335.784V29.446Z" fill="white" stroke="black" stroke-width="1.25302" stroke-miterlimit="10"/>
<path d="M330.771 21.9279H335.783V8.14466H330.771V21.9279Z" fill="white" stroke="black" stroke-width="1.25302" stroke-miterlimit="10"/>
<path d="M360.844 40.7231V593.304V845.161L479.254 593.304H496.796L615.206 845.161V593.304V40.7231H360.844Z" fill="white" stroke="black" stroke-width="1.25302" stroke-linejoin="bevel"/>
<path d="M591.399 9.39771V31.952H557.568V9.39771H533.76V31.952H499.929V9.39771H476.121V31.952H442.29V9.39771H418.483V31.952H384.651V9.39771H360.844V40.7232H368.362H384.651H418.483H442.29H476.121H499.929H533.76H557.568H591.399H605.182H615.206V9.39771H591.399Z" fill="white" stroke="black" stroke-width="1.25302" stroke-miterlimit="10"/>
<path d="M602.676 53.2533H373.374V580.774H602.676V53.2533Z" stroke="black" stroke-width="1.25302" stroke-miterlimit="10"/>
<path d="M387.157 304.07V298.306H413.095V79.2785H387.157V73.5146H507.046C553.445 73.5146 572.466 94.2646 572.466 124.813C572.466 155.362 553.445 179.282 509.64 179.282C495.806 179.282 485.143 175.823 477.074 165.448C470.157 156.514 472.174 145.563 477.65 141.24C484.567 136.341 493.789 137.782 498.688 144.41C503.299 151.039 501.858 159.973 495.23 164.872C492.636 166.889 489.466 167.754 486.584 167.754C492.348 173.23 497.536 174.959 506.758 174.959C520.303 174.959 526.355 163.719 526.355 153.633C526.355 144.122 520.591 140.087 520.591 124.813C520.591 109.539 526.355 106.081 526.355 96.2819C526.355 86.4833 520.591 79.2785 504.164 79.2785H467.852V298.306H509.928C527.796 298.306 535.001 288.796 535.001 277.844C535.001 267.469 530.678 262.57 530.678 246.431C530.678 230.292 537.018 225.969 537.018 215.306C537.018 204.643 530.678 194.844 515.692 194.844C506.47 194.844 499.841 196.573 493.213 202.049C496.095 202.049 498.688 202.914 501.282 204.931C507.911 209.83 509.352 218.764 504.74 225.393C499.841 232.021 490.619 233.462 483.702 228.563C478.227 224.24 476.209 213.289 483.126 204.355C491.195 193.98 504.74 189.08 518.574 189.08C560.362 189.08 585.435 212.712 585.435 246.431C585.435 280.15 560.362 304.07 512.81 304.07H387.157Z" fill="black"/>
<path d="M541.328 394.099L522.307 350.005C517.408 338.766 513.085 334.155 503.863 334.155H468.127V440.21C483.978 439.922 499.828 429.835 513.662 403.321V485.169C500.117 457.214 483.978 447.127 468.127 446.839V553.182H513.085C522.307 553.182 527.207 547.995 531.53 537.332L553.432 484.592L580.811 558.946H387.433V553.182H413.37V334.155H387.433V328.391H567.266L541.328 394.099Z" fill="black"/>
</g>
<defs>
<clipPath id="clip0_63_255">
<rect width="642.798" height="845.424" fill="white" transform="translate(0.600586)"/>
</clipPath>
</defs>
</svg>
