<svg width="314" height="846" viewBox="0 0 314 846" fill="none" xmlns="http://www.w3.org/2000/svg">
<g clip-path="url(#clip0_63_685)">
<path d="M299.218 10.7682H14.7827V20.7924H299.218V10.7682Z" fill="black" stroke="black" stroke-width="1.25302" stroke-miterlimit="10"/>
<path d="M307.988 1.37061H299.217V30.19H307.988V1.37061Z" fill="white" stroke="black" stroke-width="1.25302" stroke-miterlimit="10"/>
<path d="M313.001 8.88873H307.989V22.6719H313.001V8.88873Z" fill="white" stroke="black" stroke-width="1.25302" stroke-miterlimit="10"/>
<path d="M6.01159 29.9771H14.7827L14.7827 1.15764H6.01159L6.01159 29.9771Z" fill="white" stroke="black" stroke-width="1.25302" stroke-miterlimit="10"/>
<path d="M0.999159 22.4589H6.01123L6.01123 8.67573H0.999159L0.999159 22.4589Z" fill="white" stroke="black" stroke-width="1.25302" stroke-miterlimit="10"/>
<path d="M31.0718 41.2542V593.835L158.253 845.692L285.434 593.835V41.2542H31.0718Z" fill="white" stroke="black" stroke-width="1.25302" stroke-miterlimit="10" stroke-linejoin="bevel"/>
<path d="M261.627 9.92877V32.4831H227.796V9.92877H203.988V32.4831H170.157V9.92877H146.349V32.4831H112.518V9.92877H88.7106V32.4831H54.8791V9.92877H31.0718V41.2542H38.5899H54.8791H88.7106H112.518H146.349H170.157H203.988H227.796H261.627H275.41H285.434V9.92877H261.627Z" fill="white" stroke="black" stroke-width="1.25302" stroke-miterlimit="10"/>
<path d="M272.228 53.1078H42.9253V580.628H272.228V53.1078Z" stroke="black" stroke-width="1.25302" stroke-miterlimit="10"/>
<path d="M74.0911 104.724H52.2385V103.721H56.7493V65.6297H52.2385V64.6273H73.0887C81.7094 64.6273 85.4685 68.6871 85.4685 74.7517C85.4685 79.5132 83.4637 83.3725 76.948 84.5252C83.9148 85.2269 86.4709 89.2867 86.4709 94.2988C86.4709 100.464 82.7119 104.724 74.0911 104.724ZM72.5875 65.6297H66.2723V84.1744H72.5875C75.8453 84.1744 77.1485 82.37 77.1485 80.4153C77.1485 78.5107 75.9456 77.7088 75.9456 74.7517C75.9456 71.8447 77.1485 71.0428 77.1485 69.1382C77.1485 67.1835 75.8453 65.6297 72.5875 65.6297ZM73.5899 103.721C76.8477 103.721 78.1509 101.917 78.1509 99.9624C78.1509 98.0578 76.948 97.2559 76.948 94.2988C76.948 91.3918 78.1509 90.5898 78.1509 88.6852C78.1509 86.7305 76.8477 85.1768 73.5899 85.1768H66.2723V103.721H73.5899ZM101.224 89.6877C101.224 94.0983 100.171 95.3513 100.171 98.2583C100.171 101.165 102.176 104.473 108.04 104.473C112.3 104.473 115.107 102.769 117.212 100.413C116.16 100.514 115.057 100.313 114.155 99.6116C112.25 98.2082 111.799 95.5518 113.202 93.6472C114.556 91.7426 117.262 91.2915 119.267 92.745C120.871 93.9479 121.472 97.1556 119.417 99.7619C117.713 101.917 114.155 105.476 108.04 105.476C97.9658 105.476 92.2019 99.2607 92.2019 89.6877C92.2019 80.1647 97.9658 73.8996 106.536 73.8996C116.711 73.8996 120.721 79.6635 120.721 88.6351H101.224V89.6877ZM100.171 81.0669C100.171 83.5228 100.873 84.7758 101.123 87.6327H111.699V83.5729C111.699 78.1098 110.496 74.902 106.035 74.902C101.675 74.902 100.171 78.1599 100.171 81.0669ZM150.427 74.6514V75.4033L134.538 103.721H142.558C143.76 103.721 144.262 103.07 144.963 101.667L148.171 95.1508L151.279 104.724H125.266V103.972L141.154 75.6539H134.689C133.486 75.6539 132.984 76.1049 132.283 77.5083L128.824 84.2746L126.018 74.6514H150.427ZM156.309 89.6877C156.309 80.1647 161.823 73.8996 171.396 73.8996C180.818 73.8996 186.332 80.1647 186.332 89.6877C186.332 99.2607 180.818 105.476 171.396 105.476C161.823 105.476 156.309 99.2607 156.309 89.6877ZM164.78 98.2583C164.78 101.165 166.033 104.473 171.396 104.473C176.608 104.473 177.861 101.215 177.861 98.2583C177.861 95.3513 176.809 94.1484 176.809 89.6877C176.809 85.2269 177.861 83.9739 177.861 81.0669C177.861 78.1098 176.608 74.902 171.396 74.902C166.033 74.902 164.78 78.1599 164.78 81.0669C164.78 84.024 165.832 85.277 165.832 89.6877C165.832 94.0983 164.78 95.3513 164.78 98.2583ZM209.838 80.6659C209.838 77.2577 208.133 74.902 204.525 74.902C201.317 74.902 198.961 75.9546 197.508 77.5083C197.758 77.4582 198.009 77.4582 198.26 77.4582C200.465 77.4582 202.269 79.2626 202.269 81.4679C202.269 83.6732 200.465 85.4775 198.26 85.4775C196.054 85.4775 194.25 83.6732 194.25 81.4679C194.25 77.4081 198.56 73.8996 205.026 73.8996C215.401 73.8996 218.859 79.6635 218.859 87.5325V101.667C218.859 103.12 219.21 103.721 220.062 103.721H221.616V104.724H218.408C212.143 104.724 210.339 102.519 209.838 98.6593L209.437 99.8622C208.685 102.067 206.129 105.476 200.665 105.476C195.854 105.476 192.345 103.22 192.345 97.707C192.345 92.3942 197.057 90.3392 201.668 88.3845L204.876 87.0313C208.534 85.4775 209.838 84.0741 209.838 80.6659ZM200.315 92.6949C200.315 94.5494 201.016 95.0506 201.016 97.3561C201.016 99.2607 200.465 100.063 200.515 101.165C200.615 103.07 201.818 103.872 203.522 103.872C206.88 103.872 209.838 99.8622 209.838 92.3942V84.826C209.537 85.3773 208.935 86.2293 207.332 86.9811L203.071 88.9359C200.866 89.9383 200.315 91.2915 200.315 92.6949ZM226.13 104.724V103.721H230.14V75.6539H225.629V74.6514H229.638C232.144 74.6514 234.751 74.6514 239.161 73.8996V80.0645L239.562 79.5132C241.016 77.4582 243.371 73.8996 248.083 73.8996C253.045 73.8996 254.699 77.0071 254.699 79.7638C254.699 82.2197 252.694 84.1744 250.238 84.1744C247.732 84.1744 245.677 82.2197 245.677 79.7638C245.677 78.3604 246.329 77.0572 247.381 76.2052C246.98 75.9045 246.429 75.7541 245.677 75.7541C243.321 75.7541 241.317 78.7112 240.264 80.265L239.161 81.8688V103.721H243.171V104.724H226.13Z" fill="black"/>
<path d="M105.667 148.58H83.8146V147.577H88.3255V109.485H83.8146V108.483H104.665C113.286 108.483 117.045 112.543 117.045 118.607C117.045 123.369 115.04 127.228 108.524 128.381C115.491 129.083 118.047 133.142 118.047 138.154C118.047 144.319 114.288 148.58 105.667 148.58ZM104.164 109.485H97.8484V128.03H104.164C107.421 128.03 108.725 126.226 108.725 124.271C108.725 122.366 107.522 121.565 107.522 118.607C107.522 115.7 108.725 114.898 108.725 112.994C108.725 111.039 107.421 109.485 104.164 109.485ZM105.166 147.577C108.424 147.577 109.727 145.773 109.727 143.818C109.727 141.914 108.524 141.112 108.524 138.154C108.524 135.247 109.727 134.446 109.727 132.541C109.727 130.586 108.424 129.033 105.166 129.033H97.8484V147.577H105.166ZM123.815 128.531C123.815 116.051 130.03 107.731 141.658 107.731C153.136 107.731 159.351 116.051 159.351 128.531C159.351 141.112 153.136 149.331 141.658 149.331C130.03 149.331 123.815 141.112 123.815 128.531ZM133.288 140.059C133.238 144.019 134.792 148.379 141.658 148.329C148.425 148.329 149.928 144.069 149.928 140.059C149.928 136.2 148.575 134.496 148.575 128.531C148.575 122.567 149.928 120.863 149.928 117.004C149.928 112.994 148.374 108.683 141.658 108.734C134.792 108.784 133.238 113.044 133.288 117.004C133.238 120.913 134.591 122.617 134.591 128.531C134.591 134.446 133.238 136.15 133.288 140.059ZM181.908 108.483V109.485H177.397V147.577H184.214C185.818 147.577 186.67 146.675 187.422 144.821L191.231 135.648L195.992 148.58H163.364V147.577H167.875V109.485H163.364V108.483H181.908ZM219.61 148.58H200.012V147.577H204.523V109.485H200.012V108.483H219.61C230.135 108.483 237.252 116.502 237.252 128.531C237.252 140.61 230.135 148.58 219.61 148.58ZM219.108 109.485H214.046V147.577H219.108C225.574 147.577 228.03 143.467 228.03 139.608C228.03 135.899 226.476 134.245 226.476 128.531C226.476 122.767 228.03 121.113 228.03 117.405C228.03 113.545 225.574 109.485 219.108 109.485Z" fill="black"/>
</g>
<defs>
<clipPath id="clip0_63_685">
<rect width="313.254" height="845.449" fill="white" transform="translate(0.372559 0.53125)"/>
</clipPath>
</defs>
</svg>
