<svg width="561" height="837" viewBox="0 0 561 837" fill="none" xmlns="http://www.w3.org/2000/svg">
<g clip-path="url(#clip0_63_300)">
<mask id="mask0_63_300" style="mask-type:luminance" maskUnits="userSpaceOnUse" x="-48" y="0" width="582" height="820">
<path d="M-6.66917 535.057C-14.8764 534.944 -27.4442 531.912 -35.2004 534.593C-45.6255 538.202 -46.0641 549.429 -47.0038 558.626C-48.5576 573.85 -46.44 593.498 -41.0144 607.857C-35.8144 621.603 -23.4972 644.458 -8.5487 649.307C-6.26821 650.046 -6.93231 648.756 -5.30339 649.019C7.23932 651.074 5.28461 649.257 22.689 655.572V531.198C13.3916 534.318 4.19449 535.195 -6.66917 535.057ZM22.6765 0.582153V531.185C26.5859 529.869 30.4953 528.153 34.5676 525.948C55.1923 514.708 70.3789 498.757 84.1245 479.962C96.0156 463.685 114.974 449.188 132.215 439.389C143.919 432.748 156.925 434.615 167.525 441.895C179.579 450.165 192.648 455.465 205.367 461.066C220.115 467.557 233.058 475.752 249.347 473.434C264.02 471.341 279.257 472.331 294.005 470.99C303.44 470.138 314.692 466.73 324.115 467.131C333.137 467.507 343.812 473.521 352.02 476.616C361.054 480.037 370.038 483.621 379.11 486.941C374.085 485.011 392.705 491.038 392.693 491.026C401.301 497.166 408.669 513.405 415.773 522.577C421.926 530.521 428.404 538.252 433.328 547.111C437.3 554.266 437.989 559.278 443.177 566.32C454.366 581.494 464.904 596.893 475.079 612.769C479.74 620.037 484.351 627.417 489.351 634.471C491.669 637.742 492.596 640.223 492.934 639.797C493.009 639.458 493.072 639.12 493.097 638.769C493.009 641.451 492.671 644.871 493.059 639.371C493.034 639.596 492.997 639.734 492.947 639.809C491.681 645.448 483.762 648.067 481.056 653.492C478.499 658.63 479.452 664.494 477.672 669.719C475.83 675.119 471.395 680.858 468.087 685.432C459.579 697.172 448.678 704.327 435.771 710.805C425.785 715.83 410.962 725.227 399.622 726.543C397.429 726.794 394.384 725.942 392.217 725.641C377.957 723.724 363.823 720.792 349.589 718.787C331.295 716.206 313.352 714.364 294.907 714.339C241.666 714.239 189.34 698.25 136.05 698.701C124.021 698.801 124.133 699.766 112.906 695.055C83.3978 682.662 55.067 667.488 24.9821 656.424C24.1676 656.123 23.4158 655.848 22.6765 655.585V819.479H533.945V0.582153H22.6765Z" fill="white"/>
</mask>
<g mask="url(#mask0_63_300)">
<path d="M155.321 448.047L176.309 550.469C191.421 623.507 214.927 680.595 293.003 680.595C366.041 680.595 408.857 625.186 408.857 558.864C408.857 484.986 371.078 447.208 306.435 416.145L224.162 376.688C141.049 337.23 83.1223 271.748 83.1223 183.598C83.1223 57.6695 198.976 0.582031 303.077 0.582031C385.35 0.582031 411.375 13.1749 464.265 13.1749C483.574 13.1749 510.439 10.6563 532.267 4.77964L455.031 215.5L388.708 83.6947C365.202 37.521 334.979 17.3725 286.287 17.3725C204.853 17.3725 178.828 72.7809 178.828 113.917C178.828 168.486 217.446 200.388 265.299 223.895L398.783 289.378C511.279 344.786 533.946 425.38 533.946 473.233C533.946 615.952 413.054 697.385 284.608 697.385C184.704 697.385 79.7643 652.891 22.6768 613.433L155.321 448.047Z" fill="black"/>
</g>
<mask id="mask1_63_300" style="mask-type:luminance" maskUnits="userSpaceOnUse" x="-48" y="0" width="582" height="820">
<path d="M-6.66917 535.057C-14.8764 534.944 -27.4442 531.912 -35.2004 534.593C-45.6255 538.202 -46.0641 549.429 -47.0038 558.626C-48.5576 573.85 -46.44 593.498 -41.0144 607.857C-35.8144 621.603 -23.4972 644.458 -8.5487 649.307C-6.26821 650.046 -6.93231 648.756 -5.30339 649.019C7.23932 651.074 5.28461 649.257 22.689 655.572V531.198C13.3916 534.318 4.19449 535.195 -6.66917 535.057ZM22.6765 0.582153V531.185C26.5859 529.869 30.4953 528.153 34.5676 525.948C55.1923 514.708 70.3789 498.757 84.1245 479.962C96.0156 463.685 114.974 449.188 132.215 439.389C143.919 432.748 156.925 434.615 167.525 441.895C179.579 450.165 192.648 455.465 205.367 461.066C220.115 467.557 233.058 475.752 249.347 473.434C264.02 471.341 279.257 472.331 294.005 470.99C303.44 470.138 314.692 466.73 324.115 467.131C333.137 467.507 343.812 473.521 352.02 476.616C361.054 480.037 370.038 483.621 379.11 486.941C374.085 485.011 392.705 491.038 392.693 491.026C401.301 497.166 408.669 513.405 415.773 522.577C421.926 530.521 428.404 538.252 433.328 547.111C437.3 554.266 437.989 559.278 443.177 566.32C454.366 581.494 464.904 596.893 475.079 612.769C479.74 620.037 484.351 627.417 489.351 634.471C491.669 637.742 492.596 640.223 492.934 639.797C493.009 639.458 493.072 639.12 493.097 638.769C493.009 641.451 492.671 644.871 493.059 639.371C493.034 639.596 492.997 639.734 492.947 639.809C491.681 645.448 483.762 648.067 481.056 653.492C478.499 658.63 479.452 664.494 477.672 669.719C475.83 675.119 471.395 680.858 468.087 685.432C459.579 697.172 448.678 704.327 435.771 710.805C425.785 715.83 410.962 725.227 399.622 726.543C397.429 726.794 394.384 725.942 392.217 725.641C377.957 723.724 363.823 720.792 349.589 718.787C331.295 716.206 313.352 714.364 294.907 714.339C241.666 714.239 189.34 698.25 136.05 698.701C124.021 698.801 124.133 699.766 112.906 695.055C83.3978 682.662 55.067 667.488 24.9821 656.424C24.1676 656.123 23.4158 655.848 22.6765 655.585V819.479H533.945V0.582153H22.6765Z" fill="white"/>
</mask>
<g mask="url(#mask1_63_300)">
<mask id="mask2_63_300" style="mask-type:luminance" maskUnits="userSpaceOnUse" x="121" y="291" width="349" height="528">
<path d="M255.414 291.57L258.684 367.641C258.684 367.641 260.25 393.478 250.853 408.352C241.455 423.225 142.028 573.55 142.028 573.55C142.028 573.55 121.667 600.953 121.667 618.959C121.667 636.965 142.805 683.94 157.678 712.133C172.552 740.314 202.311 779.471 202.311 779.471C202.311 779.471 199.266 786.512 199.178 790.434C199.028 796.574 202.311 802.175 208.576 805.308C214.841 808.44 246.492 818.803 295.823 818.803C295.823 818.803 348.588 820.056 382.257 805.182C388.66 802.351 391.654 797.351 391.654 790.309C391.654 786.4 388.522 779.345 388.522 779.345C388.522 779.345 418.268 740.201 433.154 712.008C448.028 683.828 469.166 636.839 469.166 618.834C469.166 600.828 448.804 573.424 448.804 573.424C448.804 573.424 349.365 423.1 339.98 408.226C330.582 393.353 332.148 367.516 332.148 367.516L335.281 291.57" fill="white"/>
</mask>
<g mask="url(#mask2_63_300)">
<path d="M560.435 279.717H-94.8804V651.061H560.435V279.717Z" fill="white"/>
<path d="M92.4959 453.661C111.492 453.661 126.891 438.261 126.891 419.265C126.891 400.269 111.492 384.87 92.4959 384.87C73.4999 384.87 58.1006 400.269 58.1006 419.265C58.1006 438.261 73.4999 453.661 92.4959 453.661Z" fill="#E3E3E3"/>
<path d="M185.207 453.661C204.203 453.661 219.602 438.261 219.602 419.265C219.602 400.269 204.203 384.87 185.207 384.87C166.211 384.87 150.812 400.269 150.812 419.265C150.812 438.261 166.211 453.661 185.207 453.661Z" fill="#E3E3E3"/>
<path d="M277.93 453.661C296.926 453.661 312.325 438.261 312.325 419.265C312.325 400.269 296.926 384.87 277.93 384.87C258.934 384.87 243.535 400.269 243.535 419.265C243.535 438.261 258.934 453.661 277.93 453.661Z" fill="#E3E3E3"/>
<path d="M370.641 453.661C389.637 453.661 405.036 438.261 405.036 419.265C405.036 400.269 389.637 384.87 370.641 384.87C351.645 384.87 336.246 400.269 336.246 419.265C336.246 438.261 351.645 453.661 370.641 453.661Z" fill="#E3E3E3"/>
<path d="M463.352 453.661C482.348 453.661 497.747 438.261 497.747 419.265C497.747 400.269 482.348 384.87 463.352 384.87C444.356 384.87 428.957 400.269 428.957 419.265C428.957 438.261 444.356 453.661 463.352 453.661Z" fill="#E3E3E3"/>
<path d="M92.4959 638.13C111.492 638.13 126.891 622.731 126.891 603.735C126.891 584.739 111.492 569.339 92.4959 569.339C73.4999 569.339 58.1006 584.739 58.1006 603.735C58.1006 622.731 73.4999 638.13 92.4959 638.13Z" fill="#E3E3E3"/>
<path d="M185.207 638.13C204.203 638.13 219.602 622.731 219.602 603.735C219.602 584.739 204.203 569.339 185.207 569.339C166.211 569.339 150.812 584.739 150.812 603.735C150.812 622.731 166.211 638.13 185.207 638.13Z" fill="#E3E3E3"/>
<path d="M277.93 638.13C296.926 638.13 312.325 622.731 312.325 603.735C312.325 584.739 296.926 569.339 277.93 569.339C258.934 569.339 243.535 584.739 243.535 603.735C243.535 622.731 258.934 638.13 277.93 638.13Z" fill="#E3E3E3"/>
<path d="M370.641 638.13C389.637 638.13 405.036 622.731 405.036 603.735C405.036 584.739 389.637 569.339 370.641 569.339C351.645 569.339 336.246 584.739 336.246 603.735C336.246 622.731 351.645 638.13 370.641 638.13Z" fill="#E3E3E3"/>
<path d="M463.352 638.13C482.348 638.13 497.747 622.731 497.747 603.735C497.747 584.739 482.348 569.339 463.352 569.339C444.356 569.339 428.957 584.739 428.957 603.735C428.957 622.731 444.356 638.13 463.352 638.13Z" fill="#E3E3E3"/>
<path d="M139.334 545.895C158.33 545.895 173.73 530.496 173.73 511.5C173.73 492.504 158.33 477.104 139.334 477.104C120.338 477.104 104.939 492.504 104.939 511.5C104.939 530.496 120.338 545.895 139.334 545.895Z" fill="#E3E3E3"/>
<path d="M232.784 545.895C251.781 545.895 267.18 530.496 267.18 511.5C267.18 492.504 251.781 477.104 232.784 477.104C213.788 477.104 198.389 492.504 198.389 511.5C198.389 530.496 213.788 545.895 232.784 545.895Z" fill="#E3E3E3"/>
<path d="M326.222 545.895C345.218 545.895 360.617 530.496 360.617 511.5C360.617 492.504 345.218 477.104 326.222 477.104C307.226 477.104 291.827 492.504 291.827 511.5C291.827 530.496 307.226 545.895 326.222 545.895Z" fill="#E3E3E3"/>
<path d="M419.672 545.895C438.668 545.895 454.067 530.496 454.067 511.5C454.067 492.504 438.668 477.104 419.672 477.104C400.676 477.104 385.276 492.504 385.276 511.5C385.276 530.496 400.676 545.895 419.672 545.895Z" fill="#E3E3E3"/>
<path d="M139.334 361.439C158.33 361.439 173.73 346.039 173.73 327.043C173.73 308.047 158.33 292.648 139.334 292.648C120.338 292.648 104.939 308.047 104.939 327.043C104.939 346.039 120.338 361.439 139.334 361.439Z" fill="#E3E3E3"/>
<path d="M232.784 361.439C251.781 361.439 267.18 346.039 267.18 327.043C267.18 308.047 251.781 292.648 232.784 292.648C213.788 292.648 198.389 308.047 198.389 327.043C198.389 346.039 213.788 361.439 232.784 361.439Z" fill="#E3E3E3"/>
<path d="M326.222 361.439C345.218 361.439 360.617 346.039 360.617 327.043C360.617 308.047 345.218 292.648 326.222 292.648C307.226 292.648 291.827 308.047 291.827 327.043C291.827 346.039 307.226 361.439 326.222 361.439Z" fill="#E3E3E3"/>
<path d="M419.672 361.439C438.668 361.439 454.067 346.039 454.067 327.043C454.067 308.047 438.668 292.648 419.672 292.648C400.676 292.648 385.276 308.047 385.276 327.043C385.276 346.039 400.676 361.439 419.672 361.439Z" fill="#E3E3E3"/>
</g>
<mask id="mask3_63_300" style="mask-type:luminance" maskUnits="userSpaceOnUse" x="121" y="291" width="349" height="528">
<path d="M255.414 291.57L258.684 367.641C258.684 367.641 260.25 393.478 250.853 408.352C241.455 423.225 142.028 573.55 142.028 573.55C142.028 573.55 121.667 600.953 121.667 618.959C121.667 636.965 142.805 683.94 157.678 712.133C172.552 740.314 202.311 779.471 202.311 779.471C202.311 779.471 199.266 786.512 199.178 790.434C199.028 796.574 202.311 802.175 208.576 805.308C214.841 808.44 246.492 818.803 295.823 818.803C295.823 818.803 348.588 820.056 382.257 805.182C388.66 802.351 391.654 797.351 391.654 790.309C391.654 786.4 388.522 779.345 388.522 779.345C388.522 779.345 418.268 740.201 433.154 712.008C448.028 683.828 469.166 636.839 469.166 618.834C469.166 600.828 448.804 573.424 448.804 573.424C448.804 573.424 349.365 423.1 339.98 408.226C330.582 393.353 332.148 367.516 332.148 367.516L335.281 291.57" fill="white"/>
</mask>
<g mask="url(#mask3_63_300)">
<path d="M560.435 651.061H-94.8804V1022.41H560.435V651.061Z" fill="white"/>
<path d="M92.4959 825.018C111.492 825.018 126.891 809.619 126.891 790.623C126.891 771.627 111.492 756.227 92.4959 756.227C73.4999 756.227 58.1006 771.627 58.1006 790.623C58.1006 809.619 73.4999 825.018 92.4959 825.018Z" fill="#E3E3E3"/>
<path d="M185.207 825.018C204.203 825.018 219.602 809.619 219.602 790.623C219.602 771.627 204.203 756.227 185.207 756.227C166.211 756.227 150.812 771.627 150.812 790.623C150.812 809.619 166.211 825.018 185.207 825.018Z" fill="#E3E3E3"/>
<path d="M277.93 825.018C296.926 825.018 312.325 809.619 312.325 790.623C312.325 771.627 296.926 756.227 277.93 756.227C258.934 756.227 243.535 771.627 243.535 790.623C243.535 809.619 258.934 825.018 277.93 825.018Z" fill="#E3E3E3"/>
<path d="M370.641 825.018C389.637 825.018 405.036 809.619 405.036 790.623C405.036 771.627 389.637 756.227 370.641 756.227C351.645 756.227 336.246 771.627 336.246 790.623C336.246 809.619 351.645 825.018 370.641 825.018Z" fill="#E3E3E3"/>
<path d="M463.352 825.018C482.348 825.018 497.747 809.619 497.747 790.623C497.747 771.627 482.348 756.227 463.352 756.227C444.356 756.227 428.957 771.627 428.957 790.623C428.957 809.619 444.356 825.018 463.352 825.018Z" fill="#E3E3E3"/>
<path d="M139.334 732.783C158.33 732.783 173.73 717.384 173.73 698.388C173.73 679.392 158.33 663.992 139.334 663.992C120.338 663.992 104.939 679.392 104.939 698.388C104.939 717.384 120.338 732.783 139.334 732.783Z" fill="#E3E3E3"/>
<path d="M232.784 732.783C251.781 732.783 267.18 717.384 267.18 698.388C267.18 679.392 251.781 663.992 232.784 663.992C213.788 663.992 198.389 679.392 198.389 698.388C198.389 717.384 213.788 732.783 232.784 732.783Z" fill="#E3E3E3"/>
<path d="M326.222 732.783C345.218 732.783 360.617 717.384 360.617 698.388C360.617 679.392 345.218 663.992 326.222 663.992C307.226 663.992 291.827 679.392 291.827 698.388C291.827 717.384 307.226 732.783 326.222 732.783Z" fill="#E3E3E3"/>
<path d="M419.672 732.783C438.668 732.783 454.067 717.384 454.067 698.388C454.067 679.392 438.668 663.992 419.672 663.992C400.676 663.992 385.276 679.392 385.276 698.388C385.276 717.384 400.676 732.783 419.672 732.783Z" fill="#E3E3E3"/>
</g>
<path d="M298.542 819.442C296.838 819.442 295.873 819.417 295.798 819.417C245.689 819.417 214.038 808.716 208.299 805.846C202.047 802.714 198.401 796.938 198.563 790.397C198.651 786.851 200.994 781.012 201.608 779.533C198.864 775.887 171.21 739.036 157.139 712.409C142.629 684.918 121.052 637.341 121.052 618.946C121.052 600.94 140.699 574.289 141.526 573.161C142.503 571.683 241.041 422.699 250.326 408.001C259.51 393.466 258.082 367.917 258.057 367.654L254.774 291.57L256.027 291.52L259.31 367.591C259.372 368.644 260.776 393.792 251.378 408.665C242.081 423.375 143.543 572.372 142.541 573.875C142.315 574.176 122.292 601.341 122.292 618.946C122.292 637.115 143.781 684.442 158.229 711.82C172.914 739.637 202.498 778.681 202.799 779.069L203.024 779.358L202.874 779.696C202.849 779.759 199.879 786.675 199.791 790.422C199.641 796.562 202.949 801.774 208.838 804.719C214.514 807.551 245.902 818.151 295.785 818.151C296.324 818.164 348.813 819.229 381.968 804.581C388.032 801.9 390.989 797.213 390.989 790.271C390.989 786.537 387.945 779.633 387.907 779.571L387.757 779.232L387.982 778.932C388.283 778.543 417.879 739.499 432.552 711.682C446.999 684.304 468.489 636.977 468.489 618.809C468.489 601.216 448.453 574.038 448.252 573.775C447.237 572.246 348.688 423.25 339.39 408.54C329.992 393.666 331.396 368.518 331.459 367.453L334.591 291.52L335.844 291.57L332.712 367.516C332.699 367.779 331.271 393.34 340.443 407.875C349.728 422.573 448.265 571.557 449.267 573.061C450.082 574.164 469.729 600.815 469.729 618.821C469.729 637.228 448.152 684.805 433.642 712.284C419.583 738.91 391.942 775.749 389.185 779.408C389.824 780.886 392.217 786.738 392.217 790.284C392.217 797.677 388.934 802.864 382.444 805.734C353.487 818.577 309.844 819.442 298.542 819.442Z" fill="black"/>
<path d="M339.98 243.028C339.98 243.028 340.757 232.065 354.076 214.848C359.251 208.144 367.383 203.107 367.383 203.107C366.544 202.105 360.943 195.702 350.856 199.01C342.348 201.804 323.615 221.389 318.127 226.651C314.919 229.721 312.576 231.288 293.004 231.288C269.51 231.288 242.896 231.288 242.896 231.288V242.84L229.589 262.613L244.462 279.053H340.769L339.98 243.028Z" fill="white"/>
<path d="M341.395 279.667H244.174L243.986 279.466L228.787 262.663L242.269 242.653V230.661H293.004C312.187 230.661 314.556 229.208 317.701 226.201C318.528 225.411 319.655 224.283 320.996 222.955C328.79 215.224 343.287 200.839 350.655 198.421C360.567 195.163 366.33 200.877 367.859 202.706L368.323 203.258L367.709 203.634C367.634 203.684 359.614 208.696 354.565 215.224C341.821 231.714 340.656 242.452 340.606 243.041L341.395 279.667ZM244.738 278.414H340.117L339.353 243.003V242.978C339.39 242.527 340.305 231.626 353.575 214.46C357.985 208.746 364.401 204.298 366.418 202.97C364.501 200.952 359.376 196.855 351.044 199.599C343.964 201.93 329.041 216.728 321.873 223.832C320.52 225.173 319.392 226.301 318.553 227.09C315.17 230.335 312.664 231.902 292.991 231.902H243.51V243.016L243.409 243.179L230.365 262.538L244.738 278.414Z" fill="black"/>
<path d="M302.552 231.275L299.97 232.19C297.339 233.117 294.47 233.117 291.826 232.19L289.245 231.275V215.224C289.245 211.553 292.227 208.57 295.898 208.57C299.569 208.57 302.552 211.553 302.552 215.224V231.275Z" fill="white"/>
<path d="M295.898 233.518C294.445 233.518 293.004 233.28 291.613 232.791L288.605 231.726V215.236C288.605 211.227 291.876 207.956 295.885 207.956C299.895 207.956 303.166 211.227 303.166 215.236V231.726L300.158 232.791C298.793 233.267 297.352 233.518 295.898 233.518ZM289.871 230.837L292.039 231.601C294.532 232.478 297.276 232.478 299.757 231.601L301.925 230.837V215.224C301.925 211.903 299.219 209.197 295.898 209.197C292.578 209.197 289.871 211.903 289.871 215.224V230.837Z" fill="black"/>
<path d="M131.928 290.593L131.49 289.415C131.552 289.39 137.567 287.072 140.549 281.108C143.531 275.156 142.09 269.868 142.078 269.818L143.281 269.48C143.343 269.718 144.872 275.269 141.677 281.672C138.469 288.075 132.191 290.493 131.928 290.593Z" fill="black"/>
<path d="M298.479 795.785C250.388 795.785 214.088 784.132 213.725 784.006L214.114 782.816C214.477 782.929 250.601 794.532 298.479 794.532C351.758 794.532 373.961 785.284 374.174 785.184L374.663 786.337C374.45 786.425 352.058 795.785 298.479 795.785Z" fill="black"/>
<path d="M294.57 403.377C280.536 403.377 263.996 397.914 263.833 397.864L264.234 396.674C264.397 396.724 280.749 402.124 294.57 402.124C308.353 402.124 323.126 395.208 323.277 395.132L323.815 396.26C323.653 396.335 308.641 403.377 294.57 403.377Z" fill="black"/>
<path d="M245.238 243.805L342.322 243.028C342.322 243.028 348.813 253.203 348.813 261.824C348.813 270.444 343.212 279.053 343.212 279.053" fill="white"/>
<path d="M343.751 279.379L342.698 278.702C342.748 278.614 348.199 270.144 348.199 261.824C348.199 254.293 343.024 245.384 341.984 243.668L245.251 244.444L245.238 243.191L342.673 242.402L342.861 242.69C343.124 243.116 349.452 253.128 349.452 261.811C349.439 270.507 343.976 279.028 343.751 279.379Z" fill="black"/>
<path d="M338.889 261.185H251.503V262.438H338.889V261.185Z" fill="black"/>
<path d="M242.106 292.347L346.846 292.673L347.021 278.263H242.106V292.347Z" fill="white"/>
<path d="M347.46 293.3H346.833L241.479 292.974V277.624H347.648L347.46 293.3ZM242.733 291.721L346.219 292.034L346.382 278.877H242.733V291.721Z" fill="black"/>
<path d="M246.805 278.263L246.655 278.464C243.523 282.586 243.585 288.3 246.805 292.36L237.796 312.621L235.052 318.974L229.576 313.498C229.576 313.498 226.444 268.866 195.908 268.866C165.372 268.866 166.161 307.233 166.161 307.233C166.161 307.233 166.161 340.112 201.396 387.877C229.489 425.957 234.275 465.389 234.275 473.22C234.275 481.052 220.179 497.491 212.347 499.835C212.347 499.835 211.984 511.826 206.872 520.196C198.264 534.292 175.972 536.924 175.972 536.924L181.987 505.285C188.352 484.41 203.413 467.294 223.324 458.347C223.324 458.347 211.671 464.261 207.661 459.124C200.156 449.526 205.318 430.154 202.962 423.112C200.619 416.07 148.945 340.125 148.945 340.125C148.945 340.125 134.071 308.023 134.071 299.414C134.071 290.806 130.939 283.551 134.071 274.655C137.204 265.758 147.378 264.969 147.378 264.969C147.378 264.969 156.776 257.137 170.873 250.096C180.621 245.221 196.021 240.197 200.619 238.355C208.451 235.222 204.529 229.746 204.529 225.825C204.529 219.559 213.099 217.216 221.758 217.216C235.065 217.216 245.252 231.313 245.252 231.313C242.483 234.821 242.382 239.746 245.026 243.342L245.252 243.642L244.675 244.469C237.207 255.057 238.11 268.64 246.805 278.263Z" fill="white"/>
<path d="M175.195 537.638L181.36 505.16C186.986 486.715 199.291 471.216 215.693 461.567C212.473 462.144 209.077 461.956 207.16 459.5C202.261 453.222 202.599 442.922 202.887 434.653C203.05 429.891 203.188 425.769 202.361 423.3C200.068 416.421 148.932 341.228 148.418 340.463C147.754 339.06 133.432 308.048 133.432 299.402C133.432 296.532 133.069 293.763 132.731 291.094C132.016 285.619 131.352 280.456 133.47 274.429C136.452 265.959 145.624 264.53 147.115 264.355C148.381 263.327 157.528 256.047 170.572 249.519C177.726 245.936 187.901 242.289 194.642 239.871C197.161 238.969 199.153 238.255 200.381 237.766C205.832 235.586 205.13 232.39 204.378 229.007C204.128 227.892 203.902 226.827 203.902 225.825C203.902 219.008 213.124 216.59 221.757 216.59C235.227 216.59 245.327 230.361 245.753 230.937L246.028 231.325L245.728 231.701C243.134 234.972 243.046 239.608 245.527 242.978L246.016 243.642L245.176 244.845C237.921 255.195 238.761 268.477 247.281 277.875L247.632 278.263L247.169 278.877C244.212 282.774 244.262 288.175 247.319 291.996L247.557 292.297L238.398 312.909L235.29 320.114L228.987 313.811L228.975 313.573C228.95 313.135 225.529 269.53 195.933 269.53C188.277 269.53 181.962 272.011 177.175 276.898C166.537 287.761 166.8 307.058 166.8 307.258C166.8 307.597 167.226 340.526 201.91 387.539C233.498 430.355 234.914 472.845 234.914 473.258C234.914 480.388 222.158 497.191 212.974 500.336C212.849 502.616 212.072 512.954 207.423 520.559C198.752 534.744 176.987 537.475 176.06 537.588L175.195 537.638ZM222.221 459.525C203.15 468.559 188.753 485.224 182.588 505.448L176.762 536.159C180.897 535.495 198.94 531.974 206.345 519.845C211.307 511.713 211.733 499.91 211.733 499.797L211.746 499.346L212.172 499.221C219.377 497.053 233.649 480.876 233.649 473.195C233.649 472.794 232.245 430.731 200.882 388.228C165.936 340.852 165.522 307.546 165.522 307.208C165.51 306.406 165.246 287.197 176.248 275.958C181.285 270.82 187.888 268.214 195.895 268.214C225.491 268.214 229.852 309.651 230.165 313.185L234.826 317.846L237.207 312.333L246.066 292.41C242.946 288.225 242.908 282.499 245.978 278.263C237.383 268.44 236.631 254.757 244.124 244.056L244.45 243.592C241.793 239.909 241.806 234.921 244.437 231.25C242.733 229.057 233.373 217.78 221.732 217.78C213.713 217.78 205.13 219.873 205.13 225.762C205.13 226.639 205.343 227.629 205.581 228.681C206.333 232.077 207.26 236.3 200.82 238.868C199.567 239.37 197.574 240.084 195.043 240.999C188.34 243.404 178.203 247.051 171.111 250.597C157.252 257.526 147.842 265.32 147.742 265.395L147.591 265.52L147.391 265.533C147.291 265.545 137.58 266.397 134.623 274.805C132.605 280.556 133.257 285.581 133.946 290.894C134.297 293.6 134.66 296.407 134.66 299.364C134.66 307.747 149.333 339.498 149.483 339.812C151.538 342.831 201.183 415.82 203.526 422.874C204.416 425.556 204.278 429.778 204.115 434.665C203.839 442.734 203.501 452.796 208.125 458.71C211.069 462.47 218.876 459.575 221.845 458.284C222.246 458.096 222.635 457.921 223.036 457.733L223.574 458.861C223.512 458.936 222.998 459.187 222.221 459.525Z" fill="black"/>
</g>
<mask id="mask4_63_300" style="mask-type:luminance" maskUnits="userSpaceOnUse" x="-48" y="0" width="582" height="820">
<path d="M-6.66917 535.057C-14.8764 534.944 -27.4442 531.912 -35.2004 534.593C-45.6255 538.202 -46.0641 549.429 -47.0038 558.626C-48.5576 573.85 -46.44 593.498 -41.0144 607.857C-35.8144 621.603 -23.4972 644.458 -8.5487 649.307C-6.26821 650.046 -6.93231 648.756 -5.30339 649.019C7.23932 651.074 5.28461 649.257 22.689 655.572V531.198C13.3916 534.318 4.19449 535.195 -6.66917 535.057ZM22.6765 0.582153V531.185C26.5859 529.869 30.4953 528.153 34.5676 525.948C55.1923 514.708 70.3789 498.757 84.1245 479.962C96.0156 463.685 114.974 449.188 132.215 439.389C143.919 432.748 156.925 434.615 167.525 441.895C179.579 450.165 192.648 455.465 205.367 461.066C220.115 467.557 233.058 475.752 249.347 473.434C264.02 471.341 279.257 472.331 294.005 470.99C303.44 470.138 314.692 466.73 324.115 467.131C333.137 467.507 343.812 473.521 352.02 476.616C361.054 480.037 370.038 483.621 379.11 486.941C374.085 485.011 392.705 491.038 392.693 491.026C401.301 497.166 408.669 513.405 415.773 522.577C421.926 530.521 428.404 538.252 433.328 547.111C437.3 554.266 437.989 559.278 443.177 566.32C454.366 581.494 464.904 596.893 475.079 612.769C479.74 620.037 484.351 627.417 489.351 634.471C491.669 637.742 492.596 640.223 492.934 639.797C493.009 639.458 493.072 639.12 493.097 638.769C493.009 641.451 492.671 644.871 493.059 639.371C493.034 639.596 492.997 639.734 492.947 639.809C491.681 645.448 483.762 648.067 481.056 653.492C478.499 658.63 479.452 664.494 477.672 669.719C475.83 675.119 471.395 680.858 468.087 685.432C459.579 697.172 448.678 704.327 435.771 710.805C425.785 715.83 410.962 725.227 399.622 726.543C397.429 726.794 394.384 725.942 392.217 725.641C377.957 723.724 363.823 720.792 349.589 718.787C331.295 716.206 313.352 714.364 294.907 714.339C241.666 714.239 189.34 698.25 136.05 698.701C124.021 698.801 124.133 699.766 112.906 695.055C83.3978 682.662 55.067 667.488 24.9821 656.424C24.1676 656.123 23.4158 655.848 22.6765 655.585V819.479H533.945V0.582153H22.6765Z" fill="white"/>
</mask>
<g mask="url(#mask4_63_300)">
<path d="M447.575 568.988C445.182 565.53 442.751 562.097 440.283 558.676C439.706 557.887 438.616 557.411 437.714 557.999C436.925 558.513 436.423 559.716 437.037 560.568C439.506 563.976 441.924 567.422 444.33 570.881C444.894 571.682 446.009 572.134 446.899 571.557C447.7 571.043 448.177 569.853 447.575 568.988Z" fill="black"/>
</g>
<mask id="mask5_63_300" style="mask-type:luminance" maskUnits="userSpaceOnUse" x="-48" y="435" width="542" height="292">
<path d="M493.097 638.769C493.01 641.551 492.308 638.644 489.351 634.484C484.351 627.429 479.74 620.049 475.079 612.782C464.904 596.906 454.367 581.506 443.177 566.332C437.977 559.29 437.3 554.278 433.328 547.123C428.404 538.252 421.926 530.533 415.774 522.589C408.669 513.417 401.301 497.166 392.693 491.038C392.706 491.038 370.69 483.921 380.952 487.643C371.254 484.134 361.668 480.275 352.02 476.629C343.813 473.521 333.137 467.519 324.115 467.143C314.693 466.742 303.441 470.151 294.005 471.003C279.257 472.331 264.033 471.353 249.348 473.446C233.071 475.764 220.115 467.569 205.367 461.079C192.649 455.478 179.58 450.177 167.526 441.907C156.913 434.627 143.919 432.76 132.216 439.401C114.974 449.2 96.016 463.685 84.1248 479.974C70.3917 498.769 55.1926 514.733 34.568 525.96C20.8474 533.44 8.76832 535.27 -6.68139 535.069C-14.8887 534.957 -27.4564 531.924 -35.2126 534.606C-45.6377 538.214 -46.0763 549.441 -47.016 558.639C-48.5698 573.863 -46.4522 593.51 -41.0266 607.87C-35.8266 621.615 -23.5094 644.47 -8.56091 649.32C-6.28042 650.059 -6.94452 648.768 -5.31559 649.031C7.75338 651.174 5.05939 649.107 24.9824 656.424C55.0673 667.476 83.3981 682.662 112.907 695.055C124.134 699.766 124.021 698.801 136.05 698.701C189.341 698.25 241.654 714.238 294.907 714.339C313.352 714.376 331.283 716.206 349.589 718.787C363.823 720.792 377.958 723.724 392.217 725.641C394.397 725.929 397.429 726.794 399.622 726.543C410.962 725.227 425.785 715.83 435.772 710.805C448.678 704.315 459.567 697.172 468.087 685.432C471.395 680.871 475.831 675.119 477.673 669.719C479.452 664.494 478.5 658.629 481.056 653.492C483.9 647.741 492.646 645.147 493.097 638.769C493.01 641.538 492.646 645.147 493.097 638.769Z" fill="white"/>
</mask>
<g mask="url(#mask5_63_300)">
<path d="M447.575 568.988C445.182 565.53 442.751 562.097 440.283 558.676C439.706 557.887 438.616 557.411 437.714 557.999C436.925 558.513 436.423 559.716 437.037 560.568C439.506 563.976 441.924 567.422 444.33 570.881C444.894 571.682 446.009 572.134 446.899 571.557C447.7 571.043 448.177 569.853 447.575 568.988Z" fill="black"/>
</g>
<mask id="mask6_63_300" style="mask-type:luminance" maskUnits="userSpaceOnUse" x="-48" y="435" width="542" height="292">
<path d="M493.097 638.769C493.01 641.551 492.308 638.644 489.351 634.484C484.351 627.429 479.74 620.049 475.079 612.782C464.904 596.906 454.367 581.506 443.177 566.332C437.977 559.29 437.3 554.278 433.328 547.123C428.404 538.252 421.926 530.533 415.774 522.589C408.669 513.417 401.301 497.166 392.693 491.038C392.706 491.038 370.69 483.921 380.952 487.643C371.254 484.134 361.668 480.275 352.02 476.629C343.813 473.521 333.137 467.519 324.115 467.143C314.693 466.742 303.441 470.151 294.005 471.003C279.257 472.331 264.033 471.353 249.348 473.446C233.071 475.764 220.115 467.569 205.367 461.079C192.649 455.478 179.58 450.177 167.526 441.907C156.913 434.627 143.919 432.76 132.216 439.401C114.974 449.2 96.016 463.685 84.1248 479.974C70.3917 498.769 55.1926 514.733 34.568 525.96C20.8474 533.44 8.76832 535.27 -6.68139 535.069C-14.8887 534.957 -27.4564 531.924 -35.2126 534.606C-45.6377 538.214 -46.0763 549.441 -47.016 558.639C-48.5698 573.863 -46.4522 593.51 -41.0266 607.87C-35.8266 621.615 -23.5094 644.47 -8.56091 649.32C-6.28042 650.059 -6.94452 648.768 -5.31559 649.031C7.75338 651.174 5.05939 649.107 24.9824 656.424C55.0673 667.476 83.3981 682.662 112.907 695.055C124.134 699.766 124.021 698.801 136.05 698.701C189.341 698.25 241.654 714.238 294.907 714.339C313.352 714.376 331.283 716.206 349.589 718.787C363.823 720.792 377.958 723.724 392.217 725.641C394.397 725.929 397.429 726.794 399.622 726.543C410.962 725.227 425.785 715.83 435.772 710.805C448.678 704.315 459.567 697.172 468.087 685.432C471.395 680.871 475.831 675.119 477.673 669.719C479.452 664.494 478.5 658.629 481.056 653.492C483.9 647.741 492.646 645.147 493.097 638.769C493.01 641.538 492.646 645.147 493.097 638.769Z" fill="white"/>
</mask>
<g mask="url(#mask6_63_300)">
<mask id="mask7_63_300" style="mask-type:luminance" maskUnits="userSpaceOnUse" x="121" y="291" width="349" height="528">
<path d="M255.414 291.57L258.684 367.641C258.684 367.641 260.25 393.478 250.853 408.352C241.455 423.225 142.028 573.55 142.028 573.55C142.028 573.55 121.667 600.953 121.667 618.959C121.667 636.965 142.805 683.94 157.678 712.133C172.552 740.314 202.311 779.471 202.311 779.471C202.311 779.471 199.266 786.512 199.178 790.434C199.028 796.574 202.311 802.175 208.576 805.308C214.841 808.44 246.492 818.803 295.823 818.803C295.823 818.803 348.588 820.056 382.257 805.182C388.66 802.351 391.654 797.351 391.654 790.309C391.654 786.4 388.522 779.345 388.522 779.345C388.522 779.345 418.268 740.201 433.154 712.008C448.028 683.828 469.166 636.839 469.166 618.834C469.166 600.828 448.804 573.424 448.804 573.424C448.804 573.424 349.365 423.1 339.98 408.226C330.582 393.353 332.148 367.516 332.148 367.516L335.281 291.57" fill="white"/>
</mask>
<g mask="url(#mask7_63_300)">
<path d="M560.435 279.717H-94.8804V651.061H560.435V279.717Z" fill="white"/>
<path d="M92.4959 453.661C111.492 453.661 126.891 438.261 126.891 419.265C126.891 400.269 111.492 384.87 92.4959 384.87C73.4999 384.87 58.1006 400.269 58.1006 419.265C58.1006 438.261 73.4999 453.661 92.4959 453.661Z" fill="#E3E3E3"/>
<path d="M185.207 453.661C204.203 453.661 219.602 438.261 219.602 419.265C219.602 400.269 204.203 384.87 185.207 384.87C166.211 384.87 150.812 400.269 150.812 419.265C150.812 438.261 166.211 453.661 185.207 453.661Z" fill="#E3E3E3"/>
<path d="M277.93 453.661C296.926 453.661 312.325 438.261 312.325 419.265C312.325 400.269 296.926 384.87 277.93 384.87C258.934 384.87 243.535 400.269 243.535 419.265C243.535 438.261 258.934 453.661 277.93 453.661Z" fill="#E3E3E3"/>
<path d="M370.641 453.661C389.637 453.661 405.036 438.261 405.036 419.265C405.036 400.269 389.637 384.87 370.641 384.87C351.645 384.87 336.246 400.269 336.246 419.265C336.246 438.261 351.645 453.661 370.641 453.661Z" fill="#E3E3E3"/>
<path d="M463.352 453.661C482.348 453.661 497.747 438.261 497.747 419.265C497.747 400.269 482.348 384.87 463.352 384.87C444.356 384.87 428.957 400.269 428.957 419.265C428.957 438.261 444.356 453.661 463.352 453.661Z" fill="#E3E3E3"/>
<path d="M92.4959 638.13C111.492 638.13 126.891 622.731 126.891 603.735C126.891 584.739 111.492 569.339 92.4959 569.339C73.4999 569.339 58.1006 584.739 58.1006 603.735C58.1006 622.731 73.4999 638.13 92.4959 638.13Z" fill="#E3E3E3"/>
<path d="M185.207 638.13C204.203 638.13 219.602 622.731 219.602 603.735C219.602 584.739 204.203 569.339 185.207 569.339C166.211 569.339 150.812 584.739 150.812 603.735C150.812 622.731 166.211 638.13 185.207 638.13Z" fill="#E3E3E3"/>
<path d="M277.93 638.13C296.926 638.13 312.325 622.731 312.325 603.735C312.325 584.739 296.926 569.339 277.93 569.339C258.934 569.339 243.535 584.739 243.535 603.735C243.535 622.731 258.934 638.13 277.93 638.13Z" fill="#E3E3E3"/>
<path d="M370.641 638.13C389.637 638.13 405.036 622.731 405.036 603.735C405.036 584.739 389.637 569.339 370.641 569.339C351.645 569.339 336.246 584.739 336.246 603.735C336.246 622.731 351.645 638.13 370.641 638.13Z" fill="#E3E3E3"/>
<path d="M463.352 638.13C482.348 638.13 497.747 622.731 497.747 603.735C497.747 584.739 482.348 569.339 463.352 569.339C444.356 569.339 428.957 584.739 428.957 603.735C428.957 622.731 444.356 638.13 463.352 638.13Z" fill="#E3E3E3"/>
<path d="M139.334 545.895C158.33 545.895 173.73 530.496 173.73 511.5C173.73 492.504 158.33 477.105 139.334 477.105C120.338 477.105 104.939 492.504 104.939 511.5C104.939 530.496 120.338 545.895 139.334 545.895Z" fill="#E3E3E3"/>
<path d="M232.784 545.895C251.781 545.895 267.18 530.496 267.18 511.5C267.18 492.504 251.781 477.105 232.784 477.105C213.788 477.105 198.389 492.504 198.389 511.5C198.389 530.496 213.788 545.895 232.784 545.895Z" fill="#E3E3E3"/>
<path d="M326.222 545.895C345.218 545.895 360.617 530.496 360.617 511.5C360.617 492.504 345.218 477.105 326.222 477.105C307.226 477.105 291.827 492.504 291.827 511.5C291.827 530.496 307.226 545.895 326.222 545.895Z" fill="#E3E3E3"/>
<path d="M419.672 545.895C438.668 545.895 454.067 530.496 454.067 511.5C454.067 492.504 438.668 477.105 419.672 477.105C400.676 477.105 385.276 492.504 385.276 511.5C385.276 530.496 400.676 545.895 419.672 545.895Z" fill="#E3E3E3"/>
</g>
<mask id="mask8_63_300" style="mask-type:luminance" maskUnits="userSpaceOnUse" x="121" y="291" width="349" height="528">
<path d="M255.414 291.57L258.684 367.641C258.684 367.641 260.25 393.478 250.853 408.352C241.455 423.225 142.028 573.55 142.028 573.55C142.028 573.55 121.667 600.953 121.667 618.959C121.667 636.965 142.805 683.94 157.678 712.133C172.552 740.314 202.311 779.471 202.311 779.471C202.311 779.471 199.266 786.512 199.178 790.434C199.028 796.574 202.311 802.175 208.576 805.308C214.841 808.44 246.492 818.803 295.823 818.803C295.823 818.803 348.588 820.056 382.257 805.182C388.66 802.351 391.654 797.351 391.654 790.309C391.654 786.4 388.522 779.345 388.522 779.345C388.522 779.345 418.268 740.201 433.154 712.008C448.028 683.828 469.166 636.839 469.166 618.834C469.166 600.828 448.804 573.424 448.804 573.424C448.804 573.424 349.365 423.1 339.98 408.226C330.582 393.353 332.148 367.516 332.148 367.516L335.281 291.57" fill="white"/>
</mask>
<g mask="url(#mask8_63_300)">
<path d="M560.435 651.061H-94.8804V1022.41H560.435V651.061Z" fill="white"/>
<path d="M139.334 732.783C158.33 732.783 173.73 717.384 173.73 698.388C173.73 679.392 158.33 663.992 139.334 663.992C120.338 663.992 104.939 679.392 104.939 698.388C104.939 717.384 120.338 732.783 139.334 732.783Z" fill="#E3E3E3"/>
<path d="M232.784 732.783C251.781 732.783 267.18 717.384 267.18 698.388C267.18 679.392 251.781 663.992 232.784 663.992C213.788 663.992 198.389 679.392 198.389 698.388C198.389 717.384 213.788 732.783 232.784 732.783Z" fill="#E3E3E3"/>
<path d="M326.222 732.783C345.218 732.783 360.617 717.384 360.617 698.388C360.617 679.392 345.218 663.992 326.222 663.992C307.226 663.992 291.827 679.392 291.827 698.388C291.827 717.384 307.226 732.783 326.222 732.783Z" fill="#E3E3E3"/>
<path d="M419.672 732.783C438.668 732.783 454.067 717.384 454.067 698.388C454.067 679.392 438.668 663.992 419.672 663.992C400.676 663.992 385.276 679.392 385.276 698.388C385.276 717.384 400.676 732.783 419.672 732.783Z" fill="#E3E3E3"/>
</g>
<path d="M298.542 819.442C296.838 819.442 295.873 819.417 295.798 819.417C245.689 819.417 214.038 808.716 208.299 805.846C202.047 802.714 198.401 796.938 198.563 790.397C198.651 786.851 200.994 781.012 201.608 779.533C198.864 775.887 171.21 739.036 157.139 712.409C142.629 684.918 121.052 637.341 121.052 618.946C121.052 600.94 140.699 574.289 141.526 573.161C142.503 571.683 241.041 422.699 250.326 408.001C259.51 393.466 258.082 367.917 258.057 367.654L254.774 291.57L256.027 291.52L259.31 367.591C259.372 368.644 260.776 393.792 251.378 408.665C242.081 423.375 143.543 572.372 142.541 573.875C142.315 574.176 122.292 601.341 122.292 618.946C122.292 637.115 143.781 684.442 158.229 711.82C172.914 739.637 202.498 778.681 202.799 779.069L203.024 779.358L202.874 779.696C202.849 779.759 199.879 786.675 199.791 790.422C199.641 796.562 202.949 801.774 208.838 804.719C214.514 807.551 245.902 818.151 295.785 818.151C296.324 818.164 348.813 819.229 381.968 804.581C388.032 801.9 390.989 797.213 390.989 790.271C390.989 786.537 387.945 779.633 387.907 779.571L387.757 779.232L387.982 778.932C388.283 778.543 417.879 739.499 432.552 711.682C446.999 684.304 468.489 636.977 468.489 618.809C468.489 601.216 448.453 574.038 448.252 573.775C447.237 572.246 348.688 423.25 339.39 408.54C329.992 393.666 331.396 368.518 331.459 367.453L334.591 291.52L335.844 291.57L332.712 367.516C332.699 367.779 331.271 393.34 340.443 407.875C349.728 422.573 448.265 571.557 449.267 573.061C450.082 574.164 469.729 600.815 469.729 618.821C469.729 637.228 448.152 684.805 433.642 712.284C419.583 738.91 391.942 775.749 389.185 779.408C389.824 780.886 392.217 786.738 392.217 790.284C392.217 797.677 388.934 802.864 382.444 805.734C353.487 818.577 309.844 819.442 298.542 819.442Z" fill="black"/>
<path d="M246.805 278.263L246.655 278.464C243.523 282.586 243.585 288.3 246.805 292.36L237.796 312.621L235.052 318.974L229.576 313.498C229.576 313.498 226.444 268.866 195.908 268.866C165.372 268.866 166.161 307.233 166.161 307.233C166.161 307.233 166.161 340.112 201.396 387.877C229.489 425.957 234.275 465.389 234.275 473.221C234.275 481.052 220.179 497.491 212.347 499.835C212.347 499.835 211.984 511.826 206.872 520.196C198.264 534.293 175.972 536.924 175.972 536.924L181.987 505.285C188.352 484.41 203.413 467.294 223.324 458.347C223.324 458.347 211.671 464.261 207.661 459.124C200.156 449.526 205.318 430.154 202.962 423.112C200.619 416.07 148.945 340.125 148.945 340.125C148.945 340.125 134.071 308.023 134.071 299.414C134.071 290.806 130.939 283.551 134.071 274.655C137.204 265.758 147.378 264.969 147.378 264.969C147.378 264.969 156.776 257.138 170.873 250.096C180.621 245.221 196.021 240.197 200.619 238.355C208.451 235.222 204.529 229.747 204.529 225.825C204.529 219.56 213.099 217.216 221.758 217.216C235.065 217.216 245.252 231.313 245.252 231.313C242.483 234.821 242.382 239.746 245.026 243.342L245.252 243.643L244.675 244.47C237.207 255.058 238.11 268.64 246.805 278.263Z" fill="white"/>
<path d="M175.195 537.638L181.36 505.16C186.986 486.715 199.291 471.216 215.693 461.567C212.473 462.144 209.077 461.956 207.16 459.5C202.261 453.222 202.599 442.922 202.887 434.653C203.05 429.891 203.188 425.769 202.361 423.3C200.068 416.421 148.932 341.228 148.418 340.463C147.754 339.06 133.432 308.048 133.432 299.402C133.432 296.532 133.069 293.763 132.731 291.094C132.016 285.619 131.352 280.456 133.47 274.429C136.452 265.959 145.624 264.53 147.115 264.355C148.381 263.327 157.528 256.047 170.572 249.519C177.726 245.936 187.901 242.289 194.642 239.871C197.161 238.969 199.153 238.255 200.381 237.766C205.832 235.586 205.13 232.39 204.378 229.007C204.128 227.892 203.902 226.827 203.902 225.825C203.902 219.008 213.124 216.59 221.757 216.59C235.227 216.59 245.327 230.361 245.753 230.937L246.028 231.325L245.728 231.701C243.134 234.972 243.046 239.608 245.527 242.978L246.016 243.642L245.176 244.845C237.921 255.195 238.761 268.477 247.281 277.875L247.632 278.263L247.169 278.877C244.212 282.774 244.262 288.175 247.319 291.996L247.557 292.297L238.398 312.909L235.29 320.114L228.987 313.811L228.975 313.573C228.95 313.135 225.529 269.53 195.933 269.53C188.277 269.53 181.962 272.011 177.175 276.898C166.537 287.761 166.8 307.058 166.8 307.258C166.8 307.597 167.226 340.526 201.91 387.539C233.498 430.355 234.914 472.845 234.914 473.258C234.914 480.388 222.158 497.191 212.974 500.336C212.849 502.616 212.072 512.954 207.423 520.559C198.752 534.744 176.987 537.475 176.06 537.588L175.195 537.638ZM222.221 459.525C203.15 468.559 188.753 485.224 182.588 505.448L176.762 536.159C180.897 535.495 198.94 531.974 206.345 519.845C211.307 511.713 211.733 499.91 211.733 499.797L211.746 499.346L212.172 499.221C219.377 497.053 233.649 480.876 233.649 473.195C233.649 472.794 232.245 430.731 200.882 388.228C165.936 340.852 165.522 307.546 165.522 307.208C165.51 306.406 165.246 287.197 176.248 275.958C181.285 270.82 187.888 268.214 195.895 268.214C225.491 268.214 229.852 309.651 230.165 313.185L234.826 317.846L237.207 312.333L246.066 292.41C242.946 288.225 242.908 282.499 245.978 278.263C237.383 268.44 236.631 254.757 244.124 244.056L244.45 243.592C241.793 239.909 241.806 234.921 244.437 231.25C242.733 229.057 233.373 217.78 221.732 217.78C213.713 217.78 205.13 219.873 205.13 225.762C205.13 226.639 205.343 227.629 205.581 228.681C206.333 232.077 207.26 236.3 200.82 238.868C199.567 239.37 197.574 240.084 195.043 240.999C188.34 243.404 178.203 247.051 171.111 250.597C157.252 257.526 147.842 265.32 147.742 265.395L147.591 265.52L147.391 265.533C147.291 265.545 137.58 266.397 134.623 274.805C132.605 280.556 133.257 285.581 133.946 290.894C134.297 293.6 134.66 296.407 134.66 299.364C134.66 307.747 149.333 339.498 149.483 339.812C151.538 342.831 201.183 415.82 203.526 422.874C204.416 425.556 204.278 429.778 204.115 434.665C203.839 442.734 203.501 452.796 208.125 458.71C211.069 462.47 218.876 459.575 221.845 458.284C222.246 458.096 222.635 457.921 223.036 457.733L223.574 458.861C223.512 458.936 222.998 459.187 222.221 459.525Z" fill="black"/>
</g>
<mask id="mask9_63_300" style="mask-type:luminance" maskUnits="userSpaceOnUse" x="-48" y="435" width="542" height="292">
<path d="M493.097 638.769C493.01 641.551 492.308 638.644 489.351 634.484C484.351 627.429 479.74 620.049 475.079 612.782C464.904 596.906 454.367 581.506 443.177 566.332C437.977 559.29 437.3 554.278 433.328 547.123C428.404 538.252 421.926 530.533 415.774 522.589C408.669 513.417 401.301 497.166 392.693 491.038C392.706 491.038 370.69 483.921 380.952 487.643C371.254 484.134 361.668 480.275 352.02 476.629C343.813 473.521 333.137 467.519 324.115 467.143C314.693 466.742 303.441 470.151 294.005 471.003C279.257 472.331 264.033 471.353 249.348 473.446C233.071 475.764 220.115 467.569 205.367 461.079C192.649 455.478 179.58 450.177 167.526 441.907C156.913 434.627 143.919 432.76 132.216 439.401C114.974 449.2 96.016 463.685 84.1248 479.974C70.3917 498.769 55.1926 514.733 34.568 525.96C20.8474 533.44 8.76832 535.27 -6.68139 535.069C-14.8887 534.957 -27.4564 531.924 -35.2126 534.606C-45.6377 538.214 -46.0763 549.441 -47.016 558.639C-48.5698 573.863 -46.4522 593.51 -41.0266 607.87C-35.8266 621.615 -23.5094 644.47 -8.56091 649.32C-6.28042 650.059 -6.94452 648.768 -5.31559 649.031C7.75338 651.174 5.05939 649.107 24.9824 656.424C55.0673 667.476 83.3981 682.662 112.907 695.055C124.134 699.766 124.021 698.801 136.05 698.701C189.341 698.25 241.654 714.238 294.907 714.339C313.352 714.376 331.283 716.206 349.589 718.787C363.823 720.792 377.958 723.724 392.217 725.641C394.397 725.929 397.429 726.794 399.622 726.543C410.962 725.227 425.785 715.83 435.772 710.805C448.678 704.315 459.567 697.172 468.087 685.432C471.395 680.871 475.831 675.119 477.673 669.719C479.452 664.494 478.5 658.629 481.056 653.492C483.9 647.741 492.646 645.147 493.097 638.769C493.01 641.538 492.646 645.147 493.097 638.769Z" fill="white"/>
</mask>
<g mask="url(#mask9_63_300)">
<path d="M155.321 448.047L176.309 550.469C191.421 623.507 214.927 680.595 293.003 680.595C366.041 680.595 408.857 625.186 408.857 558.864C408.857 484.986 371.078 447.208 306.435 416.145L224.162 376.688C141.049 337.23 83.1223 271.748 83.1223 183.598C83.1223 57.6695 198.976 0.582031 303.077 0.582031C385.35 0.582031 411.375 13.1749 464.265 13.1749C483.574 13.1749 510.439 10.6563 532.267 4.77964L455.031 215.5L388.708 83.6947C365.202 37.521 334.979 17.3725 286.287 17.3725C204.853 17.3725 178.828 72.7809 178.828 113.917C178.828 168.486 217.446 200.388 265.299 223.895L398.783 289.378C511.279 344.786 533.946 425.38 533.946 473.233C533.946 615.952 413.054 697.385 284.608 697.385C184.704 697.385 79.7643 652.891 22.6768 613.433L155.321 448.047Z" fill="black"/>
</g>
</g>
<defs>
<clipPath id="clip0_63_300">
<rect width="560.099" height="835.763" fill="white" transform="translate(0.034668 0.582153)"/>
</clipPath>
</defs>
</svg>
