<svg width="278" height="316" viewBox="0 0 278 316" fill="none" xmlns="http://www.w3.org/2000/svg">
<g clip-path="url(#clip0_63_286)">
<path d="M2.69336 294.667L55.3201 309.703L82.1973 313.249L119.224 314.715L27.7537 292.161L2.69336 294.667Z" fill="black"/>
<path d="M59.0791 67.8707L61.5851 124.257L69.1032 134.281L59.3798 195.19L96.0431 107.341L59.0791 67.8707Z" fill="black"/>
<path d="M168.819 0.834351H44.8199C44.8199 0.834351 33.0164 7.32498 33.3923 17.1236C34.0439 33.7386 46.2107 35.167 46.2107 35.167C46.2107 35.167 65.9708 71.0033 65.4069 117.39C65.4069 117.954 77.248 126.136 77.248 126.136C77.248 126.136 65.9708 137.413 65.8204 138.153C45.8849 239.196 2.06689 295.093 2.06689 295.093L119.775 314.715C119.775 314.715 205.056 250.185 222.773 167.586C232.246 123.38 227.573 99.6599 217.761 72.319C207.95 44.9782 168.819 0.834351 168.819 0.834351Z" fill="white" stroke="black" stroke-width="1.25302" stroke-miterlimit="10"/>
<path d="M252.194 20.4567C252.194 20.4567 212.962 44.9782 198.252 49.8775C183.541 54.7768 168.831 49.8775 168.831 49.8775C168.831 49.8775 156.2 62.2323 158.706 83.5336C161.062 103.594 173.73 113.631 173.73 113.631C173.73 113.631 189.531 100.738 203.64 101.226C235.141 102.316 252.194 103.82 252.194 103.82" fill="white"/>
<path d="M252.194 20.4567C252.194 20.4567 212.962 44.9782 198.252 49.8775C183.541 54.7768 168.831 49.8775 168.831 49.8775C168.831 49.8775 156.2 62.2323 158.706 83.5336C161.062 103.594 173.73 113.631 173.73 113.631C173.73 113.631 189.531 100.738 203.64 101.226C235.141 102.316 252.194 103.82 252.194 103.82" stroke="black" stroke-width="1.25302" stroke-miterlimit="10"/>
<path d="M254.651 103.832C266.837 103.832 276.716 85.1682 276.716 62.1446C276.716 39.121 266.837 20.4567 254.651 20.4567C242.464 20.4567 232.585 39.121 232.585 62.1446C232.585 85.1682 242.464 103.832 254.651 103.832Z" fill="white" stroke="black" stroke-width="1.25302" stroke-miterlimit="10"/>
<path d="M62.3872 36.2571C62.3872 36.2571 90.7681 38.2995 124.725 36.2571C151.176 34.6657 173.718 29.4657 173.718 29.4657" stroke="black" stroke-width="1.25302" stroke-miterlimit="10"/>
<path d="M77.248 126.136L103.561 122.377L117.345 109.847" fill="white"/>
<path d="M77.248 126.136L103.561 122.377L117.345 109.847" stroke="black" stroke-width="1.25302" stroke-miterlimit="10"/>
<path d="M253.673 37.4475C248.172 48.5868 248.059 61.2172 249.926 73.2838L253.36 71.8303C252.746 71.0284 252.482 70.3267 252.533 69.2992H248.773C249.037 75.3638 251.054 81.0274 253.197 86.641C254.061 88.8964 257.281 88.0443 256.818 85.6385C254.324 72.5821 253.974 59.1999 255.653 46.0181H251.893C251.831 53.7367 251.781 61.4553 251.718 69.1739C251.706 71.5922 255.465 71.5922 255.477 69.1739C255.54 61.4553 255.59 53.7367 255.653 46.0181C255.678 43.5246 252.194 43.6875 251.893 46.0181C250.164 59.5507 250.628 73.2462 253.184 86.641L256.805 85.6385C254.788 80.3633 252.771 74.9879 252.52 69.2992C252.42 66.8809 248.886 66.8809 248.761 69.2992C248.673 70.9031 249.112 72.4443 250.102 73.7223C251.417 75.4265 253.873 74.4491 253.535 72.2688C251.831 61.2799 251.893 49.4639 256.906 39.327C257.971 37.1593 254.738 35.2547 253.66 37.435L253.673 37.4475Z" fill="#878787"/>
<path d="M255.214 39.7655C257.632 39.7655 257.632 36.0065 255.214 36.0065C252.795 36.0065 252.795 39.7655 255.214 39.7655Z" fill="#878787"/>
<path d="M262.644 30.5559C253.41 30.5559 248.435 44.8153 248.435 62.2573C248.435 79.6993 253.41 93.7331 262.644 93.7331" stroke="black" stroke-width="1.25302" stroke-miterlimit="10"/>
<path d="M254.65 35.8812C262.331 35.8812 266.466 47.7348 266.466 62.2322C266.466 76.7296 262.331 88.3952 254.65 88.3952" fill="#878787"/>
<path d="M254.65 35.8812C262.331 35.8812 266.466 47.7348 266.466 62.2322C266.466 76.7296 262.331 88.3952 254.65 88.3952" stroke="black" stroke-width="1.25302" stroke-miterlimit="10"/>
<path d="M103.561 122.377L158.368 172.172L168.718 173.751" fill="white"/>
<path d="M103.561 122.377L158.368 172.172L168.718 173.751" stroke="black" stroke-width="1.25302" stroke-miterlimit="10"/>
</g>
<defs>
<clipPath id="clip0_63_286">
<rect width="276.416" height="315.172" fill="white" transform="translate(0.92627 0.207642)"/>
</clipPath>
</defs>
</svg>
