<svg width="314" height="846" viewBox="0 0 314 846" fill="none" xmlns="http://www.w3.org/2000/svg">
<g clip-path="url(#clip0_63_710)">
<path d="M299.218 10.3779H14.7827V20.4021H299.218V10.3779Z" fill="black"/>
<path d="M299.844 21.0286H14.1562V9.75146H299.844V21.0286ZM15.4093 19.7756H298.591V11.0045H15.4093V19.7756Z" fill="black"/>
<path d="M307.988 0.980225H299.217V29.7996H307.988V0.980225Z" fill="white"/>
<path d="M308.615 30.4262H298.591V0.35376H308.615V30.4262ZM299.844 29.1732H307.362V1.60678H299.844V29.1732Z" fill="black"/>
<path d="M313.001 8.49854H307.989V22.2817H313.001V8.49854Z" fill="white"/>
<path d="M313.627 22.908H307.362V7.87183H313.627V22.908ZM308.615 21.655H312.374V9.12484H308.615V21.655Z" fill="black"/>
<path d="M6.01159 29.5867H14.7827L14.7827 0.767262H6.01159L6.01159 29.5867Z" fill="white"/>
<path d="M15.4089 30.2131H5.38477V0.140625H15.4089V30.2131ZM6.63778 28.96H14.1559V1.39364H6.63778V28.96Z" fill="black"/>
<path d="M0.999159 22.0686H6.01123L6.01123 8.28541H0.999159L0.999159 22.0686Z" fill="white"/>
<path d="M6.63765 22.6949H0.372559V7.65869H6.63765V22.6949ZM1.62558 21.4419H5.38463V8.91171H1.62558V21.4419Z" fill="black"/>
<path d="M31.0718 40.8638V593.445V845.301L98.7347 593.445H118.157L158.253 845.301L198.35 593.445H217.771L285.434 845.301V593.445V40.8638H31.0718Z" fill="white"/>
<path d="M284.833 845.464L217.295 594.071H198.888L158.879 845.401H157.639L117.63 594.071H99.2231L31.6855 845.464L30.4575 845.301V40.8636L31.084 40.2371H285.447L286.073 40.8636V845.301L284.845 845.464H284.833ZM98.7345 592.818H118.156L118.77 593.344L158.253 841.316L197.735 593.344L198.349 592.818H217.771L218.373 593.282L284.808 840.552V41.4901H31.698V840.552L98.133 593.282L98.7345 592.818Z" fill="black"/>
<path d="M261.627 9.53857V32.0929H227.796V9.53857H203.988V32.0929H170.157V9.53857H146.349V32.0929H112.518V9.53857H88.7106V32.0929H54.8791V9.53857H31.0718V40.864H38.5899H54.8791H88.7106H112.518H146.349H170.157H203.988H227.796H261.627H275.41H285.434V9.53857H261.627Z" fill="white"/>
<path d="M286.061 41.4903H30.4453V8.91187H55.5057V31.4662H88.0841V8.91187H113.144V31.4662H145.723V8.91187H170.783V31.4662H203.362V8.91187H228.422V31.4662H261.001V8.91187H286.061V41.4903ZM31.6983 40.2373H284.808V10.1649H262.254V32.7192H227.169V10.1649H204.615V32.7192H169.53V10.1649H146.976V32.7192H111.891V10.1649H89.3371V32.7192H54.2527V10.1649H31.6983V40.2373Z" fill="black"/>
<path d="M273.531 581.541H42.9756V52.7676H273.531V581.541ZM44.2286 580.288H272.278V54.0206H44.2286V580.288Z" fill="black"/>
<path d="M127.717 293.835H178.151C187.373 293.835 191.12 288.648 196.595 277.985L221.38 228.127L242.995 299.599H68.6372L179.016 74.8078H135.498C126.276 74.8078 122.241 79.9953 117.054 90.6585L92.2691 140.516L70.6546 69.0439H235.79L127.717 293.835Z" fill="black"/>
<path d="M157.263 319.598C223.26 319.598 258.996 367.438 258.996 439.198C258.996 510.959 223.26 558.799 157.263 558.799C91.2667 558.799 54.666 511.535 54.666 439.198C54.666 366.861 90.4021 319.598 157.263 319.598ZM157.263 553.035C196.169 553.035 204.815 528.538 204.815 505.483C204.815 482.427 197.034 473.493 197.034 439.198C197.034 404.903 204.815 395.105 204.815 372.914C204.815 350.723 195.881 325.073 157.263 325.362C117.781 325.65 108.847 350.146 109.135 372.914C108.847 395.393 116.628 405.191 116.628 439.198C116.628 473.205 108.847 483.004 109.135 505.483C108.847 528.25 117.781 553.323 157.263 553.035Z" fill="black"/>
</g>
<defs>
<clipPath id="clip0_63_710">
<rect width="313.254" height="845.323" fill="white" transform="translate(0.372559 0.140625)"/>
</clipPath>
</defs>
</svg>
