<svg width="667" height="294" viewBox="0 0 667 294" fill="none" xmlns="http://www.w3.org/2000/svg">
<g clip-path="url(#clip0_63_701)">
<path d="M110.276 0.803223L1.57666 25.8636V161.014C1.57666 202.364 21.1989 241.42 54.7798 265.553C69.1018 275.853 87.2706 285.339 110.276 292.681C134.409 284.988 153.217 274.926 167.852 264.037C200.305 239.904 218.975 201.462 218.975 161.014V25.8636L110.276 0.803223Z" fill="white"/>
<path d="M110.276 293.345L110.088 293.283C88.8369 286.504 70.1043 277.344 54.4039 266.067C20.9358 241.997 0.950195 202.727 0.950195 161.014V25.3748L1.43887 25.262L110.276 0.164062L110.414 0.201653L219.602 25.3748V161.027C219.602 201.925 200.393 240.631 168.228 264.551C152.102 276.542 132.667 286.216 110.476 293.283L110.289 293.345H110.276ZM2.20321 26.3647V161.014C2.20321 202.326 21.9884 241.207 55.1432 265.04C70.6806 276.216 89.2378 285.288 110.276 292.017C132.266 284.988 151.513 275.402 167.476 263.523C199.328 239.829 218.349 201.512 218.349 161.001V26.3647L110.276 1.45467L2.20321 26.3647Z" fill="black"/>
<path d="M557.604 0.803223L448.904 25.8636V161.014C448.904 202.364 468.527 241.42 502.107 265.553C516.429 275.853 534.598 285.339 557.604 292.681C581.737 284.988 600.545 274.926 615.18 264.037C647.633 239.904 666.303 201.462 666.303 161.014V25.8636L557.604 0.803223Z" fill="white"/>
<path d="M557.604 293.345L557.416 293.283C536.165 286.504 517.432 277.344 501.732 266.067C468.263 241.997 448.278 202.727 448.278 161.014V25.3748L448.767 25.262L557.604 0.164062L557.741 0.201653L666.929 25.3748V161.027C666.929 201.925 647.721 240.631 615.556 264.551C599.429 276.542 579.995 286.216 557.804 293.283L557.616 293.345H557.604ZM449.531 26.3647V161.014C449.531 202.326 469.316 241.207 502.471 265.04C518.008 276.216 536.565 285.288 557.604 292.017C579.594 284.988 598.84 275.402 614.804 263.523C646.656 239.829 665.676 201.512 665.676 161.001V26.3647L557.604 1.45467L449.531 26.3647Z" fill="black"/>
<path d="M156.776 222.249V226.76H59.792V222.249H86.8572V79.9436H62.0474V75.4328H84.6017C108.96 75.4328 120.689 66.1855 126.327 35.0605H129.71V222.249H156.776Z" fill="black"/>
<path d="M488.738 222.249L564.971 113.086C573.091 101.583 582.338 88.0508 582.338 73.3905C582.338 62.3389 577.602 47.453 554.145 47.453C539.711 47.453 530.238 51.5128 523.246 57.1514C535.876 57.1514 546.026 67.7519 546.026 80.6079C546.026 93.4638 535.876 103.388 523.246 103.388C510.615 103.388 500.24 93.2383 500.24 80.6079C500.24 58.7302 528.659 42.9421 554.145 42.9421C585.947 42.9421 617.297 56.0236 617.297 87.5997C617.297 111.282 593.615 131.355 574.444 146.918L515.803 194.056H588.428C595.42 194.056 601.284 192.703 606.697 184.809L612.11 177.14L621.357 226.76H488.738V222.249Z" fill="black"/>
</g>
<defs>
<clipPath id="clip0_63_701">
<rect width="665.979" height="293.181" fill="white" transform="translate(0.950195 0.164062)"/>
</clipPath>
</defs>
</svg>
