<svg width="805" height="294" viewBox="0 0 805 294" fill="none" xmlns="http://www.w3.org/2000/svg">
<g clip-path="url(#clip0_63_795)">
<path d="M695.266 1.17944L586.567 26.2398V161.39C586.567 202.74 606.189 241.796 639.77 265.93C654.092 276.229 672.261 285.715 695.266 293.057C719.399 285.364 738.207 275.302 752.842 264.413C785.296 240.28 803.965 201.838 803.965 161.39V26.2398L695.266 1.17944Z" fill="white"/>
<path d="M695.266 293.722L695.078 293.659C673.827 286.88 655.094 277.721 639.394 266.443C605.926 242.373 585.94 203.103 585.94 161.39V25.7512L586.429 25.6385L695.266 0.540527L695.404 0.578118L804.592 25.7512V161.403C804.592 202.301 785.383 241.007 753.218 264.927C737.092 276.919 717.658 286.592 695.467 293.659L695.279 293.722H695.266ZM587.193 26.7411V161.39C587.193 202.702 606.979 241.584 640.133 265.416C655.671 276.593 674.228 285.665 695.266 292.393C717.257 285.364 736.503 275.778 752.467 263.9C784.318 240.205 803.339 201.888 803.339 161.378V26.7411L695.266 1.83114L587.193 26.7411Z" fill="black"/>
<path d="M110.107 1.17944L1.40771 26.2398V161.39C1.40771 202.74 21.03 241.796 54.6109 265.93C68.9328 276.229 87.1016 285.715 110.107 293.057C134.24 285.364 153.048 275.302 167.683 264.413C200.136 240.28 218.806 201.838 218.806 161.39V26.2398L110.107 1.17944Z" fill="white"/>
<path d="M110.108 293.722L109.92 293.659C88.6684 286.88 69.9358 277.721 54.2355 266.443C20.7674 242.373 0.781738 203.103 0.781738 161.39V25.7512L1.27042 25.6385L110.108 0.540527L110.245 0.578118L219.433 25.7512V161.403C219.433 202.301 200.225 241.007 168.06 264.927C151.933 276.919 132.499 286.592 110.308 293.659L110.12 293.722H110.108ZM2.03476 26.7411V161.39C2.03476 202.702 21.8199 241.584 54.9748 265.416C70.5122 276.593 89.0694 285.665 110.108 292.393C132.098 285.364 151.344 275.778 167.308 263.9C199.16 240.205 218.18 201.888 218.18 161.378V26.7411L110.108 1.83114L2.03476 26.7411Z" fill="black"/>
<path d="M175.803 53.7311L130.243 113.5C117.838 129.739 110.621 141.242 110.621 157.03C110.621 183.418 126.183 188.606 126.183 208.228C126.183 224.016 112.425 233.038 100.471 233.038C84.6832 233.038 70.474 219.505 70.2484 194.47C70.0229 166.277 95.9604 141.242 118.74 116.207L149.865 81.924H79.4957C72.5039 81.924 69.7974 83.9539 63.4821 91.1713L58.7457 96.5843L46.5664 49.2202H175.803V53.7311Z" fill="black"/>
<path d="M705.115 43.3311C732.406 43.3311 759.697 57.5403 759.697 79.6435C759.697 91.5973 749.998 100.619 738.721 100.619C728.346 100.619 717.52 93.4016 717.52 79.6435C717.52 67.0131 728.121 57.7658 740.525 58.668C731.278 50.774 718.422 47.8419 705.115 47.8419C674.216 47.8419 664.968 67.2386 664.968 85.0565C664.968 98.5891 665.871 106.483 669.254 121.369C678.05 114.603 688.199 112.122 700.153 112.122C739.849 112.122 760.599 133.323 760.599 169.184C760.599 210.007 731.278 230.532 697.898 230.532C652.338 230.532 627.077 188.355 627.077 136.931C627.077 80.7712 657.3 43.3311 705.115 43.3311ZM697.672 225.783C715.265 225.783 721.805 213.829 721.805 203.229C721.805 192.628 717.746 187.892 717.746 171.427C717.746 154.962 721.805 150.226 721.805 139.174C721.805 128.123 717.069 116.62 700.153 116.62C675.795 116.62 671.058 128.348 671.058 139.174C671.058 147.971 674.892 154.962 674.892 171.427C674.892 187.892 671.058 192.403 671.058 203.229C671.058 216.31 681.884 225.783 697.672 225.783Z" fill="black"/>
</g>
<defs>
<clipPath id="clip0_63_795">
<rect width="803.811" height="293.181" fill="white" transform="translate(0.78125 0.540527)"/>
</clipPath>
</defs>
</svg>
