<svg width="879" height="193" viewBox="0 0 879 193" fill="none" xmlns="http://www.w3.org/2000/svg">
<g clip-path="url(#clip0_63_739)">
<path d="M568.374 191.813L810.52 92.8245V26.4146L568.374 125.403V191.813Z" fill="#878787"/>
<path d="M567.748 192.74V124.977L568.136 124.814L811.146 25.4746V93.2378L810.758 93.4007L567.748 192.74ZM569.001 125.816V190.873L809.893 92.3983V27.3416L569.001 125.816Z" fill="black"/>
<path d="M309.313 191.813L67.167 92.8245V26.4146L309.313 125.403V191.813Z" fill="#878787"/>
<path d="M309.939 192.74L309.075 192.389L66.5405 93.2378V25.4746L67.4051 25.8255L309.939 124.977V192.74ZM67.7935 92.3983L308.686 190.873V125.816L67.7935 27.3416V92.3983Z" fill="black"/>
<path d="M810.52 26.7151H501.024V93.125H810.52V26.7151Z" fill="white"/>
<path d="M811.146 93.7516H500.398V26.0886H811.146V93.7516ZM501.651 92.4986H809.893V27.3416H501.651V92.4986Z" fill="black"/>
<path d="M878.183 125.704H568.688V192.114H878.183V125.704Z" fill="white"/>
<path d="M878.809 192.74H568.061V125.077H878.809V192.74ZM569.314 191.487H877.556V126.33H569.314V191.487Z" fill="black"/>
<path d="M310.566 125.704H1.07031V192.114H310.566V125.704Z" fill="white"/>
<path d="M311.192 192.74H0.443848V125.077H311.192V192.74ZM1.69687 191.487H309.939V126.33H1.69687V191.487Z" fill="black"/>
<path d="M375.096 26.0886H65.6006V92.4986H375.096V26.0886Z" fill="white"/>
<path d="M375.723 93.1251H64.9741V25.4622H375.723V93.1251ZM66.2271 91.8721H374.47V26.7152H66.2271V91.8721Z" fill="black"/>
<path d="M375.096 91.8721L283.312 68.0647V1.65479L375.096 25.4621V91.8721Z" fill="#878787"/>
<path d="M375.723 92.674L282.686 68.5409V0.840332L375.723 24.9735V92.674ZM283.939 67.5761L374.47 91.0576V25.9383L283.939 2.45673V67.5761Z" fill="black"/>
<path d="M501.338 93.1252L593.121 69.3179V2.90796L501.338 26.7153V93.1252Z" fill="#878787"/>
<path d="M500.711 93.9272V26.2266L501.175 26.1013L593.748 2.09351V69.7941L593.284 69.9194L500.711 93.9272ZM501.964 27.1915V92.3108L592.494 68.8292V3.7099L501.964 27.1915Z" fill="black"/>
<path d="M592.808 1.65479H283.312V68.0647H592.808V1.65479Z" fill="white"/>
<path d="M593.434 68.691H282.686V1.02808H593.434V68.691ZM283.939 67.438H592.181V2.28109H283.939V67.438Z" fill="black"/>
<path d="M298.875 46.3625V45.6734H301.969V19.4853H298.875V18.7961H311.618V19.4853H308.51V45.6734H311.618V46.3625H298.875Z" fill="black"/>
<path d="M313.685 46.3625V45.6734H316.78V19.4853H313.685V18.7961H328.709C334.147 19.0092 336.528 21.7533 336.528 25.7504C336.528 28.9581 334.635 31.6772 330.676 32.429C336.152 32.7046 337.079 36.1129 337.079 39.1452V44.2449C337.079 45.2474 337.317 45.6608 337.906 45.6608H338.971V46.35H336.766C331.328 46.35 330.663 43.9693 330.663 39.8719V37.2907C330.663 34.1957 330.663 32.9177 328.358 32.9177H323.333V45.6608H326.428V46.35H313.685V46.3625ZM330.814 29.6473C330.814 28.3441 329.987 27.7928 329.987 25.7504C329.987 23.708 330.814 23.2068 330.814 21.8911C330.814 20.5754 329.924 19.4853 327.681 19.4853H323.346V32.2285H327.681C329.924 32.2285 330.814 30.988 330.814 29.6473Z" fill="black"/>
<path d="M339.835 46.3625V45.6734H342.93V19.4853H339.835V18.7961H354.859C360.297 19.0092 362.678 21.7533 362.678 25.7504C362.678 28.9581 360.786 31.6772 356.826 32.429C362.302 32.7046 363.229 36.1129 363.229 39.1452V44.2449C363.229 45.2474 363.467 45.6608 364.056 45.6608H365.121V46.35H362.916C357.478 46.35 356.814 43.9693 356.814 39.8719V37.2907C356.814 34.1957 356.814 32.9177 354.508 32.9177H349.484V45.6608H352.579V46.35H339.835V46.3625ZM356.964 29.6473C356.964 28.3441 356.137 27.7928 356.137 25.7504C356.137 23.708 356.964 23.2068 356.964 21.8911C356.964 20.5754 356.075 19.4853 353.832 19.4853H349.496V32.2285H353.832C356.075 32.2285 356.964 30.988 356.964 29.6473Z" fill="black"/>
<path d="M384.392 26.6526L382.124 21.3774C381.535 20.0366 381.022 19.4853 379.919 19.4853H375.646V32.1658C377.538 32.1283 379.43 30.9254 381.084 27.7552V37.5413C379.468 34.1957 377.538 32.9928 375.646 32.9552V45.6734H381.022C382.124 45.6734 382.713 45.0469 383.227 43.7813L385.846 37.4786L389.116 46.3625H365.998V45.6734H369.093V19.4853H365.998V18.7961H387.5L384.405 26.6526H384.392Z" fill="black"/>
<path d="M390.833 45.6734H393.928V19.4853H390.833V18.7961H404.817C410.255 19.0092 412.636 21.7533 412.636 25.7504C412.636 29.9856 410.055 32.9177 404.128 32.9177H400.482V45.6608H403.577V46.35H390.833V45.6608V45.6734ZM406.935 29.6473C406.935 28.3441 406.108 27.7928 406.108 25.7504C406.108 23.708 406.935 23.2068 406.935 21.8911C406.935 20.5754 406.045 19.4853 403.802 19.4853H400.494V32.2285H403.802C406.045 32.2285 406.935 30.988 406.935 29.6473Z" fill="black"/>
<path d="M425.266 45.6735H427.534L424.126 36.3385H415.956L415.78 36.7896C415.091 38.5438 415.405 39.0951 415.918 40.4734L417.886 45.6735H420.404V46.3626H409.202V45.6735H411.508L419.464 25.2117C420.567 22.3548 422.221 18.4203 422.221 17.0796H422.91L434.037 45.6735H436.443V46.3626H425.241V45.6735H425.266ZM423.85 35.6493L420.166 25.5249L416.244 35.6493H423.862H423.85Z" fill="black"/>
<path d="M436.117 46.3625V45.6734H439.212V19.4853H436.117V18.7961H451.141C456.579 19.0092 458.96 21.7533 458.96 25.7504C458.96 28.9581 457.068 31.6772 453.108 32.429C458.584 32.7046 459.511 36.1129 459.511 39.1452V44.2449C459.511 45.2474 459.749 45.6608 460.338 45.6608H461.403V46.35H459.198C453.76 46.35 453.096 43.9693 453.096 39.8719V37.2907C453.096 34.1957 453.096 32.9177 450.79 32.9177H445.765V45.6608H448.86V46.35H436.117V46.3625ZM453.246 29.6473C453.246 28.3441 452.419 27.7928 452.419 25.7504C452.419 23.708 453.246 23.2068 453.246 21.8911C453.246 20.5754 452.356 19.4853 450.113 19.4853H445.778V32.2285H450.113C452.356 32.2285 453.246 30.988 453.246 29.6473Z" fill="black"/>
<path d="M477.467 45.6735H479.734L476.326 36.3385H468.157L467.981 36.7896C467.292 38.5438 467.605 39.0951 468.119 40.4734L470.086 45.6735H472.605V46.3626H461.403V45.6735H463.708L471.665 25.2117C472.768 22.3548 474.422 18.4203 474.422 17.0796H475.111L486.238 45.6735H488.643V46.3626H477.441V45.6735H477.467ZM476.051 35.6493L472.367 25.5249L468.445 35.6493H476.063H476.051Z" fill="black"/>
<path d="M489.008 46.3625V45.6734H492.103V19.4853H489.008V18.7961H503.343C509.27 18.7961 511.851 21.5904 511.851 25.7504C511.851 29.0208 510.472 31.6772 505.999 32.4666C510.786 32.9427 512.54 35.7369 512.54 39.1827C512.54 43.4179 509.959 46.35 504.032 46.35H489.008V46.3625ZM498.657 19.4853V32.2285H502.992C505.235 32.2285 506.125 30.988 506.125 29.6473C506.125 28.3065 505.298 27.7928 505.298 25.7504C505.298 23.708 506.125 23.2068 506.125 21.8911C506.125 20.5754 505.235 19.4853 502.992 19.4853H498.657ZM506.826 43.0922C506.826 41.789 505.999 41.2252 505.999 39.1953C505.999 37.1654 506.826 36.6391 506.826 35.336C506.826 34.0328 505.937 32.9302 503.694 32.9302H498.669V45.6734H503.694C505.937 45.6734 506.826 44.4329 506.826 43.0922Z" fill="black"/>
<path d="M513.918 46.3625V45.6734H517.013V19.4853H513.918V18.7961H526.661V19.4853H523.566V45.6734H526.661V46.3625H513.918Z" fill="black"/>
<path d="M541.146 19.4853H538.051V45.6734H542.737C543.84 45.6734 544.429 45.0469 544.943 43.7813L547.561 37.4786L550.832 46.3625H528.403V45.6734H531.498V19.4853H528.403V18.7961H541.146V19.4853Z" fill="black"/>
<path d="M570.253 26.6526L567.985 21.3774C567.396 20.0366 566.882 19.4853 565.779 19.4853H561.507V32.1658C563.399 32.1283 565.291 30.9254 566.945 27.7552V37.5413C565.328 34.1957 563.399 32.9928 561.507 32.9552V45.6734H566.882C567.985 45.6734 568.574 45.0469 569.087 43.7813L571.706 37.4786L574.977 46.3625H551.858V45.6734H554.953V19.4853H551.858V18.7961H573.36L570.265 26.6526H570.253Z" fill="black"/>
<path d="M198.032 63.717C204.046 61.9628 206.991 62.0881 210.813 60.0833C207.116 58.2037 204.046 58.329 198.032 56.6375C193.082 55.1338 193.396 51.8134 194.21 50.2471C195.15 48.7435 197.907 46.8013 201.603 50.2471C206.176 54.6953 207.43 57.4519 211.063 59.7074C210.938 55.4471 209.246 52.9411 207.805 46.8013C206.552 41.8519 209.622 40.4109 211.377 40.4109C213.131 40.4109 216.201 41.8519 214.948 46.8013C213.507 52.8784 211.815 55.3845 211.69 59.5821C215.324 57.3893 216.577 54.6953 221.15 50.3724C224.846 46.8013 227.603 48.7435 228.418 50.2471C229.357 51.8134 229.671 55.1965 224.721 56.5748C218.707 58.329 215.762 58.2037 212.003 60.2086C215.637 62.0881 218.707 61.9628 224.721 63.6544C229.671 65.158 229.357 68.4785 228.543 69.9821C227.603 71.5484 224.846 73.4906 221.15 69.9821C216.577 65.5965 215.324 62.8399 211.69 60.5845C211.815 64.8447 213.507 67.3508 214.948 73.4906C216.201 78.44 213.131 79.881 211.377 79.881C209.622 79.881 206.552 78.44 207.805 73.4906C209.246 67.4761 210.875 64.9074 211.063 60.7724C207.43 62.9652 206.176 65.5965 201.603 69.9195C197.907 73.4906 195.15 71.5484 194.335 69.9821C193.396 68.4785 193.082 65.0953 198.032 63.717Z" fill="black"/>
<path d="M655.384 63.717C661.398 61.9628 664.343 62.0881 668.165 60.0833C664.468 58.2037 661.398 58.329 655.384 56.6375C650.435 55.1338 650.748 51.8134 651.562 50.2471C652.502 48.7435 655.259 46.8013 658.955 50.2471C663.529 54.6953 664.782 57.4519 668.415 59.7074C668.29 55.4471 666.598 52.9411 665.157 46.8013C663.904 41.8519 666.974 40.4109 668.729 40.4109C670.483 40.4109 673.553 41.8519 672.3 46.8013C670.859 52.8784 669.167 55.3845 669.042 59.5821C672.676 57.3893 673.929 54.6953 678.502 50.3724C682.199 46.8013 684.955 48.7435 685.77 50.2471C686.709 51.8134 687.023 55.1965 682.073 56.5748C676.059 58.329 673.114 58.2037 669.355 60.2086C672.989 62.0881 676.059 61.9628 682.073 63.6544C687.023 65.158 686.709 68.4785 685.895 69.9821C684.955 71.5484 682.199 73.4906 678.502 69.9821C673.929 65.5965 672.676 62.8399 669.042 60.5845C669.167 64.8447 670.859 67.3508 672.3 73.4906C673.553 78.44 670.483 79.881 668.729 79.881C666.974 79.881 663.904 78.44 665.157 73.4906C666.598 67.4761 668.227 64.9074 668.415 60.7724C664.782 62.9652 663.529 65.5965 658.955 69.9195C655.259 73.4906 652.502 71.5484 651.688 69.9821C650.748 68.4785 650.435 65.0953 655.384 63.717Z" fill="black"/>
<path d="M677.512 153.896L674.893 147.932C674.304 146.629 673.79 146.04 672.688 146.04H670.796V172.228H673.891V172.917H661.147V172.228H664.242V146.04H662.35C661.248 146.04 660.734 146.629 660.145 147.932L657.526 153.896L654.594 145.351H680.431L677.499 153.896H677.512Z" fill="black"/>
<path d="M699.19 153.207L696.922 147.932C696.333 146.591 695.819 146.04 694.716 146.04H690.444V158.721C692.336 158.683 694.228 157.48 695.882 154.31V164.096C694.265 160.75 692.336 159.548 690.444 159.51V172.228H695.819C696.922 172.228 697.511 171.602 698.024 170.336L700.643 164.033L703.914 172.917H680.795V172.228H683.89V146.04H680.795V145.351H702.297L699.202 153.207H699.19Z" fill="black"/>
<path d="M704.941 172.228H707.071L708.036 164.033V147.493L706.658 145.363H714.1L719.539 153.257L724.676 145.363H733.084V146.052H729.989V172.241H733.084V172.93H720.341V172.241H723.435V148.609L718.336 156.528C717.233 158.257 716.719 159.046 716.506 159.76H715.479C715.303 159.034 715.003 158.244 713.9 156.528L708.763 148.609V161.151C708.763 164.008 709.727 165.186 710.592 166.627L713.963 172.241H717.684V172.93H704.941V172.241V172.228Z" fill="black"/>
<path d="M734.825 172.228H737.92V146.04H734.825V145.351H748.808C754.246 145.564 756.627 148.308 756.627 152.305C756.627 156.54 754.046 159.472 748.119 159.472H744.473V172.216H747.568V172.905H734.825V172.216V172.228ZM750.913 156.202C750.913 154.899 750.086 154.347 750.086 152.305C750.086 150.263 750.913 149.761 750.913 148.446C750.913 147.13 750.024 146.04 747.781 146.04H744.473V158.783H747.781C750.024 158.783 750.913 157.543 750.913 156.202Z" fill="black"/>
<path d="M772.178 173.431C763.846 173.431 759.573 170.198 759.573 161.577V146.04H756.992V145.351H769.735V146.04H766.978V166.715C766.978 169.434 767.454 172.742 772.178 172.742C776.451 172.742 779.245 169.81 779.245 164.647V146.04H775.799V145.351H783.205V146.04H780.11V164.647C780.11 170.536 776.977 173.431 772.191 173.431H772.178Z" fill="black"/>
<path d="M786.925 163.207L787.79 167.404C788.404 170.399 789.369 172.742 792.576 172.742C795.571 172.742 797.325 170.474 797.325 167.742C797.325 164.71 795.772 163.156 793.128 161.891L789.757 160.274C786.349 158.658 783.968 155.964 783.968 152.355C783.968 147.193 788.717 144.85 792.99 144.85C796.361 144.85 797.438 145.364 799.606 145.364C800.395 145.364 801.498 145.263 802.4 145.025L799.23 153.671L796.511 148.258C795.546 146.366 794.306 145.539 792.313 145.539C788.968 145.539 787.903 147.807 787.903 149.499C787.903 151.741 789.482 153.045 791.449 154.009L796.924 156.691C801.536 158.959 802.475 162.279 802.475 164.234C802.475 170.086 797.513 173.431 792.238 173.431C788.141 173.431 783.83 171.602 781.487 169.985L786.925 163.194V163.207Z" fill="black"/>
<path d="M90.5234 172.917V172.228H93.6184V146.04H90.5234V145.351H112.025L108.93 153.207L106.662 147.932C106.073 146.591 105.56 146.04 104.457 146.04H100.184V158.721C102.114 158.683 104.319 157.48 105.973 154.31V164.096C104.357 160.75 102.114 159.548 100.184 159.51V172.228H103.279V172.917H90.536H90.5234Z" fill="black"/>
<path d="M126.874 173.431C118.541 173.431 114.268 170.198 114.268 161.577V146.04H111.687V145.351H124.43V146.04H121.674V166.715C121.674 169.434 122.15 172.742 126.874 172.742C131.146 172.742 133.941 169.81 133.941 164.647V146.04H130.495V145.351H137.9V146.04H134.805V164.647C134.805 170.536 131.673 173.431 126.886 173.431H126.874Z" fill="black"/>
<path d="M163.198 158.896H160.103V173.431L156.933 171.877C155.179 172.805 153.111 173.431 150.868 173.431C142.536 173.431 137.912 167.78 137.912 159.134C137.912 150.488 142.523 144.837 150.517 144.837C154.652 144.837 156.131 145.84 159.928 145.013L156.757 153.658L154.377 148.734C153.211 146.291 151.833 145.526 149.828 145.526C145.631 145.526 144.39 148.483 144.39 151.215C144.39 153.947 145.317 155.074 145.317 159.134C145.317 163.194 144.39 164.372 144.39 167.053C144.39 169.735 145.806 172.742 150.868 172.742C151.695 172.742 152.623 172.679 153.562 172.429V158.883H150.467V158.194H163.211V158.883L163.198 158.896Z" fill="black"/>
<path d="M164.577 172.917V172.228H167.672V146.04H164.577V145.351H177.32V146.04H174.213V172.228H177.32V172.917H164.577Z" fill="black"/>
<path d="M201.616 153.896L198.997 147.932C198.408 146.629 197.894 146.04 196.792 146.04H194.9V172.228H197.995V172.917H185.252V172.228H188.346V146.04H186.454C185.352 146.04 184.838 146.629 184.249 147.932L181.63 153.896L178.698 145.351H204.535L201.603 153.896H201.616Z" fill="black"/>
</g>
<defs>
<clipPath id="clip0_63_739">
<rect width="878.365" height="191.9" fill="white" transform="translate(0.443848 0.840332)"/>
</clipPath>
</defs>
</svg>
