<svg width="879" height="193" viewBox="0 0 879 193" fill="none" xmlns="http://www.w3.org/2000/svg">
<g clip-path="url(#clip0_63_868)">
<path d="M310.626 1.42139L68.48 100.41V166.82L310.626 67.8313V1.42139Z" fill="#878787"/>
<path d="M67.8535 167.76V99.9968L68.242 99.8339L311.252 0.494629V68.2578L310.864 68.4207L67.8535 167.76ZM69.1065 100.836V165.893L309.999 67.4183V2.36163L69.1065 100.836Z" fill="black"/>
<path d="M569.688 1.42139L811.833 100.41V166.82L569.688 67.8313V1.42139Z" fill="#878787"/>
<path d="M812.46 167.76L811.595 167.409L569.061 68.2576V0.494385L569.926 0.84523L812.46 99.9965V167.76ZM570.314 67.4181L811.207 165.893V100.836L570.314 2.36138V67.4181Z" fill="black"/>
<path d="M377.975 100.109H68.48V166.519H377.975V100.109Z" fill="white"/>
<path d="M378.602 167.146H67.8535V99.4829H378.602V167.146ZM69.1065 165.893H377.349V100.736H69.1065V165.893Z" fill="black"/>
<path d="M310.312 1.12109H0.816895V67.531H310.312V1.12109Z" fill="white"/>
<path d="M310.939 68.1576H0.19043V0.494629H310.939V68.1576ZM1.44345 66.9046H309.686V1.74765H1.44345V66.9046Z" fill="black"/>
<path d="M877.93 1.12109H568.434V67.531H877.93V1.12109Z" fill="white"/>
<path d="M878.556 68.1576H567.808V0.494629H878.556V68.1576ZM569.061 66.9046H877.303V1.74765H569.061V66.9046Z" fill="black"/>
<path d="M813.4 100.736H503.904V167.146H813.4V100.736Z" fill="white"/>
<path d="M814.026 167.772H503.278V100.109H814.026V167.772ZM504.531 166.519H812.773V101.362H504.531V166.519Z" fill="black"/>
<path d="M503.904 101.362L595.688 125.17V191.58L503.904 167.772V101.362Z" fill="#878787"/>
<path d="M596.314 192.394L503.278 168.261V100.561L596.314 124.694V192.394ZM504.531 167.296L595.061 190.778V125.658L504.531 102.177V167.296Z" fill="black"/>
<path d="M377.662 100.109L285.879 123.917V190.327L377.662 166.519V100.109Z" fill="#878787"/>
<path d="M285.252 191.141V123.441L285.716 123.315L378.289 99.3076V167.008L377.825 167.133L285.252 191.141ZM286.505 124.406V189.525L377.036 166.043V100.924L286.505 124.406Z" fill="black"/>
<path d="M286.192 191.592L595.688 191.592V125.182L286.192 125.182V191.592Z" fill="white"/>
<path d="M596.314 192.206H285.565V124.543H596.314V192.206ZM286.818 190.953H595.061V125.796H286.818V190.953Z" fill="black"/>
<path d="M300.113 171.607V170.918H303.208V144.73H300.113V144.041H312.856V144.73H309.749V170.918H312.856V171.607H300.113Z" fill="black"/>
<path d="M314.924 171.607V170.918H318.019V144.73H314.924V144.041H329.948C335.386 144.254 337.766 146.998 337.766 150.995C337.766 154.203 335.874 156.922 331.915 157.673C337.39 157.949 338.318 161.357 338.318 164.39V169.489C338.318 170.492 338.556 170.905 339.145 170.905H340.21V171.594H338.004C332.566 171.594 331.902 169.214 331.902 165.116V162.535C331.902 159.44 331.902 158.162 329.597 158.162H324.572V170.905H327.667V171.594H314.924V171.607ZM332.053 154.892C332.053 153.589 331.226 153.037 331.226 150.995C331.226 148.952 332.053 148.451 332.053 147.135C332.053 145.82 331.163 144.73 328.92 144.73H324.585V157.473H328.92C331.163 157.473 332.053 156.232 332.053 154.892Z" fill="black"/>
<path d="M341.074 171.607V170.918H344.169V144.73H341.074V144.041H356.097C361.536 144.254 363.916 146.998 363.916 150.995C363.916 154.203 362.024 156.922 358.065 157.673C363.54 157.949 364.468 161.357 364.468 164.39V169.489C364.468 170.492 364.706 170.905 365.295 170.905H366.36V171.594H364.154C358.716 171.594 358.052 169.214 358.052 165.116V162.535C358.052 159.44 358.052 158.162 355.747 158.162H350.722V170.905H353.817V171.594H341.074V171.607ZM358.203 154.892C358.203 153.589 357.376 153.037 357.376 150.995C357.376 148.952 358.203 148.451 358.203 147.135C358.203 145.82 357.313 144.73 355.07 144.73H350.735V157.473H355.07C357.313 157.473 358.203 156.232 358.203 154.892Z" fill="black"/>
<path d="M385.631 151.897L383.363 146.622C382.774 145.281 382.261 144.73 381.158 144.73H376.885V157.41C378.777 157.373 380.669 156.17 382.323 153V162.786C380.707 159.44 378.777 158.237 376.885 158.2V170.918H382.261C383.363 170.918 383.952 170.291 384.466 169.026L387.085 162.723L390.355 171.607H367.237V170.918H370.332V144.73H367.237V144.041H388.739L385.644 151.897H385.631Z" fill="black"/>
<path d="M392.072 170.918H395.167V144.73H392.072V144.041H406.055C411.494 144.254 413.874 146.998 413.874 150.995C413.874 155.23 411.293 158.162 405.366 158.162H401.72V170.905H404.815V171.594H392.072V170.905V170.918ZM408.161 154.892C408.161 153.589 407.334 153.037 407.334 150.995C407.334 148.952 408.161 148.451 408.161 147.135C408.161 145.82 407.271 144.73 405.028 144.73H401.72V157.473H405.028C407.271 157.473 408.161 156.232 408.161 154.892Z" fill="black"/>
<path d="M426.505 170.918H428.773L425.364 161.583H417.195L417.019 162.034C416.33 163.788 416.643 164.339 417.157 165.718L419.124 170.918H421.643V171.607H410.441V170.918H412.746L420.703 150.456C421.806 147.599 423.46 143.664 423.46 142.324H424.149L435.276 170.918H437.682V171.607H426.48V170.918H426.505ZM425.089 160.893L421.405 150.769L417.483 160.893H425.101H425.089Z" fill="black"/>
<path d="M437.355 171.607V170.918H440.45V144.73H437.355V144.041H452.379C457.817 144.254 460.198 146.998 460.198 150.995C460.198 154.203 458.306 156.922 454.346 157.673C459.822 157.949 460.749 161.357 460.749 164.39V169.489C460.749 170.492 460.987 170.905 461.576 170.905H462.641V171.594H460.436C454.998 171.594 454.334 169.214 454.334 165.116V162.535C454.334 159.44 454.334 158.162 452.028 158.162H447.004V170.905H450.099V171.594H437.355V171.607ZM454.472 154.892C454.472 153.589 453.645 153.037 453.645 150.995C453.645 148.952 454.472 148.451 454.472 147.135C454.472 145.82 453.582 144.73 451.339 144.73H447.004V157.473H451.339C453.582 157.473 454.472 156.232 454.472 154.892Z" fill="black"/>
<path d="M478.705 170.918H480.973L477.565 161.583H469.395L469.22 162.034C468.531 163.788 468.844 164.339 469.358 165.718L471.325 170.918H473.844V171.607H462.642V170.918H464.947L472.904 150.456C474.006 147.599 475.66 143.664 475.66 142.324H476.35L487.476 170.918H489.882V171.607H478.68V170.918H478.705ZM477.289 160.893L473.606 150.769L469.684 160.893H477.302H477.289Z" fill="black"/>
<path d="M490.246 171.607V170.918H493.341V144.73H490.246V144.041H504.581C510.507 144.041 513.089 146.835 513.089 150.995C513.089 154.265 511.71 156.922 507.237 157.711C512.024 158.187 513.778 160.981 513.778 164.427C513.778 168.662 511.197 171.594 505.27 171.594H490.246V171.607ZM499.894 144.73V157.473H504.23C506.473 157.473 507.362 156.232 507.362 154.892C507.362 153.551 506.535 153.037 506.535 150.995C506.535 148.952 507.362 148.451 507.362 147.135C507.362 145.82 506.473 144.73 504.23 144.73H499.894ZM508.064 168.324C508.064 167.021 507.237 166.457 507.237 164.427C507.237 162.397 508.064 161.871 508.064 160.568C508.064 159.265 507.174 158.162 504.931 158.162H499.907V170.905H504.931C507.174 170.905 508.064 169.665 508.064 168.324Z" fill="black"/>
<path d="M515.156 171.607V170.918H518.251V144.73H515.156V144.041H527.899V144.73H524.804V170.918H527.899V171.607H515.156Z" fill="black"/>
<path d="M542.384 144.73H539.289V170.918H543.975C545.078 170.918 545.667 170.291 546.18 169.026L548.799 162.723L552.07 171.607H529.641V170.918H532.736V144.73H529.641V144.041H542.384V144.73Z" fill="black"/>
<path d="M571.491 151.897L569.224 146.622C568.635 145.281 568.121 144.73 567.018 144.73H562.745V157.41C564.637 157.373 566.529 156.17 568.183 153V162.786C566.567 159.44 564.637 158.237 562.745 158.2V170.918H568.121C569.223 170.918 569.812 170.291 570.326 169.026L572.945 162.723L576.215 171.607H553.097V170.918H556.192V144.73H553.097V144.041H574.599L571.504 151.897H571.491Z" fill="black"/>
<path d="M653.652 136.973C659.667 135.219 662.612 135.344 666.433 133.339C662.737 131.46 659.667 131.585 653.652 129.894C648.703 128.39 649.016 125.069 649.831 123.503C650.771 122 653.527 120.057 657.224 123.503C661.797 127.951 663.05 130.708 666.684 132.963C666.559 128.703 664.867 126.197 663.426 120.057C662.173 115.108 665.243 113.667 666.997 113.667C668.751 113.667 671.821 115.108 670.568 120.057C669.127 126.135 667.436 128.641 667.31 132.838C670.944 130.645 672.197 127.951 676.771 123.628C680.467 120.057 683.224 122 684.038 123.503C684.978 125.069 685.291 128.453 680.342 129.831C674.327 131.585 671.383 131.46 667.624 133.465C671.257 135.344 674.327 135.219 680.342 136.91C685.291 138.414 684.978 141.735 684.163 143.238C683.224 144.804 680.467 146.747 676.771 143.238C672.197 138.853 670.944 136.096 667.31 133.841C667.436 138.101 669.127 140.607 670.568 146.747C671.821 151.696 668.751 153.137 666.997 153.137C665.243 153.137 662.173 151.696 663.426 146.747C664.867 140.732 666.496 138.163 666.684 134.029C663.05 136.221 661.797 138.853 657.224 143.176C653.527 146.747 650.771 144.804 649.956 143.238C649.016 141.735 648.703 138.351 653.652 136.973Z" fill="black"/>
<path d="M196.301 136.973C202.315 135.219 205.26 135.344 209.082 133.339C205.385 131.46 202.315 131.585 196.301 129.894C191.351 128.39 191.665 125.069 192.479 123.503C193.419 122 196.176 120.057 199.872 123.503C204.446 127.951 205.699 130.708 209.332 132.963C209.207 128.703 207.515 126.197 206.074 120.057C204.821 115.108 207.891 113.667 209.646 113.667C211.4 113.667 214.47 115.108 213.217 120.057C211.776 126.135 210.084 128.641 209.959 132.838C213.593 130.645 214.846 127.951 219.419 123.628C223.116 120.057 225.872 122 226.687 123.503C227.626 125.069 227.94 128.453 222.99 129.831C216.976 131.585 214.031 131.46 210.272 133.465C213.906 135.344 216.976 135.219 222.99 136.91C227.94 138.414 227.626 141.735 226.812 143.238C225.872 144.804 223.116 146.747 219.419 143.238C214.846 138.853 213.593 136.096 209.959 133.841C210.084 138.101 211.776 140.607 213.217 146.747C214.47 151.696 211.4 153.137 209.646 153.137C207.891 153.137 204.821 151.696 206.074 146.747C207.515 140.732 209.144 138.163 209.332 134.029C205.699 136.221 204.446 138.853 199.872 143.176C196.176 146.747 193.419 144.804 192.605 143.238C191.665 141.735 191.351 138.351 196.301 136.973Z" fill="black"/>
<path d="M96.698 27.2836L94.0792 21.3193C93.4902 20.0161 92.9765 19.4272 91.8738 19.4272H89.9818V45.6153H93.0767V46.3044H80.3336V45.6153H83.4285V19.4272H81.5365C80.4338 19.4272 79.9201 20.0161 79.3311 21.3193L76.7123 27.2836L73.7803 18.738H99.6175L96.6854 27.2836H96.698Z" fill="black"/>
<path d="M118.376 26.5945L116.108 21.3193C115.519 19.9785 115.005 19.4272 113.902 19.4272H109.63V32.1077C111.522 32.0701 113.414 30.8672 115.068 27.6971V37.4832C113.451 34.1376 111.522 32.9347 109.63 32.8971V45.6153H115.005C116.108 45.6153 116.697 44.9888 117.21 43.7232L119.829 37.4205L123.1 46.3044H99.9814V45.6153H103.076V19.4272H99.9814V18.738H121.483L118.388 26.5945H118.376Z" fill="black"/>
<path d="M124.127 45.6153H126.257L127.222 37.4205V20.8807L125.844 18.738H133.287L138.725 26.6321L143.862 18.738H152.27V19.4272H149.175V45.6153H152.27V46.3044H139.527V45.6153H142.621V21.9834L137.522 29.9024C136.419 31.6316 135.905 32.421 135.692 33.1352H134.665C134.489 32.4085 134.189 31.6191 133.086 29.9024L127.949 21.9834V34.5261C127.949 37.3829 128.913 38.5608 129.778 40.0018L133.149 45.6153H136.87V46.3044H124.127V45.6153Z" fill="black"/>
<path d="M153.999 45.6153H157.094V19.4272H153.999V18.738H167.983C173.421 18.9511 175.802 21.7077 175.802 25.6923C175.802 29.9275 173.22 32.8595 167.294 32.8595H163.647V45.6027H166.742V46.2919H153.999V45.6027V45.6153ZM170.1 29.5892C170.1 28.286 169.273 27.7347 169.273 25.6923C169.273 23.6499 170.1 23.1361 170.1 21.833C170.1 20.5299 169.211 19.4272 166.968 19.4272H163.66V32.1704H166.968C169.211 32.1704 170.1 30.9299 170.1 29.5892Z" fill="black"/>
<path d="M191.351 46.8182C183.019 46.8182 178.746 43.5854 178.746 34.9646V19.4272H176.165V18.738H188.908V19.4272H186.151V40.102C186.151 42.821 186.627 46.129 191.351 46.129C195.624 46.129 198.418 43.1969 198.418 38.0345V19.4272H194.972V18.738H202.378V19.4272H199.283V38.0345C199.283 43.9237 196.15 46.8182 191.364 46.8182H191.351Z" fill="black"/>
<path d="M206.099 36.5813L206.964 40.7789C207.578 43.7736 208.543 46.1168 211.75 46.1168C214.745 46.1168 216.499 43.8488 216.499 41.1172C216.499 38.0849 214.946 36.5312 212.302 35.2657L208.931 33.6493C205.523 32.0329 203.142 29.3389 203.142 25.7302C203.142 20.5678 207.891 18.2246 212.164 18.2246C215.534 18.2246 216.612 18.7383 218.78 18.7383C219.569 18.7383 220.672 18.6381 221.574 18.4L218.404 27.0459L215.685 21.6328C214.72 19.7408 213.48 18.9138 211.487 18.9138C208.142 18.9138 207.077 21.1817 207.077 22.8733C207.077 25.1162 208.655 26.4193 210.623 27.3842L216.098 30.0782C220.709 32.3461 221.649 35.6541 221.649 37.6213C221.649 43.4729 216.687 46.8185 211.412 46.8185C207.315 46.8185 203.004 44.9891 200.661 43.3727L206.099 36.5813Z" fill="black"/>
<path d="M673.426 46.3042V45.615H676.521V19.427H673.426V18.7378H694.928L691.833 26.5942L689.565 21.319C688.976 19.9783 688.462 19.427 687.359 19.427H683.087V32.1075C685.016 32.0699 687.222 30.867 688.876 27.6969V37.4829C687.259 34.1374 685.016 32.9345 683.087 32.8969V45.615H686.181V46.3042H673.438H673.426Z" fill="black"/>
<path d="M709.776 46.8179C701.444 46.8179 697.171 43.5851 697.171 34.9644V19.427H694.59V18.7378H707.333V19.427H704.576V40.1017C704.576 42.8208 705.053 46.1288 709.776 46.1288C714.049 46.1288 716.843 43.1967 716.843 38.0343V19.427H713.398V18.7378H720.803V19.427H717.708V38.0343C717.708 43.9234 714.575 46.8179 709.789 46.8179H709.776Z" fill="black"/>
<path d="M746.089 32.2832H742.994V46.8182L739.824 45.2645C738.069 46.1917 736.002 46.8182 733.759 46.8182C725.426 46.8182 720.803 41.1671 720.803 32.5213C720.803 23.8755 725.414 18.2244 733.408 18.2244C737.543 18.2244 739.022 19.2268 742.818 18.3998L739.648 27.0456L737.267 22.1213C736.102 19.6779 734.724 18.9135 732.719 18.9135C728.521 18.9135 727.281 21.8706 727.281 24.6022C727.281 27.3338 728.208 28.4615 728.208 32.5213C728.208 36.5811 727.281 37.7589 727.281 40.4404C727.281 43.1218 728.697 46.1291 733.759 46.1291C734.586 46.1291 735.513 46.0664 736.453 45.8158V32.2707H733.358V31.5815H746.101V32.2707L746.089 32.2832Z" fill="black"/>
<path d="M747.479 46.3042V45.615H750.574V19.427H747.479V18.7378H760.223V19.427H757.115V45.615H760.223V46.3042H747.479Z" fill="black"/>
<path d="M784.518 27.2834L781.899 21.319C781.311 20.0159 780.797 19.427 779.694 19.427H777.802V45.615H780.897V46.3042H768.154V45.615H771.249V19.427H769.357C768.254 19.427 767.74 20.0159 767.152 21.319L764.533 27.2834L761.601 18.7378H787.438L784.506 27.2834H784.518Z" fill="black"/>
</g>
<defs>
<clipPath id="clip0_63_868">
<rect width="878.365" height="191.9" fill="white" transform="translate(0.19043 0.494629)"/>
</clipPath>
</defs>
</svg>
