<svg width="636" height="930" viewBox="0 0 636 930" fill="none" xmlns="http://www.w3.org/2000/svg">
<g clip-path="url(#clip0_91_26)">
<path d="M240.606 95.043C240.606 95.043 212.925 58.1721 176.856 72.4177C123.08 93.6603 144.142 151.187 144.142 151.187C144.142 151.187 154.208 177.164 177.695 183.868" stroke="white" stroke-width="2" stroke-miterlimit="10"/>
<path d="M204.537 69.9038C204.537 69.9038 203.698 67.3899 207.054 66.5519C210.409 65.7139 232.218 62.362 254.028 73.2557C275.837 84.1493 287.58 95.881 288.419 101.747C289.258 107.613 287.58 118.506 287.58 118.506C287.58 118.506 295.968 122.696 297.646 127.724C299.324 132.752 295.13 142.808 295.13 142.808C295.13 142.808 297.646 151.187 298.485 157.053C299.324 162.919 271.643 181.354 271.643 181.354" stroke="white" stroke-width="2" stroke-miterlimit="10"/>
<path d="M296.807 152.025C296.807 152.025 289.258 146.997 283.386 150.349C277.514 153.701 271.643 157.891 269.126 162.081C266.61 166.271 259.06 178.84 255.705 180.516C252.35 182.192 247.317 178.84 244.8 179.678C242.284 180.516 229.702 193.086 227.185 193.086C224.669 193.086 217.958 192.248 216.281 193.086C214.603 193.924 208.731 201.466 208.731 201.466L186.083 191.41" stroke="white" stroke-width="2" stroke-miterlimit="10"/>
<path d="M205.376 191.41C205.376 191.41 190.277 191.41 180.212 188.896C170.146 186.382 159.241 172.975 159.241 172.975" stroke="white" stroke-width="2" stroke-miterlimit="10"/>
<path d="M295.13 157.053C295.13 157.053 290.097 156.215 285.903 157.053C281.709 157.891 263.255 183.03 259.061 185.544" stroke="white" stroke-width="2" stroke-miterlimit="10"/>
<path d="M232.218 192.248C232.218 192.248 245.639 197.276 252.35 196.438C259.06 195.6 269.965 188.896 277.514 188.058C285.064 187.22 302.679 184.706 305.195 186.382C307.712 188.058 306.034 198.114 306.034 198.952C306.034 199.79 296.807 203.142 295.13 204.818C293.452 206.493 289.258 204.818 288.419 204.818C287.58 204.818 282.547 207.331 280.87 208.169C279.192 209.007 270.804 208.169 269.965 208.169C269.126 208.169 262.416 214.035 260.738 214.035C259.06 214.035 253.189 212.359 251.511 212.359C249.833 212.359 249.833 219.901 245.639 219.901C241.445 219.901 237.251 216.549 237.251 216.549C237.251 216.549 239.768 208.169 238.09 206.493C236.412 204.818 228.024 195.6 228.024 195.6L232.218 192.248Z" stroke="white" stroke-width="2" stroke-miterlimit="10"/>
<path d="M241.445 192.248C241.445 192.248 259.899 183.868 267.449 183.03C274.998 182.192 306.034 175.488 306.034 175.488L305.195 183.03" stroke="white" stroke-width="2" stroke-miterlimit="10"/>
<path d="M174.34 171.299C175.179 172.137 192.794 184.706 209.57 184.706C226.347 184.706 237.251 173.813 237.251 173.813" stroke="white" stroke-width="2" stroke-miterlimit="10"/>
<path d="M191.955 146.159C191.955 146.997 193.633 154.539 200.343 156.215C207.054 157.891 220.475 147.835 220.475 147.835" stroke="white" stroke-width="2" stroke-miterlimit="10"/>
<path d="M243.073 143.259C247.617 140.059 247.189 131.639 242.118 124.452C237.047 117.265 229.252 114.032 224.708 117.232C220.164 120.432 220.592 128.852 225.663 136.039C230.735 143.226 238.529 146.459 243.073 143.259Z" stroke="white" stroke-width="2" stroke-miterlimit="10"/>
<path d="M279.146 117.28C283.69 114.08 283.263 105.66 278.191 98.473C273.12 91.2859 265.325 88.0535 260.782 91.2532C256.238 94.4529 256.666 102.873 261.737 110.06C266.808 117.247 274.603 120.48 279.146 117.28Z" stroke="white" stroke-width="2" stroke-miterlimit="10"/>
<path d="M209.57 203.142C209.57 203.142 209.57 205.656 210.409 208.169C211.248 210.683 215.442 212.359 215.442 212.359C215.442 212.359 212.925 215.711 213.764 218.225C214.603 220.739 218.797 225.767 218.797 225.767C218.797 225.767 210.409 231.633 204.537 236.661C198.666 241.688 187.761 248.392 186.083 252.582C184.406 256.772 177.695 269.342 182.728 281.073C187.761 292.805 221.314 323.81 223.83 328.838C226.347 333.866 226.347 347.273 226.347 347.273C226.347 347.273 241.445 372.412 246.478 375.764C251.511 379.116 254.866 395.038 255.705 398.39C256.544 401.741 256.544 422.691 254.028 431.908C251.511 441.126 248.156 462.913 244.801 466.265C241.445 469.617 236.412 475.483 234.735 476.321C233.057 477.159 227.185 494.756 230.541 509.002C233.896 523.248 257.383 550.901 257.383 550.901L277.514 575.202L337.07 691.68C337.07 691.68 338.748 692.518 337.909 695.87C337.07 699.222 306.873 730.227 306.873 730.227C306.873 730.227 284.225 741.959 275.837 752.852C267.449 763.746 255.705 786.371 250.672 794.751C245.639 803.131 215.442 833.298 215.442 833.298C215.442 833.298 197.827 831.622 192.794 836.65C187.761 841.678 192.794 855.923 192.794 855.923C192.794 855.923 211.248 865.979 222.991 877.711C234.735 889.442 228.863 898.66 228.863 898.66C228.863 898.66 237.251 908.716 241.445 907.878C241.445 907.878 246.478 922.123 250.672 926.313C254.866 930.503 270.804 928.827 270.804 928.827C270.804 928.827 260.738 914.581 255.705 905.364C250.672 896.146 248.156 858.437 244.801 855.923C241.445 853.409 245.639 848.381 245.639 848.381C245.639 848.381 269.965 811.511 284.225 801.455C298.485 791.399 321.972 776.316 328.682 768.774C335.393 761.232 368.946 720.171 368.946 720.171C368.946 720.171 384.044 717.657 387.4 705.088C390.755 692.518 380.689 679.949 380.689 679.949C380.689 679.949 344.62 596.989 345.459 596.151C346.297 595.313 334.554 557.605 334.554 557.605C334.554 557.605 345.459 554.253 347.975 552.577C350.492 550.901 387.4 565.984 400.821 567.66C414.242 569.336 468.765 581.068 478.831 582.744C488.896 584.42 513.222 590.285 514.9 591.123C516.577 591.961 515.739 604.531 515.739 604.531C515.739 604.531 488.896 621.291 479.669 633.86C470.442 646.43 430.179 712.63 430.179 712.63L408.37 751.176C408.37 751.176 394.949 752.014 389.077 762.908C383.205 773.802 393.271 782.181 393.271 782.181C393.271 782.181 407.531 788.885 410.886 788.047C414.242 787.209 420.952 794.751 426.824 798.103C432.696 801.455 444.439 804.807 444.439 804.807C444.439 804.807 450.311 814.024 452.827 814.862C455.344 815.7 457.86 814.024 457.86 814.024L456.183 807.321C456.183 807.321 465.41 814.862 467.926 815.7C470.442 816.538 475.475 814.024 475.475 814.024L468.765 805.645C468.765 805.645 481.347 815.7 485.541 815.7C489.735 815.7 493.929 808.997 493.929 808.997L479.669 800.617C479.669 800.617 493.929 805.645 498.962 806.483C503.995 807.321 509.028 803.969 509.028 803.969L499.801 798.103C499.801 798.103 510.706 803.131 514.061 802.293C517.416 801.455 522.449 793.913 522.449 793.913L520.772 788.885H493.091C493.091 788.885 463.732 770.45 458.699 766.26C453.666 762.07 441.923 757.88 441.923 757.88V744.473L467.926 705.088C467.926 705.088 499.801 677.435 508.189 666.541C516.577 655.647 545.936 616.263 546.775 613.749C547.614 611.235 560.196 606.207 560.196 606.207C560.196 606.207 579.489 596.989 576.972 583.582C574.456 570.174 567.745 560.956 551.808 557.605C535.87 554.253 519.933 543.359 519.933 543.359L441.923 519.896C441.923 519.896 398.304 503.974 384.883 502.298C371.462 500.622 375.656 499.784 375.656 499.784C375.656 499.784 379.011 488.053 379.85 481.349C380.689 474.645 381.528 452.02 377.334 446.154C373.14 440.288 368.107 433.584 368.107 433.584V402.579L369.784 374.088C369.784 374.088 375.656 363.195 375.656 358.167C375.656 353.139 374.817 341.407 374.817 341.407" stroke="white" stroke-width="2" stroke-miterlimit="10"/>
<path d="M278.605 209.142C277.514 212.368 280.031 214.882 276.676 215.72C273.32 216.558 271.643 218.234 270.804 218.234C269.965 218.234 271.643 219.071 272.481 221.585C273.32 224.099 264.093 227.451 264.093 227.451C264.093 227.451 273.32 232.479 278.353 233.317C283.386 234.155 295.13 233.317 300.162 234.155C305.195 234.993 332.876 247.563 333.715 252.59C334.554 257.618 336.232 257.618 336.232 257.618L346.297 264.322C346.297 264.322 364.751 284.433 368.945 288.623C373.14 292.813 409.209 317.114 410.886 318.79C412.564 320.466 420.952 328.846 420.113 333.036C419.275 337.226 424.307 335.55 425.146 335.55C425.985 335.55 433.534 336.388 438.567 342.254C443.6 348.119 467.926 375.773 467.926 375.773L512.383 415.995C512.383 415.995 517.416 423.537 519.933 426.051C522.449 428.565 531.676 428.565 537.548 432.755C543.42 436.945 551.808 447.838 553.485 449.514C555.163 451.19 562.712 457.056 562.712 457.056C562.712 457.056 563.551 462.922 561.874 463.76C560.196 464.598 549.291 458.732 545.936 457.056C542.581 455.38 550.13 465.436 550.13 465.436C550.13 465.436 548.453 470.464 545.936 472.14C543.42 473.816 530.837 461.246 530.837 461.246L534.193 474.653C534.193 474.653 532.515 476.329 529.999 478.005C527.482 479.681 524.127 477.167 524.127 477.167L518.255 464.598L516.577 472.978C516.577 472.978 517.416 475.491 514.9 475.491C512.383 475.491 503.995 468.788 503.995 468.788C503.995 468.788 495.607 443.648 491.413 436.107C487.219 428.565 467.926 405.94 457.021 399.236C446.117 392.532 409.209 366.555 409.209 366.555L408.37 359.013L399.982 354.823C399.982 354.823 347.975 317.952 337.909 308.735C327.843 299.517 315.261 291.975 310.228 291.137C305.195 290.299 294.291 290.299 293.452 289.461C292.613 288.623 289.258 285.271 289.258 282.757C289.258 280.244 293.452 269.35 293.452 268.512C293.452 267.674 285.903 255.942 284.225 252.59C282.547 249.239 285.064 242.535 285.903 240.859C286.741 239.183 297.646 239.183 297.646 239.183L306.034 245.049" stroke="white" stroke-width="2" stroke-miterlimit="10"/>
<path d="M222.153 212.359C225.508 213.197 232.218 210.683 232.218 210.683" stroke="white" stroke-width="2" stroke-miterlimit="10"/>
<path d="M222.991 218.225C222.991 218.225 236.412 225.767 242.284 226.605C248.156 227.443 252.35 226.605 254.027 225.767C255.705 224.929 259.899 219.901 259.899 219.901" stroke="white" stroke-width="2" stroke-miterlimit="10"/>
<path d="M223.83 234.985C223.83 234.985 231.379 237.499 237.251 237.499C243.123 237.499 263.255 234.147 263.255 234.147" stroke="white" stroke-width="2" stroke-miterlimit="10"/>
<path d="M214.603 238.336C212.087 241.688 208.731 243.364 207.893 250.906C207.054 258.448 213.764 265.99 213.764 265.99" stroke="white" stroke-width="2" stroke-miterlimit="10"/>
<path d="M273.32 249.23C273.32 249.23 271.643 247.554 268.287 246.716C264.932 245.878 237.251 247.554 237.251 247.554C237.251 247.554 225.508 250.068 222.991 252.582C220.475 255.096 221.314 262.638 221.314 265.152C221.314 267.666 228.024 272.693 228.863 274.369C229.702 276.045 242.284 278.559 242.284 278.559" stroke="white" stroke-width="2" stroke-miterlimit="10"/>
<path d="M236.412 278.559C236.412 279.397 247.317 291.129 248.156 291.967C248.995 292.805 255.705 299.509 254.866 302.023C254.028 304.536 252.35 308.726 252.35 308.726" stroke="white" stroke-width="2" stroke-miterlimit="10"/>
<path d="M258.222 302.861C258.222 302.861 290.097 310.402 290.936 310.402C291.774 310.402 298.485 307.05 298.485 307.05L305.195 299.509L309.39 300.347" stroke="white" stroke-width="2" stroke-miterlimit="10"/>
<path d="M248.944 296.852C245.832 295.671 242.553 295.847 240.019 297.648C235.49 300.866 235.087 308.064 239.113 313.721C243.14 319.377 250.085 321.346 254.615 318.128C256.963 316.461 258.196 313.721 258.289 310.687C258.289 310.687 280.031 320.458 292.613 322.972C305.195 325.486 347.975 325.486 347.975 325.486" stroke="white" stroke-width="2" stroke-miterlimit="10"/>
<path d="M362.235 341.407C362.235 341.407 327.005 344.759 315.261 343.921C303.518 343.083 275.837 332.19 274.998 331.352C274.159 330.514 268.237 327.019 268.237 327.019C265.125 325.838 261.845 326.014 259.312 327.815C254.782 331.033 254.38 338.231 258.406 343.888C262.432 349.544 269.378 351.513 273.907 348.295C276.256 346.628 277.489 343.888 277.581 340.854C277.581 340.854 296.807 352.301 309.389 353.139C321.972 353.977 359.719 348.949 359.719 348.949" stroke="white" stroke-width="2" stroke-miterlimit="10"/>
<path d="M361.396 371.574C361.396 371.574 332.877 372.412 327.005 372.412C321.133 372.412 303.518 365.709 295.969 364.033C288.419 362.357 279.62 354.17 279.62 354.17C276.726 353.29 273.58 353.667 271.056 355.468C266.526 358.686 265.679 365.264 269.16 370.15C272.641 375.035 279.142 376.384 283.663 373.166C286.012 371.499 287.371 368.926 287.647 366.161C287.647 366.161 304.348 376.602 314.414 378.278C324.48 379.954 351.322 378.278 351.322 378.278" stroke="white" stroke-width="2" stroke-miterlimit="10"/>
<path d="M358.88 395.038C358.88 395.038 333.715 399.227 319.455 396.714C305.196 394.2 290.835 383.691 290.835 383.691C288.453 381.839 285.374 381.069 282.371 381.839C276.986 383.231 273.849 389.063 275.35 394.878C276.852 400.694 282.438 404.272 287.815 402.881C290.609 402.16 292.789 400.25 294.048 397.761C294.048 397.761 310.237 405.94 322.819 406.778C335.401 407.616 361.405 400.912 361.405 400.912" stroke="white" stroke-width="2" stroke-miterlimit="10"/>
<path d="M354.686 422.691C354.686 422.691 336.232 430.233 321.972 430.233C307.712 430.233 294.945 424.115 294.945 424.115C293.435 425.942 291.17 427.199 288.553 427.434C283.504 427.895 279.066 424.383 278.63 419.59C278.194 414.797 281.935 410.549 286.976 410.088C289.795 409.828 292.429 410.817 294.282 412.568C294.282 412.568 310.237 423.529 321.98 423.529C333.724 423.529 358.049 415.149 358.049 415.149" stroke="white" stroke-width="2" stroke-miterlimit="10"/>
<path d="M295.969 313.754C295.969 313.754 306.873 314.592 314.422 315.43C321.972 316.268 336.232 316.268 336.232 316.268" stroke="white" stroke-width="2" stroke-miterlimit="10"/>
<path d="M248.978 320.617C250.672 321.304 254.866 327.17 254.866 327.17L255.705 328.846" stroke="white" stroke-width="2" stroke-miterlimit="10"/>
<path d="M264.932 350.625C264.932 350.625 268.103 355.242 267.776 358.795" stroke="white" stroke-width="2" stroke-miterlimit="10"/>
<path d="M271.643 374.088C271.643 374.088 275.837 379.116 275.837 382.468" stroke="white" stroke-width="2" stroke-miterlimit="10"/>
<path d="M281.256 402.94C281.256 402.94 282.556 404.264 282.556 407.616" stroke="white" stroke-width="2" stroke-miterlimit="10"/>
<path d="M278.353 426.043C278.353 427.719 279.192 428.557 278.353 430.232C277.515 431.908 271.643 434.422 271.643 437.774C271.643 441.126 273.32 448.668 273.32 450.344C273.32 452.02 264.932 455.372 264.093 459.562C263.255 463.751 267.449 483.025 267.449 483.025C267.449 483.025 257.383 494.756 262.416 509.002C267.449 523.248 295.969 548.387 295.969 548.387C295.969 548.387 319.455 557.604 324.488 558.442" stroke="white" stroke-width="2" stroke-miterlimit="10"/>
<path d="M269.126 488.053C269.126 488.053 278.353 492.243 280.031 492.243C281.708 492.243 300.162 468.779 300.162 468.779C300.162 468.779 324.488 464.589 332.038 466.265C339.587 467.941 355.524 471.293 358.041 472.969C360.557 474.645 370.623 490.567 370.623 490.567" stroke="white" stroke-width="2" stroke-miterlimit="10"/>
<path d="M363.074 497.27C363.074 497.27 353.184 481.877 345.459 482.187C337.322 482.514 335.611 490.357 337.909 495.594C337.909 495.594 340.426 503.136 337.071 507.326C333.715 511.516 328.682 514.868 328.682 518.22C328.682 521.572 332.038 523.248 334.554 528.275C337.071 533.303 340.426 541.683 340.426 541.683" stroke="white" stroke-width="2" stroke-miterlimit="10"/>
<path d="M266.61 553.415C266.61 553.415 269.965 556.767 284.225 559.28C298.485 561.794 316.1 560.118 316.1 560.118" stroke="white" stroke-width="2" stroke-miterlimit="10"/>
<path d="M548.453 562.632C548.453 562.632 547.614 565.984 547.614 569.336C547.614 572.688 552.647 576.878 552.647 579.392C552.647 581.906 547.614 586.096 547.614 591.961C547.614 597.827 550.13 606.207 550.13 606.207" stroke="white" stroke-width="2" stroke-miterlimit="10"/>
<path d="M519.933 593.637C522.449 591.123 522.449 590.285 524.966 591.123C527.482 591.961 530.837 593.637 532.515 591.961C534.193 590.285 539.226 586.096 540.903 585.258C542.581 584.42 545.097 586.096 545.097 586.096" stroke="white" stroke-width="2" stroke-miterlimit="10"/>
<path d="M372.301 684.138C365.59 687.49 357.202 693.356 358.88 700.898C360.557 708.44 365.59 715.981 365.59 715.981" stroke="white" stroke-width="2" stroke-miterlimit="10"/>
<path d="M353.847 705.088C347.975 705.926 350.492 706.764 347.136 705.088C343.781 703.412 345.459 704.25 342.104 703.412" stroke="white" stroke-width="2" stroke-miterlimit="10"/>
<path d="M436.051 758.718C434.373 761.232 434.373 764.584 431.018 766.26C427.663 767.936 425.985 767.936 423.469 768.774" stroke="white" stroke-width="2" stroke-miterlimit="10"/>
<path d="M219.636 834.974C219.636 834.974 223.83 840.84 226.347 842.516C228.863 844.191 241.445 846.705 241.445 846.705" stroke="white" stroke-width="2" stroke-miterlimit="10"/>
<path d="M220.475 841.678C218.797 842.516 217.958 842.516 217.958 845.867C217.958 849.219 228.024 859.275 228.024 859.275" stroke="white" stroke-width="2" stroke-miterlimit="10"/>
<path d="M249.833 860.951C249.833 860.951 258.222 868.493 259.06 871.007C259.899 873.521 269.126 876.872 269.126 877.71C269.126 878.548 268.287 880.224 268.287 881.062C268.287 881.9 259.06 880.224 259.06 880.224C259.06 880.224 272.482 886.928 272.482 887.766C272.482 888.604 273.32 888.604 272.482 890.28C271.643 891.956 264.932 891.118 264.932 891.118C264.932 891.118 277.514 897.822 277.514 899.498C277.514 901.174 274.998 907.04 274.998 907.04L262.416 897.822C262.416 897.822 277.514 912.905 277.514 914.581C277.514 916.257 276.676 919.609 275.837 920.447C274.998 921.285 268.287 921.285 268.287 921.285" stroke="white" stroke-width="2" stroke-miterlimit="10"/>
<path d="M418.436 337.217L416.758 338.893C416.758 338.893 404.176 332.19 400.821 336.379C397.465 340.569 398.304 348.949 398.304 348.949" stroke="white" stroke-width="2" stroke-miterlimit="10"/>
<path d="M421.791 752.852C423.469 757.88 425.985 760.394 422.63 763.746C419.275 767.098 419.275 767.936 415.081 767.936C410.887 767.936 411.725 766.26 408.37 763.746C405.015 761.232 410.887 751.176 410.887 751.176" stroke="white" stroke-width="2" stroke-miterlimit="10"/>
<path d="M302.679 208.169L332.038 218.225" stroke="white" stroke-width="2" stroke-miterlimit="10"/>
<path d="M359.719 227.443C365.59 229.957 413.403 245.04 424.307 254.258C435.212 263.476 468.765 302.861 470.442 327.162C472.12 351.463 462.893 363.195 462.893 363.195" stroke="white" stroke-width="2" stroke-miterlimit="10"/>
<path d="M436.051 391.686C436.051 391.686 425.146 408.445 407.531 410.959C389.916 413.473 370.623 404.255 370.623 404.255" stroke="white" stroke-width="2" stroke-miterlimit="10"/>
<path d="M318.616 158.729C318.616 158.729 321.133 156.215 322.811 155.377C324.488 154.539 330.36 155.377 330.36 155.377L358.88 231.633C358.88 231.633 353.847 234.985 349.653 236.661C345.459 238.336 337.07 236.661 337.07 236.661L318.616 158.729Z" stroke="white" stroke-width="2" stroke-miterlimit="10"/>
<path d="M371.462 229.119V224.091L408.37 231.633" stroke="white" stroke-width="2" stroke-miterlimit="10"/>
<path d="M407.531 242.526C407.531 239.174 411.725 222.415 411.725 222.415L450.311 233.309L445.278 261.8L427.663 255.096" stroke="white" stroke-width="2" stroke-miterlimit="10"/>
<path d="M448.633 255.934L514.061 282.749C514.061 282.749 561.874 300.347 571.94 307.05C582.005 313.754 613.88 342.245 613.88 342.245" stroke="white" stroke-width="2" stroke-miterlimit="10"/>
<path d="M532.515 265.99L582.005 283.587C582.005 283.587 603.815 290.291 610.525 289.453C617.236 288.615 631.496 286.101 631.496 286.101" stroke="white" stroke-width="2" stroke-miterlimit="10"/>
<path d="M631.126 316.975C635.986 301.522 636.522 287.926 632.323 286.608C628.124 285.29 620.781 296.75 615.922 312.203C611.062 327.657 610.526 341.252 614.725 342.57C618.924 343.888 626.267 332.428 631.126 316.975Z" stroke="white" stroke-width="2" stroke-miterlimit="10"/>
<path d="M463.732 238.336C463.732 238.336 468.765 245.878 472.12 249.23C475.475 252.582 477.153 258.448 477.153 258.448L472.12 260.124L457.021 242.526L463.732 238.336Z" stroke="white" stroke-width="2" stroke-miterlimit="10"/>
<path d="M492.252 249.23C492.252 249.23 495.607 250.906 498.124 253.42C500.64 255.934 504.834 263.476 504.834 263.476L499.801 267.666L487.219 254.258L491.413 249.23H492.252Z" stroke="white" stroke-width="2" stroke-miterlimit="10"/>
<path d="M509.867 258.448L515.739 255.934C515.739 255.934 520.772 258.448 523.288 260.962C525.804 263.476 528.321 269.342 528.321 269.342L522.449 271.855L509.867 258.448Z" stroke="white" stroke-width="2" stroke-miterlimit="10"/>
<path d="M523.288 258.448L540.903 249.23C540.903 249.23 542.581 247.554 545.097 249.23C547.614 250.906 546.775 255.096 546.775 255.096L528.321 266.828" stroke="white" stroke-width="2" stroke-miterlimit="10"/>
<path d="M508.189 258.448L500.64 255.096" stroke="white" stroke-width="2" stroke-miterlimit="10"/>
<path d="M488.058 250.068L469.604 245.04" stroke="white" stroke-width="2" stroke-miterlimit="10"/>
<path d="M454.505 241.688L450.311 240.012" stroke="white" stroke-width="2" stroke-miterlimit="10"/>
<path d="M59.4218 19.6254C59.4218 19.6254 56.0666 22.1393 56.9054 27.1671C57.7442 32.195 54.3889 50.6304 80.3923 85.8253C106.396 121.02 143.304 166.271 143.304 166.271L158.402 178.84" stroke="white" stroke-width="2" stroke-miterlimit="10"/>
<path d="M207.893 215.711C207.893 215.711 158.402 203.142 113.945 166.271C69.4877 129.4 35.0962 78.2835 35.0962 78.2835L9.93164 26.3292" stroke="white" stroke-width="2" stroke-miterlimit="10"/>
<path d="M37.8602 24.1435C56.955 19.7852 71.3779 11.6326 70.0747 5.93426C68.7714 0.235936 52.2355 -0.850295 33.1407 3.5081C14.0458 7.86649 -0.377091 16.0191 0.92617 21.7174C2.22943 27.4157 18.7654 28.5019 37.8602 24.1435Z" stroke="white" stroke-width="2" stroke-miterlimit="10"/>
<path d="M274.579 118.925C278.748 118.925 282.128 115.924 282.128 112.221C282.128 108.519 278.748 105.518 274.579 105.518C270.409 105.518 267.029 108.519 267.029 112.221C267.029 115.924 270.409 118.925 274.579 118.925Z" fill="white"/>
<path d="M238.509 144.902C242.679 144.902 246.059 141.901 246.059 138.199C246.059 134.496 242.679 131.495 238.509 131.495C234.34 131.495 230.96 134.496 230.96 138.199C230.96 141.901 234.34 144.902 238.509 144.902Z" fill="white"/>
<path d="M255.286 119.763C255.286 119.763 262.835 127.305 259.48 134.847C256.125 142.388 250.253 149.092 250.253 149.092" stroke="white" stroke-width="2" stroke-miterlimit="10"/>
<path d="M268.288 121.858C268.288 121.858 275.837 125.21 277.515 125.21C279.192 125.21 281.709 130.238 284.225 131.914C286.742 133.59 291.774 136.104 291.774 136.104L288.419 141.132L281.709 139.456L280.031 146.159L271.643 147.835C271.643 147.835 270.804 140.294 269.126 136.104C267.449 131.914 267.449 130.238 267.449 130.238L268.288 121.858Z" stroke="white" stroke-width="2" stroke-miterlimit="10"/>
<path d="M261.577 116.83L268.287 121.858" stroke="white" stroke-width="2" stroke-miterlimit="10"/>
<path d="M271.643 125.21L279.192 136.942" stroke="white" stroke-width="2" stroke-miterlimit="10"/>
<path d="M224.669 174.651C224.669 173.813 227.185 167.947 223.83 166.271C220.475 164.595 214.603 162.081 211.248 166.271C207.892 170.461 207.054 177.164 209.57 179.678C212.087 182.192 213.764 183.03 213.764 183.03" stroke="white" stroke-width="2" stroke-miterlimit="10"/>
<path d="M275.837 562.632C275.837 562.632 283.386 565.146 289.258 565.146C295.13 565.146 309.39 563.47 309.39 563.47" stroke="white" stroke-width="2" stroke-miterlimit="10"/>
<path d="M284.225 569.336C284.225 569.336 292.613 570.174 298.485 569.336C304.357 568.498 321.972 566.822 321.972 566.822" stroke="white" stroke-width="2" stroke-miterlimit="10"/>
<path d="M370.623 550.063C370.623 550.063 373.979 547.549 377.334 546.711C380.689 545.873 384.883 541.683 384.883 541.683" stroke="white" stroke-width="2" stroke-miterlimit="10"/>
<path d="M383.206 552.577C385.722 550.901 391.594 543.359 391.594 543.359" stroke="white" stroke-width="2" stroke-miterlimit="10"/>
<path d="M317.778 501.46C317.778 501.46 311.906 510.678 315.261 519.058C318.616 527.437 333.715 542.521 333.715 542.521" stroke="white" stroke-width="2" stroke-miterlimit="10"/>
<path d="M214.603 311.24C214.603 311.24 213.764 312.078 217.958 310.402C222.153 308.726 228.024 301.185 228.024 301.185" stroke="white" stroke-width="2" stroke-miterlimit="10"/>
<path d="M222.153 318.782C222.153 318.782 223.83 318.782 225.508 317.944C227.185 317.106 231.38 312.078 231.38 312.078" stroke="white" stroke-width="2" stroke-miterlimit="10"/>
<path d="M226.347 325.486C226.347 325.486 226.347 326.324 232.218 325.486C238.09 324.648 239.768 323.81 239.768 323.81" stroke="white" stroke-width="2" stroke-miterlimit="10"/>
<path d="M232.218 341.407C236.412 341.407 239.768 339.731 242.284 338.893C244.801 338.055 249.833 328.838 249.833 328.838" stroke="white" stroke-width="2" stroke-miterlimit="10"/>
<path d="M234.735 348.111C234.735 348.111 243.123 349.787 245.639 347.273L252.35 340.569" stroke="white" stroke-width="2" stroke-miterlimit="10"/>
<path d="M247.317 368.222C247.317 368.222 252.35 369.898 255.705 367.384C259.06 364.871 262.416 356.491 262.416 356.491" stroke="white" stroke-width="2" stroke-miterlimit="10"/>
<path d="M254.028 376.602C254.028 376.602 257.383 377.44 259.899 374.926C262.416 372.412 265.771 368.222 265.771 368.222" stroke="white" stroke-width="2" stroke-miterlimit="10"/>
<path d="M259.899 397.552C259.899 397.552 262.416 397.552 264.932 396.714C267.449 395.876 271.643 390.848 271.643 390.848" stroke="white" stroke-width="2" stroke-miterlimit="10"/>
<path d="M260.738 405.093C260.738 405.093 263.254 405.093 266.61 404.255C269.965 403.417 272.481 400.065 272.481 400.065" stroke="white" stroke-width="2" stroke-miterlimit="10"/>
<path d="M263.255 422.691C263.255 422.691 267.449 421.853 270.804 419.339C274.159 416.825 280.031 410.959 280.031 410.959" stroke="white" stroke-width="2" stroke-miterlimit="10"/>
<path d="M259.899 429.395L263.255 433.584" stroke="white" stroke-width="2" stroke-miterlimit="10"/>
<path d="M254.866 442.802L260.738 451.182" stroke="white" stroke-width="2" stroke-miterlimit="10"/>
<path d="M246.478 467.941C246.478 467.941 248.156 472.131 250.672 473.807C253.189 475.483 256.544 477.159 256.544 477.159" stroke="white" stroke-width="2" stroke-miterlimit="10"/>
<path d="M192.794 263.476C192.794 263.476 194.472 263.476 200.343 266.828C206.215 270.18 207.893 272.693 207.893 272.693C207.893 272.693 205.376 273.531 206.215 278.559C207.054 283.587 212.087 289.453 212.087 289.453" stroke="white" stroke-width="2" stroke-miterlimit="10"/>
<path d="M216.281 271.855C216.281 271.855 212.926 276.883 216.281 282.749C219.636 288.615 231.38 294.481 231.38 294.481" stroke="white" stroke-width="2" stroke-miterlimit="10"/>
<path d="M22.5139 39.7367C22.5139 40.5747 46.0008 91.6911 63.616 110.126C81.2311 128.562 98.0075 141.969 98.0075 141.969" stroke="white" stroke-width="2" stroke-miterlimit="10"/>
<path d="M289.258 162.081L279.192 170.461" stroke="white" stroke-width="2" stroke-miterlimit="10"/>
<path d="M288.419 151.187L290.097 154.539" stroke="white" stroke-width="2" stroke-miterlimit="10"/>
<path d="M280.031 155.377L282.547 157.891" stroke="white" stroke-width="2" stroke-miterlimit="10"/>
<path d="M271.643 162.081L274.998 165.433" stroke="white" stroke-width="2" stroke-miterlimit="10"/>
<path d="M264.932 172.137L267.449 174.651" stroke="white" stroke-width="2" stroke-miterlimit="10"/>
<path d="M250.672 183.868L251.511 185.544" stroke="white" stroke-width="2" stroke-miterlimit="10"/>
<path d="M259.061 179.678L259.899 182.192" stroke="white" stroke-width="2" stroke-miterlimit="10"/>
<path d="M295.969 180.516V183.03" stroke="white" stroke-width="2" stroke-miterlimit="10"/>
<path d="M303.518 174.651L285.064 173.812" stroke="white" stroke-width="2" stroke-miterlimit="10"/>
<path d="M287.58 175.488V177.164" stroke="white" stroke-width="2" stroke-miterlimit="10"/>
<path d="M285.903 181.354L285.064 185.544" stroke="white" stroke-width="2" stroke-miterlimit="10"/>
<path d="M277.514 183.03L278.353 186.382" stroke="white" stroke-width="2" stroke-miterlimit="10"/>
<path d="M266.61 185.544V188.896" stroke="white" stroke-width="2" stroke-miterlimit="10"/>
<path d="M255.705 188.896V193.086" stroke="white" stroke-width="2" stroke-miterlimit="10"/>
<path d="M284.225 212.359L297.646 229.119L299.324 215.711" stroke="white" stroke-width="2" stroke-miterlimit="10"/>
</g>
<defs>
<clipPath id="clip0_91_26">
<rect width="636" height="930" fill="white"/>
</clipPath>
</defs>
</svg>
